Georama-SemiBoldItalic.ufo
<glyph name="exclam" format="2">
  <advance width="237.51"/>
  <unicode hex="0021"/>
  <outline>
    <contour>
      <point x="62.47999999999999" y="261.25" type="line"/>
      <point x="168.04000000000002" y="261.25" type="line"/>
      <point x="254.26000000000002" y="740.0" type="line"/>
      <point x="131.65" y="740.0" type="line"/>
    </contour>
    <contour>
      <point x="14.81" y="43.99" type="curve" smooth="yes"/>
      <point x="14.359999999999998" y="10.4"/>
      <point x="31.300000000000004" y="-5.5"/>
      <point x="73.69" y="-5.5" type="curve" smooth="yes"/>
      <point x="131.52" y="-5.5"/>
      <point x="155.13" y="34.22"/>
      <point x="156.48000000000002" y="88.24000000000001" type="curve" smooth="yes"/>
      <point x="156.93" y="122.10000000000001"/>
      <point x="139.45000000000002" y="137.73000000000002"/>
      <point x="97.55000000000001" y="137.73000000000002" type="curve" smooth="yes"/>
      <point x="39.82" y="137.73000000000002"/>
      <point x="16.159999999999997" y="97.57000000000001"/>
    </contour>
  </outline>
</glyph>
<glyph name="numbersign" format="2">
  <advance width="623.22"/>
  <unicode hex="0023"/>
  <outline>
    <contour>
      <point x="121.85999999999999" y="436.96" type="line"/>
      <point x="195.73999999999998" y="436.96" type="line"/>
      <point x="140.34000000000003" y="258.72" type="line"/>
      <point x="69.22" y="258.72" type="line"/>
      <point x="53.58999999999999" y="162.69000000000003" type="line"/>
      <point x="114.40999999999998" y="162.69000000000003" type="line"/>
      <point x="66.39000000000001" y="0.0" type="line"/>
      <point x="174.77" y="0.0" type="line"/>
      <point x="222.33999999999997" y="162.69000000000003" type="line"/>
      <point x="317.21" y="162.69000000000003" type="line"/>
      <point x="269.64" y="0.0" type="line"/>
      <point x="377.41999999999996" y="0.0" type="line"/>
      <point x="424.99" y="162.69000000000003" type="line"/>
      <point x="509.84000000000003" y="162.69000000000003" type="line"/>
      <point x="524.98" y="258.72" type="line"/>
      <point x="451.54" y="258.72" type="line"/>
      <point x="506.32000000000005" y="436.96" type="line"/>
      <point x="577.62" y="436.96" type="line"/>
      <point x="593.49" y="533.21" type="line"/>
      <point x="532.4300000000001" y="533.21" type="line"/>
      <point x="581.99" y="700.0" type="line"/>
      <point x="473.88000000000005" y="700.0" type="line"/>
      <point x="424.32" y="533.21" type="line"/>
      <point x="329.45" y="533.21" type="line"/>
      <point x="379.01" y="700.0" type="line"/>
      <point x="271.22999999999996" y="700.0" type="line"/>
      <point x="221.67000000000002" y="533.21" type="line"/>
      <point x="137.51" y="533.21" type="line"/>
    </contour>
    <contour>
      <point x="303.52000000000004" y="436.96" type="line"/>
      <point x="398.39" y="436.96" type="line"/>
      <point x="343.32" y="258.72" type="line"/>
      <point x="248.45" y="258.72" type="line"/>
    </contour>
  </outline>
</glyph>
<glyph name="dollar" format="2">
  <advance width="623.22"/>
  <unicode hex="0024"/>
  <outline>
    <contour>
      <point x="585.1600000000001" y="676.06" type="line"/>
      <point x="553.5999999999999" y="688.2199999999999"/>
      <point x="501.96000000000004" y="703.98"/>
      <point x="434.90000000000003" y="708.36" type="curve"/>
      <point x="450.3" y="804.34" type="line"/>
      <point x="353.20000000000005" y="804.34" type="line"/>
      <point x="336.72" y="703.4599999999999" type="line"/>
      <point x="212.22" y="688.52"/>
      <point x="109.54" y="615.62"/>
      <point x="109.54" y="493.31999999999994" type="curve" smooth="yes"/>
      <point x="109.54" y="293.75999999999993"/>
      <point x="415.4000000000001" y="301.14000000000004"/>
      <point x="415.4000000000001" y="193.06" type="curve" smooth="yes"/>
      <point x="415.4000000000001" y="128.27999999999997"/>
      <point x="345.21999999999997" y="95.74"/>
      <point x="272.82000000000005" y="95.74" type="curve" smooth="yes"/>
      <point x="197.28000000000003" y="95.74"/>
      <point x="114.47999999999999" y="115.06"/>
      <point x="61.98" y="136.79999999999998" type="curve"/>
      <point x="22.020000000000003" y="33.4" type="line"/>
      <point x="68.17999999999999" y="15.220000000000002"/>
      <point x="140.56" y="-4.539999999999999"/>
      <point x="215.71999999999997" y="-7.800000000000001" type="curve"/>
      <point x="200.71999999999997" y="-105.0" type="line"/>
      <point x="297.6" y="-105.0" type="line"/>
      <point x="312.6" y="-5.44" type="line"/>
      <point x="439.5" y="11.04"/>
      <point x="545.9599999999999" y="82.06"/>
      <point x="545.9599999999999" y="207.26000000000002" type="curve" smooth="yes"/>
      <point x="545.9599999999999" y="404.96"/>
      <point x="241.56000000000003" y="393.31999999999994"/>
      <point x="241.56000000000003" y="504.26000000000005" type="curve" smooth="yes"/>
      <point x="241.56000000000003" y="566.2399999999999"/>
      <point x="310.02" y="601.18"/>
      <point x="378.0" y="601.18" type="curve" smooth="yes"/>
      <point x="441.3" y="601.18"/>
      <point x="497.16" y="591.3599999999999"/>
      <point x="546.8199999999999" y="572.34" type="curve"/>
    </contour>
  </outline>
</glyph>
<glyph name="ampersand" format="2">
  <advance width="684.5000000000001"/>
  <unicode hex="0026"/>
  <outline>
    <contour>
      <point x="275.19" y="-10.0" type="curve" smooth="yes"/>
      <point x="454.78" y="-10.0"/>
      <point x="583.81" y="123.20000000000002"/>
      <point x="587.9499999999999" y="298.41" type="curve"/>
      <point x="488.95000000000005" y="295.36" type="line"/>
      <point x="499.29" y="179.24"/>
      <point x="394.22999999999996" y="89.97000000000001"/>
      <point x="291.0" y="89.97000000000001" type="curve" smooth="yes"/>
      <point x="196.95000000000002" y="89.97000000000001"/>
      <point x="147.64000000000001" y="131.96"/>
      <point x="147.64000000000001" y="195.84" type="curve" smooth="yes"/>
      <point x="147.64000000000001" y="292.78999999999996"/>
      <point x="227.86999999999998" y="353.52"/>
      <point x="324.14000000000004" y="353.52" type="curve" smooth="yes"/>
      <point x="353.65999999999997" y="353.52" type="line"/>
      <point x="371.08000000000004" y="428.61" type="line"/>
      <point x="355.17" y="430.77" type="line" smooth="yes"/>
      <point x="287.35" y="437.39"/>
      <point x="249.07999999999998" y="466.89"/>
      <point x="249.07999999999998" y="521.2199999999999" type="curve" smooth="yes"/>
      <point x="249.07999999999998" y="572.55"/>
      <point x="289.99" y="614.66"/>
      <point x="353.2" y="614.66" type="curve" smooth="yes"/>
      <point x="393.09000000000003" y="614.66"/>
      <point x="430.42999999999995" y="601.51"/>
      <point x="463.79999999999995" y="575.21" type="curve"/>
      <point x="525.39" y="654.33" type="line"/>
      <point x="475.16" y="690.59"/>
      <point x="413.45" y="710.0"/>
      <point x="340.99999999999994" y="710.0" type="curve" smooth="yes"/>
      <point x="207.87000000000003" y="710.0"/>
      <point x="126.71999999999998" y="630.13"/>
      <point x="126.71999999999998" y="538.02" type="curve" smooth="yes"/>
      <point x="126.71999999999998" y="474.83"/>
      <point x="163.39000000000001" y="425.38"/>
      <point x="225.71" y="402.53999999999996" type="curve"/>
      <point x="106.30999999999999" y="383.1"/>
      <point x="22.64" y="306.29"/>
      <point x="22.64" y="179.29000000000002" type="curve" smooth="yes"/>
      <point x="22.64" y="67.42000000000002"/>
      <point x="106.03000000000002" y="-10.0"/>
    </contour>
    <contour>
      <point x="402.34000000000003" y="228.86000000000004" type="line"/>
      <point x="407.09000000000003" y="263.73"/>
      <point x="427.45" y="278.52"/>
      <point x="456.85" y="278.52" type="curve" smooth="yes"/>
      <point x="506.97" y="278.52"/>
      <point x="546.6400000000001" y="266.36"/>
      <point x="593.61" y="266.36" type="curve" smooth="yes"/>
      <point x="660.69" y="266.36"/>
      <point x="705.0600000000001" y="326.57000000000005"/>
      <point x="699.9000000000001" y="399.78" type="curve"/>
      <point x="624.9500000000002" y="402.21000000000004" type="line"/>
      <point x="622.36" y="357.16"/>
      <point x="598.2600000000001" y="343.96999999999997"/>
      <point x="554.96" y="343.96999999999997" type="curve" smooth="yes"/>
      <point x="515.4" y="343.96999999999997"/>
      <point x="485.86" y="358.37"/>
      <point x="444.32" y="358.37" type="curve" smooth="yes"/>
      <point x="374.48" y="358.37"/>
      <point x="336.31000000000006" y="309.27"/>
      <point x="330.48" y="246.69" type="curve"/>
    </contour>
  </outline>
</glyph>
<glyph name="quotesingle" format="2">
  <advance width="188.06"/>
  <unicode hex="0027"/>
  <outline>
    <contour>
      <point x="67.64" y="427.0" type="line"/>
      <point x="166.32999999999998" y="427.0" type="line"/>
      <point x="216.63" y="700.0" type="line"/>
      <point x="105.42999999999999" y="700.0" type="line"/>
    </contour>
  </outline>
</glyph>
<glyph name="parenleft" format="2">
  <advance width="315.41"/>
  <unicode hex="0028"/>
  <outline>
    <contour>
      <point x="47.06" y="65.8" type="curve" smooth="yes"/>
      <point x="47.06" y="-85.02000000000001"/>
      <point x="95.61" y="-197.42000000000002"/>
      <point x="212.73000000000002" y="-220.0" type="curve"/>
      <point x="231.41000000000003" y="-125.1" type="line"/>
      <point x="175.17" y="-103.27999999999999"/>
      <point x="146.31" y="-37.459999999999994"/>
      <point x="146.31" y="67.08999999999999" type="curve" smooth="yes"/>
      <point x="146.31" y="241.32999999999998"/>
      <point x="222.65" y="619.52"/>
      <point x="353.78" y="652.26" type="curve"/>
      <point x="366.40000000000003" y="749.7299999999999" type="line"/>
      <point x="139.03" y="718.58"/>
      <point x="47.06" y="311.98"/>
    </contour>
  </outline>
</glyph>
<glyph name="parenright" format="2">
  <advance width="315.41"/>
  <unicode hex="0029"/>
  <outline>
    <contour>
      <point x="265.40000000000003" y="463.84" type="curve" smooth="yes"/>
      <point x="265.40000000000003" y="616.84"/>
      <point x="216.76000000000002" y="727.42"/>
      <point x="99.46" y="750.0" type="curve"/>
      <point x="81.32000000000001" y="652.8299999999999" type="line"/>
      <point x="139.9" y="629.03"/>
      <point x="166.15" y="563.84"/>
      <point x="166.15" y="464.96" type="curve" smooth="yes"/>
      <point x="166.15" y="291.98"/>
      <point x="90.8" y="-88.88999999999999"/>
      <point x="-41.95" y="-122.44" type="curve"/>
      <point x="-54.3" y="-220.0" type="line"/>
      <point x="165.87" y="-186.73"/>
      <point x="265.40000000000003" y="211.58"/>
    </contour>
  </outline>
</glyph>
<glyph name="asterisk" format="2">
  <advance width="343.72"/>
  <unicode hex="002A"/>
  <outline>
    <contour>
      <point x="116.88000000000001" y="366.45000000000005" type="line"/>
      <point x="201.19000000000003" y="462.77" type="line"/>
      <point x="253.64000000000001" y="366.71999999999997" type="line"/>
      <point x="304.69" y="400.56" type="line"/>
      <point x="264.14" y="508.13" type="line"/>
      <point x="371.60999999999996" y="556.18" type="line"/>
      <point x="363.06" y="612.3699999999999" type="line"/>
      <point x="255.4" y="581.27" type="line"/>
      <point x="268.75000000000006" y="706.03" type="line"/>
      <point x="211.69" y="706.03" type="line"/>
      <point x="184.92000000000002" y="581.54" type="line"/>
      <point x="87.52000000000001" y="612.64" type="line"/>
      <point x="61.29" y="556.72" type="line"/>
      <point x="151.63" y="508.67" type="line"/>
      <point x="76.67" y="400.92" type="line"/>
    </contour>
  </outline>
</glyph>
<glyph name="plus" format="2">
  <advance width="474.91"/>
  <unicode hex="002B"/>
  <outline>
    <contour>
      <point x="157.31" y="105.33000000000001" type="line"/>
      <point x="264.02" y="105.33000000000001" type="line"/>
      <point x="287.71000000000004" y="256.08" type="line"/>
      <point x="422.69" y="256.08" type="line"/>
      <point x="439.77" y="362.34999999999997" type="line"/>
      <point x="304.78999999999996" y="362.34999999999997" type="line"/>
      <point x="328.88" y="513.15" type="line"/>
      <point x="222.60999999999999" y="513.15" type="line"/>
      <point x="198.08" y="362.34999999999997" type="line"/>
      <point x="63.49000000000001" y="362.34999999999997" type="line"/>
      <point x="46.410000000000004" y="256.08" type="line"/>
      <point x="181.44000000000003" y="256.08" type="line"/>
    </contour>
  </outline>
</glyph>
<glyph name="comma" format="2">
  <advance width="207.32"/>
  <unicode hex="002C"/>
  <outline>
    <contour>
      <point x="15.979999999999999" y="75.26999999999998" type="line"/>
      <point x="16.419999999999998" y="53.0"/>
      <point x="14.580000000000002" y="31.71"/>
      <point x="12.709999999999999" y="16.520000000000003" type="curve" smooth="yes"/>
      <point x="6.659999999999999" y="-45.46"/>
      <point x="-28.47" y="-125.47"/>
      <point x="-74.67999999999999" y="-169.17000000000002" type="curve"/>
      <point x="12.500000000000007" y="-193.22" type="line"/>
      <point x="86.0" y="-130.10999999999999"/>
      <point x="131.40000000000003" y="-36.57"/>
      <point x="131.40000000000003" y="43.67000000000001" type="curve" smooth="yes"/>
      <point x="131.40000000000003" y="56.08"/>
      <point x="130.31000000000003" y="67.71"/>
      <point x="128.21" y="79.33000000000001" type="curve"/>
    </contour>
  </outline>
</glyph>
<glyph name="hyphen" format="2">
  <advance width="329.58000000000004"/>
  <unicode hex="002D"/>
  <outline>
    <contour>
      <point x="34.9" y="238.51000000000002" type="line"/>
      <point x="282.46999999999997" y="238.51000000000002" type="line"/>
      <point x="301.14" y="350.24" type="line"/>
      <point x="53.56999999999999" y="350.24" type="line"/>
    </contour>
  </outline>
</glyph>
<glyph name="period" format="2">
  <advance width="210.18"/>
  <unicode hex="002E"/>
  <outline>
    <contour>
      <point x="1.2299999999999986" y="44.98" type="curve" smooth="yes"/>
      <point x="0.7799999999999994" y="11.06"/>
      <point x="17.390000000000004" y="-4.510000000000001"/>
      <point x="60.11" y="-4.510000000000001" type="curve" smooth="yes"/>
      <point x="117.94" y="-4.510000000000001"/>
      <point x="141.22" y="35.21"/>
      <point x="142.57000000000002" y="89.89" type="curve" smooth="yes"/>
      <point x="143.02" y="123.42000000000002"/>
      <point x="125.87" y="138.72"/>
      <point x="83.97000000000001" y="138.72" type="curve" smooth="yes"/>
      <point x="25.91" y="138.72"/>
      <point x="2.5799999999999983" y="98.56"/>
    </contour>
  </outline>
</glyph>
<glyph name="slash" format="2">
  <advance width="384.4"/>
  <unicode hex="002F"/>
  <outline>
    <contour>
      <point x="-73.33" y="-210.0" type="line"/>
      <point x="28.770000000000007" y="-210.0" type="line"/>
      <point x="454.72999999999996" y="740.0" type="line"/>
      <point x="351.75" y="740.0" type="line"/>
    </contour>
  </outline>
</glyph>
<glyph name="zero" format="2">
  <advance width="624.3"/>
  <unicode hex="0030"/>
  <outline>
    <contour>
      <point x="282.19999999999993" y="-11.8" type="curve" smooth="yes"/>
      <point x="494.40000000000003" y="-11.8"/>
      <point x="602.7" y="211.29999999999998"/>
      <point x="602.7" y="446.99999999999994" type="curve" smooth="yes"/>
      <point x="602.7" y="615.5999999999999"/>
      <point x="534.9" y="710.9"/>
      <point x="366.00000000000006" y="710.9" type="curve" smooth="yes"/>
      <point x="145.70000000000005" y="710.9"/>
      <point x="44.6" y="483.3"/>
      <point x="44.6" y="253.0" type="curve" smooth="yes"/>
      <point x="44.6" y="85.29999999999998"/>
      <point x="113.29999999999998" y="-11.8"/>
    </contour>
    <contour>
      <point x="289.20000000000005" y="95.9" type="curve" smooth="yes"/>
      <point x="202.10000000000002" y="95.9"/>
      <point x="174.60000000000002" y="158.4"/>
      <point x="174.60000000000002" y="252.1" type="curve" smooth="yes"/>
      <point x="174.6" y="404.79999999999995"/>
      <point x="226.09999999999997" y="604.1"/>
      <point x="359.0" y="604.1" type="curve" smooth="yes"/>
      <point x="446.09999999999997" y="604.1"/>
      <point x="472.7" y="543.3"/>
      <point x="472.7" y="449.6" type="curve" smooth="yes"/>
      <point x="472.7" y="298.7"/>
      <point x="420.3" y="95.9"/>
    </contour>
  </outline>
</glyph>
<glyph name="one" format="2">
  <advance width="623.22"/>
  <unicode hex="0031"/>
  <outline>
    <contour>
      <point x="58.440000000000005" y="0.0" type="line"/>
      <point x="520.6800000000001" y="0.0" type="line"/>
      <point x="537.87" y="105.61999999999999" type="line"/>
      <point x="380.26000000000005" y="105.61999999999999" type="line"/>
      <point x="475.96999999999997" y="701.8" type="line"/>
      <point x="413.15999999999997" y="701.8" type="line"/>
      <point x="129.51999999999998" y="579.94" type="line"/>
      <point x="141.73999999999998" y="467.21" type="line"/>
      <point x="324.90000000000003" y="551.78" type="line"/>
      <point x="253.97000000000003" y="105.61999999999999" type="line"/>
      <point x="75.3" y="105.61999999999999" type="line"/>
    </contour>
  </outline>
</glyph>
<glyph name="two" format="2">
  <advance width="624.3"/>
  <unicode hex="0032"/>
  <outline>
    <contour>
      <point x="48.400000000000006" y="84.0" type="curve"/>
      <point x="36.4" y="0.0" type="line"/>
      <point x="515.3000000000001" y="0.0" type="line"/>
      <point x="532.6" y="103.4" type="line"/>
      <point x="238.40000000000003" y="103.4" type="line"/>
      <point x="391.50000000000006" y="238.60000000000005"/>
      <point x="538.6999999999999" y="370.5"/>
      <point x="538.6999999999999" y="544.8" type="curve" smooth="yes"/>
      <point x="538.6999999999999" y="648.6"/>
      <point x="460.09999999999997" y="710.0"/>
      <point x="353.50000000000006" y="710.0" type="curve" smooth="yes"/>
      <point x="274.90000000000003" y="710.0"/>
      <point x="188.0" y="684.4999999999999"/>
      <point x="125.9" y="644.3" type="curve"/>
      <point x="155.2" y="545.0000000000001" type="line"/>
      <point x="208.29999999999998" y="574.4"/>
      <point x="263.00000000000006" y="593.3999999999999"/>
      <point x="311.8" y="593.3999999999999" type="curve" smooth="yes"/>
      <point x="370.30000000000007" y="593.3999999999999"/>
      <point x="407.0999999999999" y="557.8999999999999"/>
      <point x="407.0999999999999" y="509.2999999999999" type="curve" smooth="yes"/>
      <point x="407.1" y="375.8"/>
      <point x="229.2" y="208.90000000000006"/>
    </contour>
  </outline>
</glyph>
<glyph name="three" format="2">
  <advance width="624.3"/>
  <unicode hex="0033"/>
  <outline>
    <contour>
      <point x="12.3" y="46.3" type="line"/>
      <point x="72.20000000000002" y="8.7"/>
      <point x="148.49999999999997" y="-10.0"/>
      <point x="240.9" y="-10.0" type="curve" smooth="yes"/>
      <point x="388.19999999999993" y="-10.0"/>
      <point x="542.0" y="62.49999999999999"/>
      <point x="542.0" y="225.60000000000002" type="curve" smooth="yes"/>
      <point x="542.0" y="311.90000000000003"/>
      <point x="500.5" y="354.6"/>
      <point x="439.40000000000003" y="372.09999999999997" type="curve"/>
      <point x="511.80000000000007" y="400.1"/>
      <point x="566.5" y="458.90000000000003"/>
      <point x="566.5" y="552.1" type="curve" smooth="yes"/>
      <point x="566.5" y="650.4000000000001"/>
      <point x="492.9" y="710.0"/>
      <point x="346.2" y="710.0" type="curve" smooth="yes"/>
      <point x="269.7" y="710.0"/>
      <point x="185.0" y="697.1"/>
      <point x="128.1" y="660.6999999999999" type="curve"/>
      <point x="152.2" y="566.4000000000001" type="line"/>
      <point x="199.7" y="590.3000000000001"/>
      <point x="256.09999999999997" y="602.9000000000001"/>
      <point x="315.1" y="602.9000000000001" type="curve" smooth="yes"/>
      <point x="394.4" y="602.9000000000001"/>
      <point x="440.09999999999997" y="570.0"/>
      <point x="440.09999999999997" y="513.4000000000001" type="curve" smooth="yes"/>
      <point x="440.09999999999997" y="450.59999999999997"/>
      <point x="393.69999999999993" y="405.40000000000003"/>
      <point x="297.9" y="405.40000000000003" type="curve" smooth="yes"/>
      <point x="197.60000000000002" y="405.40000000000003" type="line"/>
      <point x="181.6" y="312.8" type="line"/>
      <point x="296.2" y="312.8" type="line" smooth="yes"/>
      <point x="379.7" y="312.8"/>
      <point x="416.7" y="281.2"/>
      <point x="416.7" y="222.60000000000002" type="curve" smooth="yes"/>
      <point x="416.7" y="141.60000000000002"/>
      <point x="351.49999999999994" y="97.5"/>
      <point x="247.2" y="97.5" type="curve" smooth="yes"/>
      <point x="173.29999999999998" y="97.5"/>
      <point x="109.1" y="112.0"/>
      <point x="61.400000000000006" y="139.00000000000003" type="curve"/>
    </contour>
  </outline>
</glyph>
<glyph name="four" format="2">
  <advance width="624.3"/>
  <unicode hex="0034"/>
  <outline>
    <contour>
      <point x="12.699999999999998" y="134.4" type="line"/>
      <point x="331.6" y="134.4" type="line"/>
      <point x="310.5" y="-0.8999999999999999" type="line"/>
      <point x="440.5" y="-0.8999999999999999" type="line"/>
      <point x="461.59999999999997" y="134.4" type="line"/>
      <point x="567.7" y="134.4" type="line"/>
      <point x="582.8" y="232.3" type="line"/>
      <point x="477.7" y="232.3" type="line"/>
      <point x="552.6999999999999" y="699.1" type="line"/>
      <point x="444.1" y="701.8" type="line"/>
      <point x="24.900000000000002" y="221.7" type="line"/>
    </contour>
    <contour>
      <point x="145.9" y="232.3" type="line"/>
      <point x="398.5" y="524.1000000000001" type="line"/>
      <point x="350.0" y="232.3" type="line"/>
    </contour>
  </outline>
</glyph>
<glyph name="five" format="2">
  <advance width="624.3000000000001"/>
  <unicode hex="0035"/>
  <outline>
    <contour>
      <point x="24.6" y="44.8" type="line"/>
      <point x="81.7" y="7.4"/>
      <point x="149.60000000000002" y="-10.0"/>
      <point x="241.9" y="-10.0" type="curve" smooth="yes"/>
      <point x="464.79999999999995" y="-10.0"/>
      <point x="549.5" y="120.39999999999999"/>
      <point x="549.5" y="256.5" type="curve" smooth="yes"/>
      <point x="549.5" y="363.70000000000005"/>
      <point x="491.5" y="417.90000000000003"/>
      <point x="365.3" y="418.09999999999997" type="curve" smooth="yes"/>
      <point x="237.90000000000003" y="418.2" type="line"/>
      <point x="279.6" y="590.0999999999999" type="line"/>
      <point x="569.2" y="590.0999999999999" type="line"/>
      <point x="586.5000000000001" y="700.0" type="line"/>
      <point x="207.20000000000002" y="700.0" type="line"/>
      <point x="107.6" y="329.0999999999999" type="line"/>
      <point x="114.5" y="318.2" type="line"/>
      <point x="311.0" y="318.2" type="line" smooth="yes"/>
      <point x="391.99999999999994" y="318.2"/>
      <point x="422.4" y="290.49999999999994"/>
      <point x="422.4" y="234.7" type="curve" smooth="yes"/>
      <point x="422.4" y="172.9"/>
      <point x="377.6" y="96.80000000000001"/>
      <point x="245.89999999999998" y="96.80000000000001" type="curve" smooth="yes"/>
      <point x="168.90000000000003" y="96.80000000000001"/>
      <point x="109.10000000000001" y="120.4"/>
      <point x="67.10000000000001" y="144.4" type="curve"/>
    </contour>
  </outline>
</glyph>
<glyph name="six" format="2">
  <advance width="624.3"/>
  <unicode hex="0036"/>
  <note>
14
</note>
  <outline>
    <contour>
      <point x="307.8" y="-10.0" type="curve" smooth="yes"/>
      <point x="455.7" y="-10.0"/>
      <point x="576.1" y="76.30000000000001"/>
      <point x="576.1" y="250.9" type="curve" smooth="yes"/>
      <point x="576.1" y="373.1"/>
      <point x="498.29999999999995" y="442.59999999999997"/>
      <point x="372.40000000000003" y="442.59999999999997" type="curve" smooth="yes"/>
      <point x="300.59999999999997" y="442.59999999999997"/>
      <point x="225.10000000000002" y="421.5"/>
      <point x="170.60000000000002" y="367.0" type="curve"/>
      <point x="165.9" y="274.6" type="line"/>
      <point x="206.49999999999997" y="318.6"/>
      <point x="271.3" y="342.70000000000005"/>
      <point x="334.3" y="342.70000000000005" type="curve" smooth="yes"/>
      <point x="421.2" y="342.70000000000005"/>
      <point x="455.5" y="303.59999999999997"/>
      <point x="455.5" y="234.40000000000003" type="curve" smooth="yes"/>
      <point x="455.5" y="149.3"/>
      <point x="398.4" y="94.5"/>
      <point x="316.1" y="94.5" type="curve" smooth="yes"/>
      <point x="224.2" y="94.5"/>
      <point x="173.20000000000002" y="145.3"/>
      <point x="173.20000000000002" y="252.09999999999994" type="curve" smooth="yes"/>
      <point x="173.20000000000002" y="360.7"/>
      <point x="201.9" y="460.3"/>
      <point x="260.5" y="522.3" type="curve" smooth="yes"/>
      <point x="306.50000000000006" y="571.4"/>
      <point x="367.5" y="601.0999999999999"/>
      <point x="445.8" y="601.0999999999999" type="curve" smooth="yes"/>
      <point x="488.5000000000001" y="601.0999999999999"/>
      <point x="536.9000000000001" y="591.1"/>
      <point x="576.6" y="573.5" type="curve"/>
      <point x="619.5" y="671.8000000000001" type="line"/>
      <point x="580.0" y="692.4999999999999"/>
      <point x="513.5999999999999" y="710.0"/>
      <point x="435.90000000000003" y="710.0" type="curve" smooth="yes"/>
      <point x="196.4" y="710.0"/>
      <point x="52.70000000000001" y="521.9999999999999"/>
      <point x="52.70000000000001" y="251.50000000000003" type="curve" smooth="yes"/>
      <point x="52.70000000000001" y="74.10000000000001"/>
      <point x="146.9" y="-10.0"/>
    </contour>
  </outline>
</glyph>
<glyph name="seven" format="2">
  <advance width="623.22"/>
  <unicode hex="0037"/>
  <note>
9
</note>
  <outline>
    <contour>
      <point x="135.01" y="0.0" type="curve"/>
      <point x="267.59" y="0.0" type="line"/>
      <point x="289.67" y="122.91000000000001"/>
      <point x="334.84" y="215.25000000000003"/>
      <point x="449.57" y="387.57000000000005" type="curve" smooth="yes"/>
      <point x="599.13" y="611.6500000000001" type="line"/>
      <point x="613.42" y="700.0" type="line"/>
      <point x="127.52999999999999" y="700.0" type="line"/>
      <point x="109.97000000000001" y="587.9499999999999" type="line"/>
      <point x="451.19000000000005" y="587.9499999999999" type="line"/>
      <point x="316.9" y="396.90999999999997" type="line" smooth="yes"/>
      <point x="208.55999999999997" y="243.29000000000002"/>
      <point x="157.65000000000003" y="139.95000000000002"/>
    </contour>
  </outline>
</glyph>
<glyph name="eight" format="2">
  <advance width="630.5"/>
  <unicode hex="0038"/>
  <outline>
    <contour>
      <point x="289.7" y="-10.0" type="curve" smooth="yes"/>
      <point x="452.7" y="-10.0"/>
      <point x="570.5" y="57.09999999999998"/>
      <point x="570.5" y="208.0" type="curve" smooth="yes"/>
      <point x="570.5" y="436.2"/>
      <point x="225.89999999999998" y="370.90000000000003"/>
      <point x="225.89999999999998" y="525.5" type="curve" smooth="yes"/>
      <point x="225.89999999999998" y="580.6000000000001"/>
      <point x="279.5" y="609.6"/>
      <point x="361.4" y="609.6" type="curve" smooth="yes"/>
      <point x="445.9" y="609.6"/>
      <point x="477.1" y="573.5"/>
      <point x="477.1" y="523.5" type="curve" smooth="yes"/>
      <point x="477.1" y="458.6"/>
      <point x="434.7" y="423.79999999999995"/>
      <point x="373.0" y="391.7" type="curve"/>
      <point x="447.8" y="352.4" type="line"/>
      <point x="529.1" y="393.2"/>
      <point x="592.1" y="447.2"/>
      <point x="592.1" y="545.2" type="curve" smooth="yes"/>
      <point x="592.1" y="634.8"/>
      <point x="531.5999999999999" y="710.0"/>
      <point x="368.5" y="710.0" type="curve" smooth="yes"/>
      <point x="217.29999999999998" y="710.0"/>
      <point x="107.4" y="645.7"/>
      <point x="107.4" y="512.1" type="curve" smooth="yes"/>
      <point x="107.4" y="274.09999999999997"/>
      <point x="446.3" y="359.7"/>
      <point x="446.3" y="192.20000000000002" type="curve" smooth="yes"/>
      <point x="446.3" y="117.0"/>
      <point x="386.0" y="85.2"/>
      <point x="300.3" y="85.2" type="curve" smooth="yes"/>
      <point x="199.5" y="85.2"/>
      <point x="153.4" y="127.80000000000001"/>
      <point x="153.4" y="190.5" type="curve" smooth="yes"/>
      <point x="153.4" y="267.2"/>
      <point x="208.6" y="307.8"/>
      <point x="284.7" y="329.9" type="curve"/>
      <point x="206.79999999999998" y="375.9" type="line"/>
      <point x="105.80000000000001" y="351.40000000000003"/>
      <point x="30.9" y="271.4"/>
      <point x="30.9" y="174.0" type="curve" smooth="yes"/>
      <point x="30.9" y="68.10000000000001"/>
      <point x="106.7" y="-10.0"/>
    </contour>
  </outline>
</glyph>
<glyph name="nine" format="2">
  <advance width="624.3"/>
  <unicode hex="0039"/>
  <outline>
    <contour>
      <point x="341.7" y="710.0" type="curve" smooth="yes"/>
      <point x="194.20000000000002" y="710.0"/>
      <point x="73.4" y="623.9"/>
      <point x="73.4" y="450.6" type="curve" smooth="yes"/>
      <point x="73.4" y="326.59999999999997"/>
      <point x="152.2" y="257.40000000000003"/>
      <point x="278.1000000000001" y="257.40000000000003" type="curve" smooth="yes"/>
      <point x="349.90000000000003" y="257.40000000000003"/>
      <point x="424.4" y="278.49999999999994"/>
      <point x="478.90000000000003" y="333.0" type="curve"/>
      <point x="483.6" y="425.4" type="line"/>
      <point x="443.0" y="381.40000000000003"/>
      <point x="378.2" y="357.3"/>
      <point x="315.20000000000005" y="357.3" type="curve" smooth="yes"/>
      <point x="228.3" y="357.3"/>
      <point x="194.00000000000003" y="396.40000000000003"/>
      <point x="194.00000000000003" y="465.59999999999997" type="curve" smooth="yes"/>
      <point x="194.00000000000003" y="550.6999999999999"/>
      <point x="251.10000000000002" y="605.4999999999999"/>
      <point x="333.40000000000003" y="605.4999999999999" type="curve" smooth="yes"/>
      <point x="425.30000000000007" y="605.4999999999999"/>
      <point x="476.29999999999995" y="554.6999999999999"/>
      <point x="476.29999999999995" y="447.9000000000001" type="curve" smooth="yes"/>
      <point x="476.29999999999995" y="339.3"/>
      <point x="450.7" y="236.79999999999998"/>
      <point x="392.09999999999997" y="174.8" type="curve" smooth="yes"/>
      <point x="346.20000000000005" y="125.60000000000001"/>
      <point x="286.0" y="96.0"/>
      <point x="206.70000000000002" y="96.0" type="curve" smooth="yes"/>
      <point x="164.0" y="96.0"/>
      <point x="112.6" y="108.9"/>
      <point x="72.89999999999999" y="126.5" type="curve"/>
      <point x="30.0" y="28.2" type="line"/>
      <point x="69.5" y="7.500000000000001"/>
      <point x="135.9" y="-10.0"/>
      <point x="213.60000000000002" y="-10.0" type="curve" smooth="yes"/>
      <point x="453.0999999999999" y="-10.0"/>
      <point x="596.8000000000001" y="178.00000000000003"/>
      <point x="596.8000000000001" y="448.49999999999994" type="curve" smooth="yes"/>
      <point x="596.8000000000001" y="625.9000000000001"/>
      <point x="502.6000000000001" y="710.0"/>
    </contour>
  </outline>
</glyph>
<glyph name="less" format="2">
  <advance width="473.71000000000004"/>
  <unicode hex="003C"/>
  <outline>
    <contour>
      <point x="399.63" y="76.71000000000001" type="line"/>
      <point x="415.72" y="180.14999999999998" type="line"/>
      <point x="154.0" y="302.96999999999997" type="line"/>
      <point x="455.43" y="426.17" type="line"/>
      <point x="471.52000000000004" y="530.4399999999999" type="line"/>
      <point x="55.78" y="360.13999999999993" type="line"/>
      <point x="38.21" y="249.51999999999998" type="line"/>
    </contour>
  </outline>
</glyph>
<glyph name="equal" format="2">
  <advance width="461.54"/>
  <unicode hex="003D"/>
  <outline>
    <contour>
      <point x="407.04999999999995" y="246.28" type="line"/>
      <point x="45.95" y="246.28" type="line"/>
      <point x="29.529999999999998" y="139.74" type="line"/>
      <point x="390.63" y="139.74" type="line"/>
    </contour>
    <contour>
      <point x="440.70000000000005" y="468.09999999999997" type="line"/>
      <point x="79.71000000000001" y="468.09999999999997" type="line"/>
      <point x="63.18" y="361.56" type="line"/>
      <point x="424.28000000000003" y="361.56" type="line"/>
    </contour>
  </outline>
</glyph>
<glyph name="greater" format="2">
  <advance width="473.71000000000004"/>
  <unicode hex="003E"/>
  <outline>
    <contour>
      <point x="427.20000000000005" y="248.70999999999998" type="line"/>
      <point x="444.33" y="356.03000000000003" type="line"/>
      <point x="83.41000000000001" y="527.6999999999999" type="line"/>
      <point x="66.88" y="426.35" type="line"/>
      <point x="329.42" y="303.24000000000007" type="line"/>
      <point x="27.880000000000003" y="180.6" type="line"/>
      <point x="11.299999999999999" y="76.16999999999999" type="line"/>
    </contour>
  </outline>
</glyph>
<glyph name="question" format="2">
  <advance width="446.00000000000006"/>
  <unicode hex="003F"/>
  <outline>
    <contour>
      <point x="146.60000000000002" y="261.16" type="line"/>
      <point x="252.04000000000002" y="261.16" type="line"/>
      <point x="263.42" y="327.42" type="line"/>
      <point x="384.36" y="387.34"/>
      <point x="472.06000000000006" y="454.94000000000005"/>
      <point x="472.06000000000006" y="588.0600000000001" type="curve" smooth="yes"/>
      <point x="472.06000000000006" y="695.8"/>
      <point x="390.72" y="750.0"/>
      <point x="287.29999999999995" y="750.0" type="curve" smooth="yes"/>
      <point x="217.68" y="750.0"/>
      <point x="134.6" y="726.24"/>
      <point x="74.88" y="685.0" type="curve"/>
      <point x="96.5" y="582.66" type="line"/>
      <point x="149.58" y="614.2399999999999"/>
      <point x="200.98000000000002" y="632.2599999999999"/>
      <point x="254.04000000000005" y="632.2599999999999" type="curve" smooth="yes"/>
      <point x="301.62" y="632.2599999999999"/>
      <point x="341.40000000000003" y="617.92"/>
      <point x="341.40000000000003" y="559.2199999999999" type="curve" smooth="yes"/>
      <point x="341.40000000000003" y="485.28000000000003"/>
      <point x="298.78000000000003" y="438.65999999999997"/>
      <point x="163.92000000000002" y="387.96" type="curve"/>
    </contour>
    <contour>
      <point x="99.42" y="43.24" type="curve" smooth="yes"/>
      <point x="99.6" y="9.620000000000001"/>
      <point x="115.75999999999999" y="-5.500000000000001"/>
      <point x="157.64" y="-5.500000000000001" type="curve" smooth="yes"/>
      <point x="215.56000000000003" y="-5.500000000000001"/>
      <point x="241.42000000000002" y="32.900000000000006"/>
      <point x="240.88000000000002" y="87.82" type="curve" smooth="yes"/>
      <point x="240.7" y="122.10000000000001"/>
      <point x="223.88000000000002" y="137.28"/>
      <point x="182.94000000000003" y="137.28" type="curve" smooth="yes"/>
      <point x="124.58000000000001" y="137.28"/>
      <point x="98.88" y="98.02000000000001"/>
    </contour>
  </outline>
</glyph>
<glyph name="at" format="2">
  <advance width="792.0"/>
  <unicode hex="0040"/>
  <outline>
    <contour>
      <point x="330.40000000000003" y="-121.9" type="curve" smooth="yes"/>
      <point x="394.40000000000003" y="-121.9"/>
      <point x="470.4" y="-103.10000000000001"/>
      <point x="527.8000000000001" y="-68.60000000000001" type="curve"/>
      <point x="514.6" y="-21.0" type="line"/>
      <point x="457.1" y="-50.699999999999996"/>
      <point x="394.20000000000005" y="-66.19999999999999"/>
      <point x="334.2" y="-66.19999999999999" type="curve" smooth="yes"/>
      <point x="186.3" y="-66.19999999999999"/>
      <point x="88.9" y="16.700000000000003"/>
      <point x="88.9" y="187.70000000000002" type="curve" smooth="yes"/>
      <point x="88.9" y="428.5"/>
      <point x="239.0" y="663.2"/>
      <point x="467.1" y="663.2" type="curve" smooth="yes"/>
      <point x="628.4000000000001" y="663.2"/>
      <point x="716.6" y="581.6"/>
      <point x="716.6" y="420.6" type="curve" smooth="yes"/>
      <point x="716.6" y="293.40000000000003"/>
      <point x="668.2" y="130.89999999999998"/>
      <point x="590.3000000000001" y="130.89999999999998" type="curve" smooth="yes"/>
      <point x="543.3" y="130.89999999999998"/>
      <point x="541.4" y="180.2"/>
      <point x="554.9" y="236.2" type="curve" smooth="yes"/>
      <point x="619.8" y="515.4" type="line"/>
      <point x="568.1" y="537.2"/>
      <point x="512.7" y="549.8000000000001"/>
      <point x="459.70000000000005" y="549.8000000000001" type="curve" smooth="yes"/>
      <point x="291.0" y="549.8000000000001"/>
      <point x="186.5" y="352.79999999999995"/>
      <point x="186.5" y="192.0" type="curve" smooth="yes"/>
      <point x="186.5" y="105.5"/>
      <point x="229.90000000000003" y="62.0"/>
      <point x="304.40000000000003" y="62.0" type="curve" smooth="yes"/>
      <point x="367.70000000000005" y="62.0"/>
      <point x="427.7" y="96.9"/>
      <point x="468.0" y="151.5" type="curve"/>
      <point x="476.20000000000005" y="92.6"/>
      <point x="506.8" y="57.89999999999999"/>
      <point x="569.4000000000001" y="57.89999999999999" type="curve" smooth="yes"/>
      <point x="700.4" y="57.89999999999999"/>
      <point x="776.3000000000001" y="252.09999999999997"/>
      <point x="776.3000000000001" y="428.99999999999994" type="curve" smooth="yes"/>
      <point x="776.3000000000001" y="614.0"/>
      <point x="658.0000000000001" y="718.8"/>
      <point x="478.70000000000005" y="718.8" type="curve" smooth="yes"/>
      <point x="204.20000000000002" y="718.8"/>
      <point x="28.200000000000003" y="466.20000000000005"/>
      <point x="28.200000000000003" y="176.0" type="curve" smooth="yes"/>
      <point x="28.200000000000003" y="-11.399999999999995"/>
      <point x="141.10000000000002" y="-121.9"/>
    </contour>
    <contour>
      <point x="354.5" y="157.7" type="curve" smooth="yes"/>
      <point x="315.9" y="157.7"/>
      <point x="295.6" y="179.5"/>
      <point x="295.6" y="220.60000000000002" type="curve" smooth="yes"/>
      <point x="295.6" y="316.59999999999997"/>
      <point x="369.50000000000006" y="468.3"/>
      <point x="446.30000000000007" y="468.3" type="curve" smooth="yes"/>
      <point x="470.19999999999993" y="468.3"/>
      <point x="487.80000000000007" y="464.4"/>
      <point x="509.80000000000007" y="456.40000000000003" type="curve"/>
      <point x="459.0" y="239.79999999999998" type="line" smooth="yes"/>
      <point x="438.40000000000003" y="191.1"/>
      <point x="394.0" y="157.7"/>
    </contour>
  </outline>
</glyph>
<glyph name="A" format="2">
  <advance width="601.26"/>
  <unicode hex="0041"/>
  <anchor x="256.71999999999997" y="0.0" name="bottom"/>
  <anchor x="548.0200000000001" y="0.0" name="ogonek"/>
  <anchor x="365.64000000000004" y="700.0" name="top"/>
  <outline>
    <contour>
      <point x="-34.76" y="0.0" type="line"/>
      <point x="104.86000000000001" y="0.0" type="line"/>
      <point x="172.1" y="152.85999999999999" type="line"/>
      <point x="389.22" y="152.85999999999999" type="line"/>
      <point x="408.5" y="0.0" type="line"/>
      <point x="548.0200000000001" y="0.0" type="line"/>
      <point x="447.08" y="706.7" type="line"/>
      <point x="285.0" y="706.7" type="line"/>
    </contour>
    <contour>
      <point x="211.94" y="256.46000000000004" type="line"/>
      <point x="349.81999999999994" y="596.36" type="line"/>
      <point x="383.04" y="256.46000000000004" type="line"/>
    </contour>
  </outline>
</glyph>
<glyph name="B" format="2">
  <advance width="600.8500000000001"/>
  <unicode hex="0042"/>
  <outline>
    <contour>
      <point x="16.67" y="2.0300000000000007" type="line"/>
      <point x="129.34" y="-6.73"/>
      <point x="175.23000000000002" y="-10.0"/>
      <point x="260.32000000000005" y="-10.0" type="curve" smooth="yes"/>
      <point x="429.13" y="-10.0"/>
      <point x="568.19" y="74.84999999999998"/>
      <point x="568.19" y="240.76" type="curve" smooth="yes"/>
      <point x="568.19" y="312.16"/>
      <point x="529.2600000000001" y="361.34999999999997"/>
      <point x="472.20000000000005" y="376.64000000000004" type="curve"/>
      <point x="538.2099999999999" y="408.78000000000003"/>
      <point x="589.24" y="479.95"/>
      <point x="589.24" y="567.0600000000001" type="curve" smooth="yes"/>
      <point x="589.24" y="659.73"/>
      <point x="522.72" y="710.0"/>
      <point x="363.25000000000006" y="710.0" type="curve" smooth="yes"/>
      <point x="311.15000000000003" y="710.0"/>
      <point x="238.99" y="706.8700000000001"/>
      <point x="127.43000000000002" y="697.43" type="curve"/>
    </contour>
    <contour>
      <point x="208.48000000000005" y="401.71999999999997" type="line"/>
      <point x="239.33" y="599.89" type="line"/>
      <point x="281.35" y="603.2800000000001"/>
      <point x="309.29" y="606.05"/>
      <point x="347.87" y="606.05" type="curve" smooth="yes"/>
      <point x="428.49" y="606.05"/>
      <point x="461.82" y="586.0000000000001"/>
      <point x="461.82" y="531.32" type="curve" smooth="yes"/>
      <point x="461.82" y="456.07000000000005"/>
      <point x="403.04" y="401.71999999999997"/>
      <point x="350.35" y="401.71999999999997" type="curve" smooth="yes"/>
    </contour>
    <contour>
      <point x="192.76000000000005" y="307.28000000000003" type="line"/>
      <point x="338.86999999999995" y="307.28000000000003" type="line" smooth="yes"/>
      <point x="393.72" y="307.28000000000003"/>
      <point x="437.1" y="285.34999999999997"/>
      <point x="437.1" y="230.68" type="curve" smooth="yes"/>
      <point x="437.1" y="138.81"/>
      <point x="369.81999999999994" y="92.78000000000002"/>
      <point x="270.39" y="92.78000000000002" type="curve" smooth="yes"/>
      <point x="234.05" y="92.78000000000002"/>
      <point x="200.20000000000005" y="94.93"/>
      <point x="159.56" y="97.98" type="curve"/>
    </contour>
  </outline>
</glyph>
<glyph name="C" format="2">
  <advance width="574.7"/>
  <unicode hex="0043"/>
  <anchor x="306.1" y="0.0" name="bottom"/>
  <anchor x="407.9" y="700.0" name="top"/>
  <outline>
    <contour>
      <point x="333.1" y="-10.0" type="curve" smooth="yes"/>
      <point x="400.90000000000003" y="-10.0"/>
      <point x="458.9" y="-2.1"/>
      <point x="515.2" y="14.000000000000002" type="curve"/>
      <point x="506.8" y="118.7" type="line"/>
      <point x="460.6" y="108.00000000000001"/>
      <point x="411.19999999999993" y="100.0"/>
      <point x="357.0" y="100.0" type="curve" smooth="yes"/>
      <point x="239.0" y="100.0"/>
      <point x="173.90000000000003" y="142.5"/>
      <point x="173.90000000000003" y="255.89999999999995" type="curve" smooth="yes"/>
      <point x="173.90000000000003" y="452.5"/>
      <point x="261.5" y="599.9999999999999"/>
      <point x="408.30000000000007" y="599.9999999999999" type="curve" smooth="yes"/>
      <point x="464.0" y="599.9999999999999"/>
      <point x="518.6" y="590.7"/>
      <point x="567.7999999999998" y="575.9000000000001" type="curve"/>
      <point x="600.3000000000001" y="677.3000000000001" type="line"/>
      <point x="537.5" y="700.9"/>
      <point x="472.0" y="710.0"/>
      <point x="401.3" y="710.0" type="curve" smooth="yes"/>
      <point x="178.20000000000002" y="710.0"/>
      <point x="40.8" y="524.1"/>
      <point x="40.8" y="239.4" type="curve" smooth="yes"/>
      <point x="40.8" y="68.1"/>
      <point x="141.8" y="-10.0"/>
    </contour>
  </outline>
</glyph>
<glyph name="D" format="2">
  <advance width="647.0999999999999"/>
  <unicode hex="0044"/>
  <anchor x="265.80000000000007" y="0.0" name="bottom"/>
  <anchor x="328.7" y="350.0" name="center"/>
  <anchor x="351.5" y="700.0" name="top"/>
  <outline>
    <contour>
      <point x="247.20000000000002" y="-10.0" type="curve" smooth="yes"/>
      <point x="484.30000000000007" y="-10.0"/>
      <point x="626.2999999999998" y="151.49999999999997"/>
      <point x="626.2999999999998" y="430.8" type="curve" smooth="yes"/>
      <point x="626.2999999999998" y="619.5"/>
      <point x="517.4999999999999" y="710.0"/>
      <point x="331.6" y="710.0" type="curve" smooth="yes"/>
      <point x="266.7" y="710.0"/>
      <point x="203.3" y="707.0000000000001"/>
      <point x="127.20000000000002" y="700.8000000000001" type="curve"/>
      <point x="15.199999999999996" y="0.3000000000000005" type="line"/>
      <point x="88.2" y="-5.8999999999999995"/>
      <point x="151.3" y="-10.0"/>
    </contour>
    <contour>
      <point x="258.59999999999997" y="91.30000000000003" type="curve" smooth="yes"/>
      <point x="217.99999999999997" y="91.30000000000003"/>
      <point x="194.6" y="93.30000000000001"/>
      <point x="159.1" y="95.20000000000002" type="curve"/>
      <point x="239.79999999999998" y="601.6" type="line"/>
      <point x="262.80000000000007" y="603.5"/>
      <point x="297.79999999999995" y="605.4"/>
      <point x="333.69999999999993" y="605.4" type="curve" smooth="yes"/>
      <point x="425.5" y="605.4"/>
      <point x="496.20000000000005" y="549.6999999999999"/>
      <point x="496.20000000000005" y="427.59999999999997" type="curve" smooth="yes"/>
      <point x="496.20000000000005" y="208.99999999999997"/>
      <point x="400.7" y="91.30000000000003"/>
    </contour>
  </outline>
</glyph>
<glyph name="E" format="2">
  <advance width="547.58"/>
  <unicode hex="0045"/>
  <anchor x="247.48" y="0.0" name="bottom"/>
  <anchor x="477.04" y="0.0" name="ogonek"/>
  <anchor x="349.58" y="700.0" name="top"/>
  <anchor x="91.53129999999999" y="700.0" name="topleft"/>
  <outline>
    <contour>
      <point x="15.159999999999998" y="0.0" type="line"/>
      <point x="477.04" y="0.0" type="line"/>
      <point x="495.19999999999993" y="110.38" type="line"/>
      <point x="160.00000000000003" y="110.38" type="line"/>
      <point x="189.33999999999997" y="302.28" type="line"/>
      <point x="485.30000000000007" y="302.28" type="line"/>
      <point x="504.20000000000005" y="411.05999999999995" type="line"/>
      <point x="207.28" y="411.05999999999995" type="line"/>
      <point x="236.61999999999998" y="589.32" type="line"/>
      <point x="554.86" y="589.32" type="line"/>
      <point x="573.14" y="700.0" type="line"/>
      <point x="126.26" y="700.0" type="line"/>
    </contour>
  </outline>
</glyph>
<glyph name="F" format="2">
  <advance width="521.2099999999999"/>
  <unicode hex="0046"/>
  <outline>
    <contour>
      <point x="15.549999999999999" y="0.0" type="line"/>
      <point x="143.11" y="0.0" type="line"/>
      <point x="184.94000000000003" y="258.08" type="line"/>
      <point x="456.66" y="258.08" type="line"/>
      <point x="474.2900000000001" y="370.4000000000001" type="line"/>
      <point x="202.6" y="370.4000000000001" type="line"/>
      <point x="236.56" y="587.28" type="line"/>
      <point x="551.65" y="587.28" type="line"/>
      <point x="570.41" y="700.0" type="line"/>
      <point x="127.16000000000001" y="700.0" type="line"/>
    </contour>
  </outline>
</glyph>
<glyph name="G" format="2">
  <advance width="606.15"/>
  <unicode hex="0047"/>
  <anchor x="303.45" y="0.0" name="bottom"/>
  <anchor x="408.28000000000003" y="700.0" name="top"/>
  <outline>
    <contour>
      <point x="311.38" y="-10.0" type="curve" smooth="yes"/>
      <point x="401.16" y="-10.0"/>
      <point x="475.42" y="7.030000000000001"/>
      <point x="524.78" y="31.210000000000004" type="curve"/>
      <point x="580.51" y="378.26" type="line"/>
      <point x="337.97" y="378.26" type="line"/>
      <point x="322.76000000000005" y="282.7" type="line"/>
      <point x="451.92" y="282.7" type="line"/>
      <point x="423.96000000000004" y="107.45000000000002" type="line"/>
      <point x="401.25" y="97.93000000000002"/>
      <point x="365.86" y="91.39000000000001"/>
      <point x="324.68" y="91.39000000000001" type="curve" smooth="yes"/>
      <point x="227.39999999999998" y="91.39000000000001"/>
      <point x="166.09" y="135.44"/>
      <point x="166.09" y="246.42000000000002" type="curve" smooth="yes"/>
      <point x="166.09" y="445.57"/>
      <point x="258.11" y="601.9"/>
      <point x="410.71000000000004" y="601.9" type="curve" smooth="yes"/>
      <point x="471.80000000000007" y="601.9"/>
      <point x="519.22" y="591.93"/>
      <point x="570.37" y="578.1" type="curve"/>
      <point x="608.9799999999999" y="680.0699999999999" type="line"/>
      <point x="547.8800000000001" y="700.7500000000001"/>
      <point x="480.98" y="710.0"/>
      <point x="407.2900000000001" y="710.0" type="curve" smooth="yes"/>
      <point x="162.67000000000002" y="710.0"/>
      <point x="38.410000000000004" y="493.79"/>
      <point x="38.410000000000004" y="237.0" type="curve" smooth="yes"/>
      <point x="38.410000000000004" y="72.14999999999999"/>
      <point x="143.41" y="-10.0"/>
    </contour>
  </outline>
</glyph>
<glyph name="H" format="2">
  <advance width="650.49"/>
  <unicode hex="0048"/>
  <anchor x="281.79412" y="0.0" name="bottom"/>
  <anchor x="337.38167" y="350.0" name="center"/>
  <anchor x="392.69849000000005" y="700.0" name="top"/>
  <anchor x="86.68849" y="700.0" name="topleft"/>
  <outline>
    <contour>
      <point x="15.37" y="0.0" type="line"/>
      <point x="143.65" y="0.0" type="line"/>
      <point x="184.37000000000003" y="258.44" type="line"/>
      <point x="461.64" y="258.44" type="line"/>
      <point x="420.81" y="0.0" type="line"/>
      <point x="546.51" y="0.0" type="line"/>
      <point x="658.39" y="700.0" type="line"/>
      <point x="532.58" y="700.0" type="line"/>
      <point x="479.38" y="368.96" type="line"/>
      <point x="201.84" y="368.96" type="line"/>
      <point x="255.26000000000002" y="700.0" type="line"/>
      <point x="126.98" y="700.0" type="line"/>
    </contour>
  </outline>
</glyph>
<glyph name="I" format="2">
  <advance width="247.35999999999999"/>
  <unicode hex="0049"/>
  <anchor x="79.99644" y="0.0" name="bottom"/>
  <anchor x="144.37924" y="3.3" name="ogonek"/>
  <anchor x="190.92963" y="700.0" name="top"/>
  <anchor x="91.96328999999999" y="700.0" name="topleft"/>
  <outline>
    <contour>
      <point x="15.37" y="0.0" type="line"/>
      <point x="143.38000000000002" y="0.0" type="line"/>
      <point x="255.26000000000002" y="700.0" type="line"/>
      <point x="126.98" y="700.0" type="line"/>
    </contour>
  </outline>
</glyph>
<glyph name="J" format="2">
  <advance width="469.16"/>
  <unicode hex="004A"/>
  <anchor x="176.57652000000002" y="0.0" name="bottom"/>
  <anchor x="303.34" y="700.0" name="top"/>
  <outline>
    <contour>
      <point x="-28.259999999999998" y="22.85" type="line"/>
      <point x="25.4" y="3.9000000000000012"/>
      <point x="85.56" y="-10.0"/>
      <point x="160.13" y="-10.0" type="curve" smooth="yes"/>
      <point x="301.94" y="-10.0"/>
      <point x="381.09000000000003" y="63.59"/>
      <point x="405.31" y="210.32999999999998" type="curve" smooth="yes"/>
      <point x="483.89" y="700.0" type="line"/>
      <point x="121.29" y="700.0" type="line"/>
      <point x="103.44" y="590.69" type="line"/>
      <point x="338.03000000000003" y="590.69" type="line"/>
      <point x="282.24" y="240.86999999999998" type="line" smooth="yes"/>
      <point x="266.17" y="139.62"/>
      <point x="217.6" y="105.91000000000001"/>
      <point x="143.17" y="105.91000000000001" type="curve" smooth="yes"/>
      <point x="95.5" y="105.91000000000001"/>
      <point x="52.39000000000001" y="117.29"/>
      <point x="6.330000000000003" y="130.63000000000002" type="curve"/>
    </contour>
  </outline>
</glyph>
<glyph name="K" format="2">
  <advance width="603.84"/>
  <unicode hex="004B"/>
  <anchor x="275.6" y="0.0" name="bottom"/>
  <anchor x="368.84000000000003" y="700.0" name="top"/>
  <outline>
    <contour>
      <point x="14.68" y="0.0" type="line"/>
      <point x="143.77999999999997" y="0.0" type="line"/>
      <point x="254.66000000000003" y="700.0" type="line"/>
      <point x="127.6" y="700.0" type="line"/>
    </contour>
    <contour>
      <point x="512.5400000000001" y="-9.600000000000001" type="curve" smooth="yes"/>
      <point x="523.58" y="-9.600000000000001"/>
      <point x="545.24" y="-6.52"/>
      <point x="552.2800000000001" y="-3.4799999999999995" type="curve"/>
      <point x="566.6" y="123.36000000000001" type="line"/>
      <point x="561.18" y="123.92000000000003"/>
      <point x="556.22" y="122.98000000000002"/>
      <point x="550.9" y="122.98000000000002" type="curve" smooth="yes"/>
      <point x="515.6200000000001" y="122.98000000000002"/>
      <point x="483.58000000000004" y="138.14000000000001"/>
      <point x="434.3" y="194.54000000000002" type="curve" smooth="yes"/>
      <point x="197.78" y="465.96" type="line"/>
      <point x="172.28" y="315.96" type="line"/>
      <point x="376.12" y="68.82" type="line" smooth="yes"/>
      <point x="423.76" y="13.04"/>
      <point x="461.82" y="-9.600000000000001"/>
    </contour>
    <contour>
      <point x="307.42" y="288.94" type="line"/>
      <point x="423.58000000000004" y="365.91999999999996"/>
      <point x="566.36" y="498.9600000000001"/>
      <point x="639.8599999999999" y="655.6600000000001" type="curve"/>
      <point x="546.84" y="708.86" type="line"/>
      <point x="459.88" y="556.4200000000001"/>
      <point x="337.44000000000005" y="433.56000000000006"/>
      <point x="242.34" y="370.14000000000004" type="curve"/>
    </contour>
  </outline>
</glyph>
<glyph name="L" format="2">
  <advance width="502.43"/>
  <unicode hex="004C"/>
  <anchor x="233.32999999999998" y="0.0" name="bottom"/>
  <anchor x="260.11166999999995" y="350.0" name="center"/>
  <anchor x="190.76" y="700.0" name="top"/>
  <anchor x="384.72" y="700.0" name="topright"/>
  <outline>
    <contour>
      <point x="15.099999999999998" y="0.0" type="line"/>
      <point x="442.53" y="0.0" type="line"/>
      <point x="460.93" y="110.19" type="line"/>
      <point x="161.07" y="110.19" type="line"/>
      <point x="254.99" y="700.0" type="line"/>
      <point x="126.98" y="700.0" type="line"/>
    </contour>
  </outline>
</glyph>
<glyph name="M" format="2">
  <advance width="732.47"/>
  <unicode hex="004D"/>
  <outline>
    <contour>
      <point x="14.769999999999998" y="0.0" type="line"/>
      <point x="133.88000000000002" y="0.0" type="line"/>
      <point x="212.25" y="510.28" type="line"/>
      <point x="321.73" y="189.82999999999998" type="line"/>
      <point x="380.40000000000003" y="189.82999999999998" type="line"/>
      <point x="593.74" y="510.94" type="line"/>
      <point x="510.49" y="0.0" type="line"/>
      <point x="628.49" y="0.0" type="line"/>
      <point x="740.37" y="700.0" type="line"/>
      <point x="603.4100000000001" y="700.0" type="line"/>
      <point x="374.75" y="350.99" type="line"/>
      <point x="254.13000000000002" y="700.0" type="line"/>
      <point x="126.98" y="700.0" type="line"/>
    </contour>
  </outline>
</glyph>
<glyph name="N" format="2">
  <advance width="639.3499999999999"/>
  <unicode hex="004E"/>
  <anchor x="278.54999999999995" y="0.0" name="bottom"/>
  <anchor x="387.90000000000003" y="700.0" name="top"/>
  <outline>
    <contour>
      <point x="15.549999999999999" y="0.0" type="line"/>
      <point x="130.15" y="0.0" type="line"/>
      <point x="207.65" y="485.0" type="line"/>
      <point x="416.5" y="-1.7999999999999998" type="line"/>
      <point x="535.15" y="-1.7999999999999998" type="line"/>
      <point x="647.25" y="700.0" type="line"/>
      <point x="532.55" y="700.0" type="line"/>
      <point x="452.85" y="202.8" type="line"/>
      <point x="247.2" y="701.8" type="line"/>
      <point x="127.65" y="701.8" type="line"/>
    </contour>
  </outline>
</glyph>
<glyph name="O" format="2">
  <advance width="660.2"/>
  <unicode hex="004F"/>
  <note>
8
</note>
  <anchor x="288.7" y="0.0" name="bottom"/>
  <anchor x="344.59999999999997" y="350.0" name="center"/>
  <anchor x="368.8" y="1.0" name="ogonek"/>
  <anchor x="394.7" y="700.0" name="top"/>
  <anchor x="90.2" y="700.0" name="topleft"/>
  <anchor x="526.5" y="688.6999999999999" name="topright"/>
  <outline>
    <contour>
      <point x="304.6" y="-6.9" type="curve" smooth="yes"/>
      <point x="523.5999999999999" y="-6.9"/>
      <point x="636.7" y="177.3"/>
      <point x="637.8000000000001" y="417.2" type="curve" smooth="yes"/>
      <point x="638.6" y="606.2"/>
      <point x="546.7" y="706.9"/>
      <point x="379.6" y="706.9" type="curve" smooth="yes"/>
      <point x="160.6" y="706.9"/>
      <point x="47.49999999999999" y="522.7"/>
      <point x="46.39999999999999" y="282.8" type="curve" smooth="yes"/>
      <point x="45.599999999999994" y="93.8"/>
      <point x="137.5" y="-6.9"/>
    </contour>
    <contour>
      <point x="315.3" y="101.0" type="curve" smooth="yes"/>
      <point x="231.9" y="101.0"/>
      <point x="177.4" y="146.89999999999998"/>
      <point x="177.4" y="275.1" type="curve" smooth="yes"/>
      <point x="177.4" y="434.99999999999994"/>
      <point x="233.20000000000002" y="598.9999999999999"/>
      <point x="369.8" y="598.9999999999999" type="curve" smooth="yes"/>
      <point x="452.29999999999995" y="598.9999999999999"/>
      <point x="506.8" y="552.9999999999999"/>
      <point x="506.8" y="424.8" type="curve" smooth="yes"/>
      <point x="506.8" y="264.90000000000003"/>
      <point x="451.00000000000006" y="101.0"/>
    </contour>
  </outline>
</glyph>
<glyph name="P" format="2">
  <advance width="610.15"/>
  <unicode hex="0050"/>
  <outline>
    <contour>
      <point x="15.549999999999999" y="0.0" type="line"/>
      <point x="142.9" y="0.0" type="line"/>
      <point x="177.55" y="213.2" type="line"/>
      <point x="231.8" y="210.1"/>
      <point x="256.15000000000003" y="209.64999999999998"/>
      <point x="303.5" y="209.64999999999998" type="curve" smooth="yes"/>
      <point x="515.1500000000001" y="209.64999999999998"/>
      <point x="617.5" y="311.5"/>
      <point x="617.9499999999999" y="506.90000000000003" type="curve" smooth="yes"/>
      <point x="617.9499999999999" y="644.5"/>
      <point x="540.7" y="710.0"/>
      <point x="350.95" y="710.0" type="curve" smooth="yes"/>
      <point x="310.4" y="710.0"/>
      <point x="240.55" y="707.45"/>
      <point x="127.65" y="701.4499999999999" type="curve"/>
    </contour>
    <contour>
      <point x="239.35" y="600.85" type="line"/>
      <point x="293.35" y="603.75"/>
      <point x="314.4" y="605.2"/>
      <point x="347.40000000000003" y="605.2" type="curve" smooth="yes"/>
      <point x="451.05" y="605.2"/>
      <point x="488.40000000000003" y="568.95"/>
      <point x="488.40000000000003" y="487.49999999999994" type="curve" smooth="yes"/>
      <point x="488.40000000000003" y="385.35"/>
      <point x="434.15000000000003" y="315.0"/>
      <point x="298.79999999999995" y="315.0" type="curve" smooth="yes"/>
      <point x="265.8" y="315.0"/>
      <point x="240.05" y="316.45"/>
      <point x="194.3" y="318.45" type="curve"/>
    </contour>
  </outline>
</glyph>
<glyph name="Q" format="2">
  <advance width="660.69"/>
  <unicode hex="0051"/>
  <note>
14
</note>
  <outline>
    <contour>
      <point x="464.78999999999996" y="-187.97" type="curve" smooth="yes"/>
      <point x="495.33" y="-187.97"/>
      <point x="524.55" y="-182.62"/>
      <point x="552.93" y="-171.7" type="curve"/>
      <point x="557.0100000000001" y="-69.67" type="line"/>
      <point x="538.9" y="-77.88"/>
      <point x="519.0500000000001" y="-81.67999999999999"/>
      <point x="497.49" y="-81.67999999999999" type="curve" smooth="yes"/>
      <point x="443.76000000000005" y="-81.67999999999999"/>
      <point x="397.78000000000003" y="-51.28999999999999"/>
      <point x="385.96000000000004" y="16.37" type="curve"/>
      <point x="274.54" y="6.77" type="line"/>
      <point x="292.34" y="-135.55999999999997"/>
      <point x="374.74000000000007" y="-187.97"/>
    </contour>
    <component base="O"/>
  </outline>
</glyph>
<glyph name="R" format="2">
  <advance width="629.2"/>
  <unicode hex="0052"/>
  <anchor x="291.2" y="0.0" name="bottom"/>
  <anchor x="349.2" y="700.0" name="top"/>
  <outline>
    <contour>
      <point x="15.099999999999998" y="0.0" type="line"/>
      <point x="143.9" y="0.0" type="line"/>
      <point x="184.10000000000002" y="249.89999999999998" type="line"/>
      <point x="230.89999999999998" y="248.99999999999997"/>
      <point x="275.80000000000007" y="249.0"/>
      <point x="328.90000000000003" y="248.0" type="curve"/>
      <point x="352.09999999999997" y="259.8" type="line"/>
      <point x="510.49999999999994" y="260.7"/>
      <point x="614.5" y="351.4"/>
      <point x="614.5" y="511.30000000000007" type="curve" smooth="yes"/>
      <point x="614.5" y="636.5999999999999"/>
      <point x="543.6999999999999" y="710.0"/>
      <point x="355.0" y="710.0" type="curve" smooth="yes"/>
      <point x="293.0" y="710.0"/>
      <point x="223.39999999999998" y="706.9000000000001"/>
      <point x="127.19999999999999" y="700.8000000000001" type="curve"/>
    </contour>
    <contour>
      <point x="539.4" y="-10.0" type="curve" smooth="yes"/>
      <point x="548.6999999999999" y="-10.0"/>
      <point x="569.9999999999999" y="-7.0"/>
      <point x="577.4" y="-3.8" type="curve"/>
      <point x="590.9000000000001" y="115.3" type="line"/>
      <point x="585.9000000000001" y="114.30000000000001"/>
      <point x="579.7" y="114.30000000000001"/>
      <point x="575.5000000000001" y="114.30000000000001" type="curve" smooth="yes"/>
      <point x="528.3999999999999" y="114.30000000000001"/>
      <point x="468.7" y="163.4"/>
      <point x="412.80000000000007" y="299.3" type="curve"/>
      <point x="286.5" y="269.9" type="line"/>
      <point x="378.4" y="54.099999999999994"/>
      <point x="450.09999999999997" y="-10.0"/>
    </contour>
    <contour>
      <point x="321.4" y="349.00000000000006" type="curve" smooth="yes"/>
      <point x="269.7" y="349.00000000000006"/>
      <point x="234.5" y="350.0"/>
      <point x="200.10000000000002" y="353.0" type="curve"/>
      <point x="239.8" y="603.7" type="line"/>
      <point x="290.09999999999997" y="606.6"/>
      <point x="307.20000000000005" y="607.6"/>
      <point x="350.79999999999995" y="607.6" type="curve" smooth="yes"/>
      <point x="451.7" y="607.6"/>
      <point x="480.3999999999999" y="568.7"/>
      <point x="480.3999999999999" y="501.50000000000006" type="curve" smooth="yes"/>
      <point x="480.3999999999999" y="398.6"/>
      <point x="422.69999999999993" y="349.00000000000006"/>
    </contour>
  </outline>
</glyph>
<glyph name="S" format="2">
  <advance width="563.7"/>
  <unicode hex="0053"/>
  <anchor x="248.5" y="0.0" name="bottom"/>
  <anchor x="354.59999999999997" y="700.0" name="top"/>
  <outline>
    <contour>
      <point x="564.8000000000001" y="676.0" type="line"/>
      <point x="500.5" y="697.6"/>
      <point x="435.3" y="710.0"/>
      <point x="363.7" y="710.0" type="curve" smooth="yes"/>
      <point x="172.20000000000002" y="710.0"/>
      <point x="69.6" y="627.9"/>
      <point x="69.6" y="500.2" type="curve" smooth="yes"/>
      <point x="69.6" y="277.7"/>
      <point x="392.5" y="319.9"/>
      <point x="392.49999999999994" y="187.7" type="curve" smooth="yes"/>
      <point x="392.49999999999994" y="133.3"/>
      <point x="343.9" y="96.30000000000001"/>
      <point x="250.60000000000002" y="96.30000000000001" type="curve" smooth="yes"/>
      <point x="173.0" y="96.30000000000001"/>
      <point x="94.4" y="111.30000000000001"/>
      <point x="22.2" y="137.70000000000002" type="curve"/>
      <point x="-18.1" y="33.9" type="line"/>
      <point x="52.199999999999996" y="5.500000000000001"/>
      <point x="140.8" y="-10.0"/>
      <point x="233.8" y="-10.0" type="curve" smooth="yes"/>
      <point x="429.7" y="-10.0"/>
      <point x="525.7" y="74.1"/>
      <point x="525.7" y="202.6" type="curve" smooth="yes"/>
      <point x="526.5999999999999" y="415.59999999999997"/>
      <point x="202.99999999999997" y="384.79999999999995"/>
      <point x="202.99999999999997" y="509.30000000000007" type="curve" smooth="yes"/>
      <point x="202.99999999999997" y="564.3000000000001"/>
      <point x="257.0" y="601.1"/>
      <point x="347.0" y="601.1" type="curve" smooth="yes"/>
      <point x="413.0" y="601.1"/>
      <point x="471.7" y="591.0"/>
      <point x="524.9" y="570.9000000000001" type="curve"/>
    </contour>
  </outline>
</glyph>
<glyph name="T" format="2">
  <advance width="538.94"/>
  <unicode hex="0054"/>
  <anchor x="225.61652" y="0.0" name="bottom"/>
  <anchor x="281.40828999999997" y="350.0" name="center"/>
  <anchor x="336.62963" y="700.0" name="top"/>
  <outline>
    <contour>
      <point x="577.38" y="595.09" type="line"/>
      <point x="595.5600000000001" y="700.0" type="line"/>
      <point x="79.25000000000001" y="700.0" type="line"/>
      <point x="60.85" y="595.09" type="line"/>
      <point x="255.45" y="595.09" type="line"/>
      <point x="161.20000000000002" y="0.0" type="line"/>
      <point x="289.21000000000004" y="0.0" type="line"/>
      <point x="383.24" y="595.09" type="line"/>
    </contour>
  </outline>
</glyph>
<glyph name="U" format="2">
  <advance width="635.3800000000001"/>
  <unicode hex="0055"/>
  <anchor x="274.1342" y="0.0" name="bottom"/>
  <anchor x="347.94" y="0.0" name="ogonek"/>
  <anchor x="383.80215000000004" y="700.0" name="top"/>
  <anchor x="639.77" y="700.0" name="topright"/>
  <outline>
    <contour>
      <point x="270.57" y="-10.0" type="curve" smooth="yes"/>
      <point x="451.06" y="-10.0"/>
      <point x="547.82" y="62.85"/>
      <point x="573.12" y="219.04000000000002" type="curve" smooth="yes"/>
      <point x="650.11" y="700.0" type="line"/>
      <point x="523.37" y="700.0" type="line"/>
      <point x="445.65000000000003" y="213.54000000000002" type="line" smooth="yes"/>
      <point x="433.62" y="135.55"/>
      <point x="381.79" y="96.78"/>
      <point x="289.73" y="96.78" type="curve" smooth="yes"/>
      <point x="200.89000000000001" y="96.78"/>
      <point x="156.65" y="136.7"/>
      <point x="168.51000000000002" y="208.68000000000004" type="curve" smooth="yes"/>
      <point x="246.91" y="700.0" type="line"/>
      <point x="120.43999999999998" y="700.0" type="line"/>
      <point x="43.09" y="214.09" type="line" smooth="yes"/>
      <point x="39.3" y="189.29000000000002"/>
      <point x="38.24" y="176.44000000000003"/>
      <point x="38.24" y="161.14000000000001" type="curve" smooth="yes"/>
      <point x="38.24" y="47.51"/>
      <point x="116.76" y="-10.0"/>
    </contour>
  </outline>
</glyph>
<glyph name="V" format="2">
  <advance width="576.3299999999999"/>
  <unicode hex="0056"/>
  <outline>
    <contour>
      <point x="312.93" y="0.0" type="line"/>
      <point x="554.4000000000001" y="424.93"/>
      <point x="610.4" y="549.0"/>
      <point x="625.25" y="672.95" type="curve" smooth="yes"/>
      <point x="625.8" y="682.4799999999999"/>
      <point x="625.9" y="690.8299999999999"/>
      <point x="625.28" y="700.0" type="curve"/>
      <point x="490.28" y="700.0" type="line"/>
      <point x="491.00000000000006" y="692.4000000000001"/>
      <point x="492.18" y="685.33"/>
      <point x="492.18" y="677.15" type="curve" smooth="yes"/>
      <point x="492.18" y="570.05"/>
      <point x="422.28999999999996" y="439.84"/>
      <point x="262.21" y="121.80000000000001" type="curve"/>
      <point x="207.3" y="701.9799999999999" type="line"/>
      <point x="68.95" y="700.45" type="line"/>
      <point x="163.88" y="0.0" type="line"/>
    </contour>
  </outline>
</glyph>
<glyph name="W" format="2">
  <advance width="836.1"/>
  <unicode hex="0057"/>
  <anchor x="368.6" y="0.0" name="bottom"/>
  <anchor x="485.7000000000001" y="700.0" name="top"/>
  <outline>
    <contour>
      <point x="626.9" y="0.0" type="line"/>
      <point x="826.8" y="440.70000000000005"/>
      <point x="880.6" y="589.6999999999999"/>
      <point x="883.2" y="678.5" type="curve" smooth="yes"/>
      <point x="883.2" y="685.9"/>
      <point x="883.2" y="693.5"/>
      <point x="882.4000000000001" y="700.0" type="curve"/>
      <point x="757.7" y="700.0" type="line"/>
      <point x="758.6" y="692.6"/>
      <point x="758.5999999999999" y="686.1"/>
      <point x="758.5999999999999" y="677.6" type="curve" smooth="yes"/>
      <point x="752.5" y="565.0"/>
      <point x="715.7" y="472.00000000000006"/>
      <point x="568.6999999999999" y="130.1" type="curve"/>
      <point x="545.9000000000001" y="649.4999999999999" type="line"/>
      <point x="409.50000000000006" y="649.4999999999999" type="line"/>
      <point x="353.3" y="479.4"/>
      <point x="288.59999999999997" y="291.5"/>
      <point x="223.79999999999998" y="139.2" type="curve"/>
      <point x="200.0" y="700.0" type="line"/>
      <point x="70.4" y="700.0" type="line"/>
      <point x="119.70000000000002" y="0.0" type="line"/>
      <point x="263.6" y="0.0" type="line"/>
      <point x="333.6" y="167.1"/>
      <point x="399.3" y="332.7"/>
      <point x="452.4" y="479.99999999999994" type="curve"/>
      <point x="480.99999999999994" y="0.0" type="line"/>
    </contour>
  </outline>
</glyph>
<glyph name="X" format="2">
  <advance width="587.0"/>
  <unicode hex="0058"/>
  <outline>
    <contour>
      <point x="407.3" y="-2.8" type="line"/>
      <point x="545.3" y="1.1" type="line"/>
      <point x="377.3" y="351.9" type="line"/>
      <point x="504.1" y="487.00000000000006"/>
      <point x="596.4000000000001" y="589.7"/>
      <point x="621.6" y="700.2" type="curve"/>
      <point x="483.5" y="702.3" type="line"/>
      <point x="473.2" y="618.6"/>
      <point x="411.7" y="524.0"/>
      <point x="328.3" y="439.50000000000006" type="curve"/>
      <point x="216.79999999999998" y="703.7" type="line"/>
      <point x="80.10000000000001" y="699.8" type="line"/>
      <point x="232.3" y="369.4" type="line"/>
      <point x="115.2" y="250.6"/>
      <point x="-10.099999999999998" y="105.39999999999998"/>
      <point x="-12.5" y="0.0" type="curve"/>
      <point x="126.5" y="0.0" type="line"/>
      <point x="128.9" y="86.39999999999999"/>
      <point x="202.8" y="186.60000000000002"/>
      <point x="285.5" y="278.2" type="curve"/>
    </contour>
  </outline>
</glyph>
<glyph name="Y" format="2">
  <advance width="554.16"/>
  <unicode hex="0059"/>
  <anchor x="231.86" y="0.0" name="bottom"/>
  <anchor x="347.27000000000004" y="700.0" name="top"/>
  <anchor x="86.07000000000001" y="700.0" name="topleft"/>
  <outline>
    <contour>
      <point x="172.84" y="0.0" type="line"/>
      <point x="298.8" y="0.0" type="line"/>
      <point x="341.51" y="257.40999999999997" type="line"/>
      <point x="499.95" y="433.96000000000004"/>
      <point x="565.23" y="539.13"/>
      <point x="604.43" y="664.8899999999999" type="curve" smooth="yes"/>
      <point x="607.55" y="676.3599999999999"/>
      <point x="612.3299999999999" y="689.2"/>
      <point x="616.1800000000001" y="701.6700000000001" type="curve"/>
      <point x="473.76000000000005" y="703.55" type="line"/>
      <point x="471.01" y="691.52"/>
      <point x="468.29" y="680.16"/>
      <point x="465.94" y="668.1700000000001" type="curve" smooth="yes"/>
      <point x="439.15999999999997" y="563.54"/>
      <point x="399.57" y="479.2"/>
      <point x="292.98" y="357.54" type="curve"/>
      <point x="210.03000000000003" y="702.4799999999999" type="line"/>
      <point x="66.9" y="699.51" type="line"/>
      <point x="214.81" y="257.40999999999997" type="line"/>
    </contour>
  </outline>
</glyph>
<glyph name="Z" format="2">
  <advance width="552.0999999999999"/>
  <unicode hex="005A"/>
  <anchor x="233.89999999999998" y="0.0" name="bottom"/>
  <anchor x="286.3" y="350.0" name="center"/>
  <anchor x="339.99999999999994" y="700.0" name="top"/>
  <outline>
    <contour>
      <point x="-22.1" y="0.0" type="line"/>
      <point x="488.59999999999997" y="0.0" type="line"/>
      <point x="505.90000000000003" y="105.6" type="line"/>
      <point x="145.10000000000002" y="105.6" type="line"/>
      <point x="567.2000000000002" y="597.3000000000001" type="line"/>
      <point x="583.5" y="700.0" type="line"/>
      <point x="108.39999999999999" y="700.0" type="line"/>
      <point x="91.1" y="594.4" type="line"/>
      <point x="416.3" y="594.4" type="line"/>
      <point x="-5.9" y="100.50000000000003" type="line"/>
    </contour>
  </outline>
</glyph>
<glyph name="bracketleft" format="2">
  <advance width="315.41"/>
  <unicode hex="005B"/>
  <outline>
    <contour>
      <point x="102.74000000000001" y="-118.3" type="line"/>
      <point x="225.52" y="648.48" type="line"/>
      <point x="357.32000000000005" y="648.48" type="line"/>
      <point x="372.4200000000001" y="740.0" type="line"/>
      <point x="142.37000000000003" y="740.0" type="line"/>
      <point x="-10.120000000000006" y="-210.0" type="line"/>
      <point x="219.11" y="-210.0" type="line"/>
      <point x="234.54" y="-118.3" type="line"/>
    </contour>
  </outline>
</glyph>
<glyph name="backslash" format="2">
  <advance width="377.32"/>
  <unicode hex="005C"/>
  <outline>
    <contour>
      <point x="173.77" y="740.0" type="line"/>
      <point x="77.52999999999999" y="740.0" type="line"/>
      <point x="236.10999999999999" y="-210.0" type="line"/>
      <point x="332.02000000000004" y="-210.0" type="line"/>
    </contour>
  </outline>
</glyph>
<glyph name="bracketright" format="2">
  <advance width="315.41"/>
  <unicode hex="005D"/>
  <outline>
    <contour>
      <point x="-44.459999999999994" y="-118.3" type="line"/>
      <point x="-59.34" y="-210.0" type="line"/>
      <point x="169.44000000000003" y="-210.0" type="line"/>
      <point x="322.75" y="740.0" type="line"/>
      <point x="92.97" y="740.0" type="line"/>
      <point x="77.54" y="648.3" type="line"/>
      <point x="209.34000000000003" y="648.3" type="line"/>
      <point x="86.23" y="-118.3" type="line"/>
    </contour>
  </outline>
</glyph>
<glyph name="asciicircum" format="2">
  <advance width="473.91"/>
  <unicode hex="005E"/>
  <outline>
    <contour>
      <point x="41.58" y="249.31" type="line"/>
      <point x="135.63" y="249.31" type="line"/>
      <point x="283.98" y="580.3199999999999" type="line"/>
      <point x="330.92999999999995" y="249.31" type="line"/>
      <point x="424.29" y="249.31" type="line"/>
      <point x="357.19" y="704.5" type="line"/>
      <point x="249.43999999999997" y="704.5" type="line"/>
    </contour>
  </outline>
</glyph>
<glyph name="underscore" format="2">
  <advance width="725.5600000000001"/>
  <unicode hex="005F"/>
  <outline>
    <contour>
      <point x="-63.05999999999999" y="-176.37" type="line"/>
      <point x="644.76" y="-176.37" type="line"/>
      <point x="661.62" y="-75.33" type="line"/>
      <point x="-46.199999999999996" y="-75.33" type="line"/>
    </contour>
  </outline>
</glyph>
<glyph name="a" format="2">
  <advance width="540.5"/>
  <unicode hex="0061"/>
  <note>
15
</note>
  <anchor x="228.6" y="0.0" name="bottom"/>
  <anchor x="500.29999999999995" y="5.500000000000001" name="ogonek"/>
  <anchor x="314.7" y="541.0" name="top"/>
  <outline>
    <contour>
      <point x="426.3" y="-10.0" type="curve" smooth="yes"/>
      <point x="453.30000000000007" y="-10.0"/>
      <point x="482.7" y="-3.7"/>
      <point x="500.20000000000005" y="5.500000000000001" type="curve"/>
      <point x="506.00000000000006" y="101.7" type="line"/>
      <point x="498.40000000000003" y="98.90000000000002"/>
      <point x="490.6" y="98.0"/>
      <point x="483.0" y="98.0" type="curve" smooth="yes"/>
      <point x="465.7" y="98.0"/>
      <point x="459.09999999999997" y="107.5"/>
      <point x="459.09999999999997" y="126.60000000000002" type="curve" smooth="yes"/>
      <point x="459.09999999999997" y="134.60000000000002"/>
      <point x="470.5" y="200.8"/>
      <point x="521.1000000000001" y="517.4" type="curve"/>
      <point x="472.90000000000003" y="536.5000000000001"/>
      <point x="393.8" y="551.0"/>
      <point x="325.5" y="551.0" type="curve" smooth="yes"/>
      <point x="139.5" y="551.0"/>
      <point x="23.099999999999998" y="416.80000000000007"/>
      <point x="23.099999999999998" y="179.20000000000002" type="curve" smooth="yes"/>
      <point x="23.099999999999998" y="54.1"/>
      <point x="84.9" y="-10.0"/>
      <point x="181.89999999999998" y="-10.0" type="curve" smooth="yes"/>
      <point x="239.99999999999997" y="-10.0"/>
      <point x="292.6" y="10.0"/>
      <point x="334.70000000000005" y="43.19999999999999" type="curve"/>
      <point x="350.8" y="8.999999999999998"/>
      <point x="385.2" y="-10.0"/>
    </contour>
    <contour>
      <point x="332.59999999999997" y="126.10000000000001" type="line"/>
      <point x="304.8" y="109.20000000000002"/>
      <point x="266.69999999999993" y="96.9"/>
      <point x="234.20000000000002" y="96.9" type="curve" smooth="yes"/>
      <point x="183.3" y="96.9"/>
      <point x="150.70000000000002" y="132.0"/>
      <point x="150.70000000000002" y="199.7" type="curve" smooth="yes"/>
      <point x="150.70000000000002" y="341.5"/>
      <point x="219.4" y="451.6000000000001"/>
      <point x="311.8" y="451.6000000000001" type="curve" smooth="yes"/>
      <point x="338.4000000000001" y="451.6000000000001"/>
      <point x="362.40000000000003" y="447.9000000000001"/>
      <point x="381.8" y="438.4" type="curve"/>
    </contour>
  </outline>
</glyph>
<glyph name="b" format="2">
  <advance width="534.17"/>
  <unicode hex="0062"/>
  <note>
12
</note>
  <outline>
    <contour>
      <point x="252.86" y="740.0" type="line"/>
      <point x="128.26" y="740.0" type="line"/>
      <point x="13.719999999999999" y="16.41" type="line"/>
      <point x="62.88000000000001" y="3.1300000000000003"/>
      <point x="129.73" y="-10.0"/>
      <point x="209.08" y="-10.0" type="curve" smooth="yes"/>
      <point x="402.59000000000003" y="-10.0"/>
      <point x="513.1800000000001" y="152.87"/>
      <point x="512.63" y="367.18" type="curve" smooth="yes"/>
      <point x="512.63" y="487.06"/>
      <point x="463.15" y="551.0"/>
      <point x="364.38" y="551.0" type="curve" smooth="yes"/>
      <point x="311.09000000000003" y="551.0"/>
      <point x="264.77" y="532.06"/>
      <point x="214.25" y="499.7200000000001" type="curve"/>
    </contour>
    <contour>
      <point x="304.64" y="442.62000000000006" type="curve" smooth="yes"/>
      <point x="362.03000000000003" y="442.62000000000006"/>
      <point x="386.38" y="404.02000000000004"/>
      <point x="386.38" y="336.67999999999995" type="curve" smooth="yes"/>
      <point x="386.38" y="214.32"/>
      <point x="322.95" y="86.83000000000001"/>
      <point x="221.0" y="86.83000000000001" type="curve" smooth="yes"/>
      <point x="194.32" y="86.83000000000001"/>
      <point x="169.8" y="91.62"/>
      <point x="151.50000000000003" y="97.42" type="curve"/>
      <point x="200.25000000000003" y="406.68" type="line"/>
      <point x="235.22000000000003" y="429.69"/>
      <point x="270.51" y="442.62000000000006"/>
    </contour>
  </outline>
</glyph>
<glyph name="c" format="2">
  <advance width="462.20000000000005"/>
  <unicode hex="0063"/>
  <note>
10
</note>
  <anchor x="237.20000000000002" y="0.0" name="bottom"/>
  <anchor x="315.50000000000006" y="541.0" name="top"/>
  <outline>
    <contour>
      <point x="236.4" y="-10.0" type="curve" smooth="yes"/>
      <point x="296.20000000000005" y="-10.0"/>
      <point x="358.70000000000005" y="-1.2000000000000006"/>
      <point x="406.6" y="16.099999999999998" type="curve"/>
      <point x="396.3" y="112.9" type="line"/>
      <point x="352.7" y="103.00000000000001"/>
      <point x="315.5" y="97.4"/>
      <point x="270.40000000000003" y="97.4" type="curve" smooth="yes"/>
      <point x="197.10000000000002" y="97.4"/>
      <point x="148.3" y="137.4"/>
      <point x="148.3" y="207.80000000000004" type="curve" smooth="yes"/>
      <point x="148.3" y="336.20000000000005"/>
      <point x="217.5" y="442.7"/>
      <point x="316.90000000000003" y="442.7" type="curve" smooth="yes"/>
      <point x="355.30000000000007" y="442.7"/>
      <point x="393.5000000000001" y="439.59999999999997"/>
      <point x="439.8" y="426.69999999999993" type="curve"/>
      <point x="474.3" y="530.8" type="line"/>
      <point x="429.29999999999995" y="543.9000000000002"/>
      <point x="374.0" y="551.0"/>
      <point x="321.1000000000001" y="551.0" type="curve" smooth="yes"/>
      <point x="129.89999999999998" y="551.0"/>
      <point x="23.099999999999998" y="402.29999999999995"/>
      <point x="23.099999999999998" y="185.49999999999997" type="curve" smooth="yes"/>
      <point x="23.099999999999998" y="61.9"/>
      <point x="94.7" y="-10.0"/>
    </contour>
  </outline>
</glyph>
<glyph name="d" format="2">
  <advance width="542.1999999999998"/>
  <unicode hex="0064"/>
  <note>
17
</note>
  <anchor x="236.9" y="0.0" name="bottom"/>
  <anchor x="272.9" y="300.2" name="center"/>
  <anchor x="333.40000000000003" y="740.0" name="top"/>
  <anchor x="605.9" y="740.0" name="topright"/>
  <outline>
    <contour>
      <point x="426.3" y="-10.0" type="curve" smooth="yes"/>
      <point x="450.4" y="-10.0"/>
      <point x="479.80000000000007" y="-3.7999999999999994"/>
      <point x="499.2" y="5.500000000000001" type="curve"/>
      <point x="504.1" y="101.70000000000002" type="line"/>
      <point x="497.40000000000003" y="98.90000000000002"/>
      <point x="489.6" y="98.00000000000001"/>
      <point x="482.1" y="98.00000000000001" type="curve" smooth="yes"/>
      <point x="465.7" y="98.00000000000001"/>
      <point x="458.19999999999993" y="106.60000000000001"/>
      <point x="458.19999999999993" y="122.70000000000002" type="curve" smooth="yes"/>
      <point x="458.19999999999993" y="137.10000000000002"/>
      <point x="527.1" y="566.3"/>
      <point x="554.1" y="740.0" type="curve"/>
      <point x="428.7" y="740.0" type="line"/>
      <point x="396.8" y="535.9999999999999" type="line"/>
      <point x="369.09999999999997" y="545.1"/>
      <point x="336.09999999999997" y="551.0"/>
      <point x="295.7" y="551.0" type="curve" smooth="yes"/>
      <point x="142.0" y="551.0"/>
      <point x="22.200000000000003" y="409.2"/>
      <point x="22.200000000000003" y="177.00000000000003" type="curve" smooth="yes"/>
      <point x="22.200000000000003" y="50.4"/>
      <point x="86.80000000000003" y="-10.0"/>
      <point x="182.1" y="-10.0" type="curve" smooth="yes"/>
      <point x="238.39999999999995" y="-10.0"/>
      <point x="295.59999999999997" y="13.1"/>
      <point x="333.69999999999993" y="42.300000000000004" type="curve"/>
      <point x="349.8" y="9.099999999999998"/>
      <point x="383.3" y="-10.0"/>
    </contour>
    <contour>
      <point x="231.4" y="97.80000000000001" type="curve" smooth="yes"/>
      <point x="183.10000000000002" y="97.80000000000001"/>
      <point x="149.70000000000002" y="129.20000000000002"/>
      <point x="149.70000000000002" y="187.0" type="curve" smooth="yes"/>
      <point x="149.70000000000002" y="326.4"/>
      <point x="216.4" y="451.6000000000001"/>
      <point x="309.09999999999997" y="451.6000000000001" type="curve" smooth="yes"/>
      <point x="338.4" y="451.6000000000001"/>
      <point x="361.49999999999994" y="447.0"/>
      <point x="381.7" y="441.09999999999997" type="curve"/>
      <point x="331.6" y="125.20000000000002" type="line"/>
      <point x="303.80000000000007" y="109.2"/>
      <point x="265.6000000000001" y="97.80000000000001"/>
    </contour>
  </outline>
</glyph>
<glyph name="e" format="2">
  <advance width="501.1"/>
  <unicode hex="0065"/>
  <note>
14 points
</note>
  <anchor x="236.5" y="0.0" name="bottom"/>
  <anchor x="379.29999999999995" y="5.8" name="ogonek"/>
  <anchor x="311.79999999999995" y="541.8000000000001" name="top"/>
  <outline>
    <contour>
      <point x="126.49999999999999" y="299.00000000000006" type="curve"/>
      <point x="119.0" y="218.1" type="line"/>
      <point x="161.79999999999998" y="214.9"/>
      <point x="211.2" y="216.79999999999998"/>
      <point x="264.20000000000005" y="224.7" type="curve" smooth="yes"/>
      <point x="409.5" y="248.49999999999997"/>
      <point x="496.79999999999995" y="320.2999999999999"/>
      <point x="496.79999999999995" y="421.4" type="curve" smooth="yes"/>
      <point x="496.79999999999995" y="499.9"/>
      <point x="431.40000000000003" y="550.9"/>
      <point x="333.2" y="550.9" type="curve" smooth="yes"/>
      <point x="133.4" y="550.9"/>
      <point x="24.9" y="403.4"/>
      <point x="24.9" y="203.99999999999997" type="curve" smooth="yes"/>
      <point x="24.9" y="68.20000000000002"/>
      <point x="105.29999999999998" y="-10.0"/>
      <point x="245.90000000000003" y="-10.0" type="curve" smooth="yes"/>
      <point x="311.6" y="-10.0"/>
      <point x="381.20000000000005" y="1.7999999999999994"/>
      <point x="440.1000000000001" y="25.7" type="curve"/>
      <point x="423.4" y="126.10000000000001" type="line"/>
      <point x="364.1" y="104.40000000000002"/>
      <point x="308.90000000000003" y="94.70000000000002"/>
      <point x="268.0" y="94.70000000000002" type="curve" smooth="yes"/>
      <point x="186.3" y="94.70000000000002"/>
      <point x="148.1" y="131.6"/>
      <point x="148.29999999999998" y="217.7" type="curve" smooth="yes"/>
      <point x="148.5" y="360.20000000000005"/>
      <point x="215.5" y="454.5"/>
      <point x="311.09999999999997" y="454.50000000000006" type="curve" smooth="yes"/>
      <point x="356.3" y="454.50000000000006"/>
      <point x="374.40000000000003" y="438.3"/>
      <point x="374.40000000000003" y="403.9" type="curve" smooth="yes"/>
      <point x="374.3" y="349.6"/>
      <point x="320.59999999999997" y="319.40000000000003"/>
      <point x="231.2" y="304.8" type="curve" smooth="yes"/>
      <point x="195.70000000000002" y="299.0"/>
      <point x="158.7" y="296.0"/>
    </contour>
  </outline>
</glyph>
<glyph name="f" format="2">
  <advance width="348.56"/>
  <unicode hex="0066"/>
  <outline>
    <contour>
      <point x="-10.379999999999988" y="-220.0" type="curve" smooth="yes"/>
      <point x="87.62" y="-220.0"/>
      <point x="141.29000000000002" y="-152.88"/>
      <point x="163.32" y="-14.309999999999995" type="curve" smooth="yes"/>
      <point x="228.87" y="401.41999999999996" type="line"/>
      <point x="360.53" y="401.41999999999996" type="line"/>
      <point x="376.18" y="498.85" type="line"/>
      <point x="244.3" y="498.85" type="line"/>
      <point x="260.21000000000004" y="601.0600000000001"/>
      <point x="293.83" y="640.8000000000001"/>
      <point x="355.03000000000003" y="640.8000000000001" type="curve" smooth="yes"/>
      <point x="386.2" y="640.8000000000001"/>
      <point x="416.45000000000005" y="634.5"/>
      <point x="443.28000000000003" y="626.1" type="curve"/>
      <point x="475.73" y="724.4" type="line"/>
      <point x="435.0" y="740.33"/>
      <point x="391.63999999999993" y="750.0"/>
      <point x="342.98" y="750.0" type="curve" smooth="yes"/>
      <point x="221.27" y="750.0"/>
      <point x="145.26" y="670.09"/>
      <point x="119.85" y="498.85" type="curve"/>
      <point x="46.900000000000006" y="489.61999999999995" type="line"/>
      <point x="32.36" y="401.41999999999996" type="line"/>
      <point x="104.20000000000002" y="401.41999999999996" type="line"/>
      <point x="40.21000000000001" y="-5.659999999999997" type="line" smooth="yes"/>
      <point x="28.61" y="-78.47999999999999"/>
      <point x="8.4" y="-111.80999999999999"/>
      <point x="-32.93" y="-111.80999999999999" type="curve" smooth="yes"/>
      <point x="-44.36" y="-111.80999999999999"/>
      <point x="-56.41" y="-110.28999999999999"/>
      <point x="-70.97" y="-105.36999999999999" type="curve"/>
      <point x="-98.32" y="-204.43" type="line"/>
      <point x="-70.19" y="-215.18"/>
      <point x="-42.769999999999996" y="-220.0"/>
    </contour>
  </outline>
</glyph>
<glyph name="g" format="2">
  <advance width="534.5"/>
  <unicode hex="0067"/>
  <note>
16
</note>
  <anchor x="181.5" y="-215.1" name="bottom"/>
  <anchor x="315.0" y="541.0" name="top"/>
  <outline>
    <contour>
      <point x="-9.3" y="-182.9" type="line"/>
      <point x="47.1" y="-205.50000000000003"/>
      <point x="115.80000000000001" y="-220.0"/>
      <point x="186.9" y="-220.0" type="curve" smooth="yes"/>
      <point x="333.1" y="-220.0"/>
      <point x="414.50000000000006" y="-141.9"/>
      <point x="438.9" y="17.100000000000005" type="curve" smooth="yes"/>
      <point x="519.6" y="522.6999999999999" type="line"/>
      <point x="479.4000000000001" y="537.5999999999999"/>
      <point x="392.69999999999993" y="551.0"/>
      <point x="331.99999999999994" y="551.0" type="curve" smooth="yes"/>
      <point x="112.6" y="551.0"/>
      <point x="21.400000000000002" y="380.4000000000001"/>
      <point x="21.400000000000002" y="170.90000000000003" type="curve" smooth="yes"/>
      <point x="21.400000000000002" y="68.8"/>
      <point x="75.7" y="3.5000000000000013"/>
      <point x="176.89999999999998" y="3.5000000000000013" type="curve" smooth="yes"/>
      <point x="215.1" y="3.5000000000000013"/>
      <point x="275.29999999999995" y="18.200000000000003"/>
      <point x="317.3" y="38.800000000000004" type="curve"/>
      <point x="313.4" y="10.200000000000006" type="line" smooth="yes"/>
      <point x="300.0000000000001" y="-81.6"/>
      <point x="255.10000000000002" y="-115.19999999999999"/>
      <point x="178.5" y="-115.19999999999999" type="curve" smooth="yes"/>
      <point x="128.89999999999998" y="-115.19999999999999"/>
      <point x="69.9" y="-102.80000000000001"/>
      <point x="23.100000000000005" y="-85.8" type="curve"/>
    </contour>
    <contour>
      <point x="381.09999999999997" y="441.59999999999997" type="curve"/>
      <point x="332.00000000000006" y="134.1" type="line"/>
      <point x="306.0" y="118.10000000000001"/>
      <point x="265.5" y="104.20000000000002"/>
      <point x="236.39999999999998" y="104.20000000000002" type="curve" smooth="yes"/>
      <point x="183.20000000000002" y="104.20000000000002"/>
      <point x="149.3" y="135.5"/>
      <point x="149.3" y="205.1" type="curve" smooth="yes"/>
      <point x="149.3" y="322.3999999999999"/>
      <point x="214.89999999999998" y="453.99999999999994"/>
      <point x="312.40000000000003" y="453.99999999999994" type="curve" smooth="yes"/>
      <point x="343.99999999999994" y="453.99999999999994"/>
      <point x="363.1" y="447.4"/>
    </contour>
  </outline>
</glyph>
<glyph name="h" format="2">
  <advance width="537.5"/>
  <unicode hex="0068"/>
  <note>
16
</note>
  <anchor x="232.07999999999998" y="0.0" name="bottom"/>
  <anchor x="286.30024" y="375.5" name="center"/>
  <anchor x="339.76" y="740.0" name="top"/>
  <outline>
    <contour>
      <point x="458.24" y="122.84" type="curve" smooth="yes"/>
      <point x="458.24" y="150.9"/>
      <point x="503.55999999999995" y="398.82"/>
      <point x="503.55999999999995" y="438.18" type="curve" smooth="yes"/>
      <point x="503.55999999999995" y="505.46000000000004"/>
      <point x="466.12" y="551.0"/>
      <point x="380.41999999999996" y="551.0" type="curve" smooth="yes"/>
      <point x="321.34000000000003" y="551.0"/>
      <point x="274.52000000000004" y="532.66"/>
      <point x="214.59999999999997" y="499.4" type="curve"/>
      <point x="253.38" y="740.0" type="line"/>
      <point x="127.89999999999998" y="740.0" type="line"/>
      <point x="9.86" y="0.0" type="line"/>
      <point x="135.37999999999997" y="0.0" type="line"/>
      <point x="199.78" y="408.30000000000007" type="line"/>
      <point x="239.42" y="429.0"/>
      <point x="276.46" y="443.96000000000004"/>
      <point x="312.98" y="443.96000000000004" type="curve" smooth="yes"/>
      <point x="356.31999999999994" y="443.96000000000004"/>
      <point x="371.58000000000004" y="421.4"/>
      <point x="371.58000000000004" y="390.14000000000004" type="curve" smooth="yes"/>
      <point x="371.58000000000004" y="355.76"/>
      <point x="326.36" y="113.28000000000002"/>
      <point x="326.36" y="74.86000000000001" type="curve" smooth="yes"/>
      <point x="326.36" y="22.28"/>
      <point x="366.9" y="-10.0"/>
      <point x="424.32" y="-10.0" type="curve" smooth="yes"/>
      <point x="449.5199999999999" y="-10.0"/>
      <point x="478.71999999999997" y="-4.74"/>
      <point x="499.38" y="4.500000000000002" type="curve"/>
      <point x="505.20000000000005" y="102.68" type="line"/>
      <point x="496.68" y="99.88"/>
      <point x="488.84" y="98.04"/>
      <point x="482.18000000000006" y="98.04" type="curve" smooth="yes"/>
      <point x="465.93999999999994" y="98.04"/>
      <point x="458.24" y="106.62000000000002"/>
    </contour>
  </outline>
</glyph>
<glyph name="i" format="2">
  <advance width="233.88000000000002"/>
  <unicode hex="0069"/>
  <note>
Ajuster pts sur points
8
</note>
  <anchor x="72.97768" y="0.0" name="bottom"/>
  <anchor x="135.57" y="0.0" name="ogonek"/>
  <anchor x="158.83232" y="541.0" name="top"/>
  <outline>
    <contour>
      <point x="11.129999999999995" y="0.0" type="line"/>
      <point x="135.57" y="0.0" type="line"/>
      <point x="221.0" y="541.0" type="line"/>
      <point x="96.73" y="541.0" type="line"/>
    </contour>
    <contour>
      <point x="192.97" y="754.0" type="curve" smooth="yes"/>
      <point x="132.51" y="754.0"/>
      <point x="107.74000000000001" y="720.35"/>
      <point x="106.75" y="667.5" type="curve" smooth="yes"/>
      <point x="106.48" y="633.83"/>
      <point x="127.39" y="617.37"/>
      <point x="169.62" y="617.37" type="curve" smooth="yes"/>
      <point x="225.14999999999998" y="617.37"/>
      <point x="254.81" y="648.6"/>
      <point x="255.98000000000002" y="704.6" type="curve" smooth="yes"/>
      <point x="256.25" y="737.87"/>
      <point x="235.54999999999998" y="754.0"/>
    </contour>
  </outline>
</glyph>
<glyph name="j" format="2">
  <advance width="243.96"/>
  <unicode hex="006A"/>
  <note>
idem /i
12
</note>
  <outline>
    <contour>
      <point x="203.26999999999998" y="754.0" type="curve" smooth="yes"/>
      <point x="142.59" y="754.0"/>
      <point x="118.39999999999999" y="720.35"/>
      <point x="117.41" y="667.5" type="curve" smooth="yes"/>
      <point x="117.14" y="633.83"/>
      <point x="138.24" y="617.37"/>
      <point x="180.47" y="617.37" type="curve" smooth="yes"/>
      <point x="235.13" y="617.37"/>
      <point x="264.75000000000006" y="648.6"/>
      <point x="265.92" y="704.6" type="curve" smooth="yes"/>
      <point x="266.19" y="737.87"/>
      <point x="245.85000000000002" y="754.0"/>
    </contour>
    <contour>
      <point x="231.85000000000002" y="541.0" type="line"/>
      <point x="107.03" y="541.0" type="line"/>
      <point x="18.64" y="-16.939999999999998" type="line" smooth="yes"/>
      <point x="8.98" y="-77.8"/>
      <point x="-9.219999999999999" y="-111.80999999999999"/>
      <point x="-50.050000000000004" y="-111.80999999999999" type="curve" smooth="yes"/>
      <point x="-61.199999999999996" y="-111.80999999999999"/>
      <point x="-74.51" y="-110.69"/>
      <point x="-89.56" y="-105.27" type="curve"/>
      <point x="-116.61999999999999" y="-208.07" type="line"/>
      <point x="-88.63" y="-216.72"/>
      <point x="-54.459999999999994" y="-220.0"/>
      <point x="-33.6" y="-220.0" type="curve" smooth="yes"/>
      <point x="75.17" y="-220.0"/>
      <point x="121.96000000000001" y="-150.26"/>
      <point x="143.56" y="-13.139999999999993" type="curve" smooth="yes"/>
    </contour>
  </outline>
</glyph>
<glyph name="l" format="2">
  <advance width="271.86"/>
  <unicode hex="006C"/>
  <anchor x="126.78" y="0.0" name="bottom"/>
  <anchor x="146.47132" y="375.5" name="center"/>
  <anchor x="190.23999999999998" y="740.0" name="top"/>
  <anchor x="304.40000000000003" y="740.0" name="topright"/>
  <outline>
    <contour>
      <point x="128.04" y="740.0" type="line"/>
      <point x="32.33" y="136.3" type="line" smooth="yes"/>
      <point x="29.940000000000005" y="120.36000000000001"/>
      <point x="27.740000000000002" y="102.12"/>
      <point x="27.740000000000002" y="86.67" type="curve" smooth="yes"/>
      <point x="27.740000000000002" y="24.669999999999995"/>
      <point x="59.21000000000001" y="-10.0"/>
      <point x="128.61" y="-10.0" type="curve" smooth="yes"/>
      <point x="166.23000000000002" y="-10.0"/>
      <point x="205.5" y="-1.7299999999999993"/>
      <point x="236.31000000000003" y="10.450000000000001" type="curve"/>
      <point x="241.59" y="109.88000000000001" type="line"/>
      <point x="222.23000000000002" y="104.96"/>
      <point x="207.8" y="102.24000000000001"/>
      <point x="193.54000000000002" y="102.24000000000001" type="curve" smooth="yes"/>
      <point x="167.04999999999998" y="102.24000000000001"/>
      <point x="158.3" y="116.14"/>
      <point x="158.3" y="135.01000000000002" type="curve" smooth="yes"/>
      <point x="158.3" y="145.77"/>
      <point x="160.16" y="157.50000000000003"/>
      <point x="162.37" y="170.83" type="curve" smooth="yes"/>
      <point x="252.70999999999998" y="740.0" type="line"/>
    </contour>
  </outline>
</glyph>
<glyph name="m" format="2">
  <advance width="796.42"/>
  <unicode hex="006D"/>
  <note>
24&gt;23 points
un point de trop dans la jointure avec 2e jambage
</note>
  <outline>
    <contour>
      <point x="682.88" y="-10.0" type="curve" smooth="yes"/>
      <point x="707.72" y="-10.0"/>
      <point x="738.1800000000001" y="-5.19"/>
      <point x="758.4800000000001" y="4.230000000000001" type="curve"/>
      <point x="763.94" y="101.06" type="line"/>
      <point x="756.05" y="98.25999999999999"/>
      <point x="747.4" y="97.23"/>
      <point x="740.9200000000001" y="97.23" type="curve" smooth="yes"/>
      <point x="724.8600000000001" y="97.23"/>
      <point x="716.26" y="106.71000000000001"/>
      <point x="716.26" y="124.01" type="curve" smooth="yes"/>
      <point x="716.26" y="158.28000000000003"/>
      <point x="762.8399999999999" y="400.59"/>
      <point x="762.8399999999999" y="439.62" type="curve" smooth="yes"/>
      <point x="762.8399999999999" y="504.08"/>
      <point x="724.09" y="551.0"/>
      <point x="638.6" y="551.0" type="curve" smooth="yes"/>
      <point x="579.83" y="551.0"/>
      <point x="530.4" y="530.13"/>
      <point x="469.78" y="488.65" type="curve"/>
      <point x="455.92" y="526.27"/>
      <point x="423.27" y="551.0"/>
      <point x="364.61" y="551.0" type="curve" smooth="yes"/>
      <point x="313.05" y="551.0"/>
      <point x="261.32000000000005" y="531.5"/>
      <point x="202.07000000000002" y="494.34" type="curve"/>
      <point x="209.4" y="541.0" type="line"/>
      <point x="96.24" y="541.0" type="line"/>
      <point x="10.77" y="0.0" type="line"/>
      <point x="135.26000000000002" y="0.0" type="line"/>
      <point x="200.32" y="411.63" type="line"/>
      <point x="234.01000000000002" y="431.48"/>
      <point x="264.83" y="444.05"/>
      <point x="294.65999999999997" y="444.05" type="curve" smooth="yes"/>
      <point x="336.48" y="444.05"/>
      <point x="351.7" y="420.1"/>
      <point x="351.7" y="387.53" type="curve" smooth="yes"/>
      <point x="351.7" y="368.94"/>
      <point x="314.03" y="140.08000000000004"/>
      <point x="292.12" y="0.0" type="curve"/>
      <point x="415.6700000000001" y="0.0" type="line"/>
      <point x="434.60999999999996" y="121.83"/>
      <point x="464.46999999999997" y="309.19"/>
      <point x="474.59" y="382.41999999999996" type="curve" smooth="yes"/>
      <point x="475.14" y="389.52"/>
      <point x="476.22999999999996" y="403.00000000000006"/>
      <point x="476.15000000000003" y="409.06" type="curve"/>
      <point x="508.85" y="429.65999999999997"/>
      <point x="539.75" y="443.39"/>
      <point x="573.4699999999999" y="443.39" type="curve" smooth="yes"/>
      <point x="615.63" y="443.39"/>
      <point x="631.1199999999999" y="421.33"/>
      <point x="631.1199999999999" y="388.41" type="curve" smooth="yes"/>
      <point x="631.1199999999999" y="354.06999999999994"/>
      <point x="586.2099999999999" y="116.15"/>
      <point x="586.2099999999999" y="75.76" type="curve" smooth="yes"/>
      <point x="586.2099999999999" y="20.120000000000005"/>
      <point x="625.82" y="-10.0"/>
    </contour>
  </outline>
</glyph>
<glyph name="n" format="2">
  <advance width="536.96"/>
  <unicode hex="006E"/>
  <note>
16
</note>
  <anchor x="238.10999999999999" y="0.0" name="bottom"/>
  <anchor x="305.21000000000004" y="541.0" name="top"/>
  <outline>
    <contour>
      <point x="96.24" y="541.0" type="line"/>
      <point x="10.77" y="0.0" type="line"/>
      <point x="135.04000000000002" y="0.0" type="line"/>
      <point x="200.47000000000003" y="409.20000000000005" type="line"/>
      <point x="238.27" y="429.24"/>
      <point x="275.84" y="444.32"/>
      <point x="313.63" y="444.32" type="curve" smooth="yes"/>
      <point x="356.21000000000004" y="444.32"/>
      <point x="372.90000000000003" y="422.87"/>
      <point x="372.90000000000003" y="389.51" type="curve" smooth="yes"/>
      <point x="372.90000000000003" y="351.25"/>
      <point x="327.77000000000004" y="118.35000000000001"/>
      <point x="327.77000000000004" y="73.12" type="curve" smooth="yes"/>
      <point x="327.77000000000004" y="22.43"/>
      <point x="367.02" y="-10.0"/>
      <point x="424.08" y="-10.0" type="curve" smooth="yes"/>
      <point x="448.92" y="-10.0"/>
      <point x="478.72" y="-5.19"/>
      <point x="499.02" y="4.230000000000001" type="curve"/>
      <point x="504.47999999999996" y="101.06" type="line"/>
      <point x="496.59000000000003" y="98.25999999999999"/>
      <point x="487.94" y="97.23"/>
      <point x="481.46000000000004" y="97.23" type="curve" smooth="yes"/>
      <point x="465.40000000000003" y="97.23"/>
      <point x="457.16" y="105.9"/>
      <point x="457.16" y="122.21000000000001" type="curve" smooth="yes"/>
      <point x="457.16" y="150.54000000000002"/>
      <point x="504.07" y="398.28"/>
      <point x="504.07" y="437.64" type="curve" smooth="yes"/>
      <point x="504.07" y="507.82"/>
      <point x="460.6700000000001" y="551.0"/>
      <point x="379.47" y="551.0" type="curve" smooth="yes"/>
      <point x="318.5" y="551.0"/>
      <point x="260.70000000000005" y="530.7499999999999"/>
      <point x="202.7" y="493.53000000000003" type="curve"/>
      <point x="210.06" y="541.0" type="line"/>
    </contour>
  </outline>
</glyph>
<glyph name="o" format="2">
  <advance width="519.8000000000001"/>
  <unicode hex="006F"/>
  <note>
8
</note>
  <anchor x="224.0" y="0.0" name="bottom"/>
  <anchor x="262.6" y="272.3" name="center"/>
  <anchor x="306.4" y="0.0" name="ogonek"/>
  <anchor x="295.5" y="541.0" name="top"/>
  <anchor x="416.50000000000006" y="532.8000000000001" name="topright"/>
  <outline>
    <contour>
      <point x="242.20000000000002" y="-10.0" type="curve" smooth="yes"/>
      <point x="419.9" y="-10.0"/>
      <point x="490.90000000000003" y="161.2"/>
      <point x="490.90000000000003" y="349.7" type="curve" smooth="yes"/>
      <point x="490.90000000000003" y="486.5"/>
      <point x="413.5" y="552.0"/>
      <point x="279.29999999999995" y="552.0" type="curve" smooth="yes"/>
      <point x="95.4" y="552.0"/>
      <point x="26.2" y="368.30000000000007"/>
      <point x="26.2" y="190.5" type="curve" smooth="yes"/>
      <point x="26.2" y="55.5"/>
      <point x="100.0" y="-10.0"/>
    </contour>
    <contour>
      <point x="237.3" y="88.1" type="curve" smooth="yes"/>
      <point x="181.0" y="88.0"/>
      <point x="149.3" y="117.8"/>
      <point x="149.10000000000002" y="186.8" type="curve" smooth="yes"/>
      <point x="148.70000000000002" y="293.19999999999993"/>
      <point x="183.79999999999998" y="453.69999999999993"/>
      <point x="279.8" y="453.9" type="curve" smooth="yes"/>
      <point x="331.49999999999994" y="453.99999999999994"/>
      <point x="366.0" y="424.2"/>
      <point x="366.20000000000005" y="361.5" type="curve" smooth="yes"/>
      <point x="366.6" y="239.80000000000004"/>
      <point x="331.5" y="88.3"/>
    </contour>
  </outline>
</glyph>
<glyph name="p" format="2">
  <advance width="534.3500000000001"/>
  <unicode hex="0070"/>
  <note>
14 point
</note>
  <outline>
    <contour>
      <point x="-21.74000000000001" y="-210.0" type="line"/>
      <point x="102.04000000000002" y="-210.0" type="line"/>
      <point x="135.58" y="1.52" type="line"/>
      <point x="159.53" y="-4.1899999999999995"/>
      <point x="191.41000000000003" y="-9.45"/>
      <point x="229.26999999999998" y="-9.45" type="curve" smooth="yes"/>
      <point x="412.90000000000003" y="-9.45"/>
      <point x="512.63" y="159.05"/>
      <point x="512.63" y="365.54" type="curve" smooth="yes"/>
      <point x="512.63" y="486.58"/>
      <point x="463.26" y="551.0"/>
      <point x="363.64" y="551.0" type="curve" smooth="yes"/>
      <point x="301.19" y="551.0"/>
      <point x="254.86" y="526.7400000000001"/>
      <point x="206.00000000000003" y="494.40000000000003" type="curve"/>
      <point x="209.8" y="543.7" type="line"/>
      <point x="97.0" y="543.7" type="line"/>
    </contour>
    <contour>
      <point x="219.56" y="86.83000000000001" type="curve" smooth="yes"/>
      <point x="192.88" y="86.83000000000001"/>
      <point x="169.8" y="91.53000000000002"/>
      <point x="151.23000000000005" y="97.33000000000001" type="curve"/>
      <point x="200.07000000000002" y="406.5" type="line"/>
      <point x="233.6" y="428.52000000000004"/>
      <point x="271.07" y="442.62000000000006"/>
      <point x="305.73999999999995" y="442.62000000000006" type="curve" smooth="yes"/>
      <point x="360.25" y="442.62000000000006"/>
      <point x="386.38" y="409.15"/>
      <point x="386.38" y="335.96" type="curve" smooth="yes"/>
      <point x="386.38" y="213.6"/>
      <point x="325.65" y="86.83000000000001"/>
    </contour>
  </outline>
</glyph>
<glyph name="q" format="2">
  <advance width="533.29"/>
  <unicode hex="0071"/>
  <note>
12
</note>
  <outline>
    <contour>
      <point x="518.21" y="524.59" type="line"/>
      <point x="468.49000000000007" y="537.3299999999999"/>
      <point x="396.79999999999995" y="551.0"/>
      <point x="326.25" y="551.0" type="curve" smooth="yes"/>
      <point x="120.89000000000001" y="551.0"/>
      <point x="20.919999999999998" y="368.82"/>
      <point x="20.919999999999998" y="168.69000000000003" type="curve" smooth="yes"/>
      <point x="20.919999999999998" y="54.31999999999999"/>
      <point x="76.91000000000001" y="-10.0"/>
      <point x="178.14000000000001" y="-10.0" type="curve" smooth="yes"/>
      <point x="228.32999999999998" y="-10.0"/>
      <point x="270.90000000000003" y="7.970000000000001"/>
      <point x="316.68" y="40.11" type="curve"/>
      <point x="276.61" y="-210.0" type="line"/>
      <point x="400.65000000000003" y="-210.0" type="line"/>
    </contour>
    <contour>
      <point x="380.60999999999996" y="441.73999999999995" type="curve"/>
      <point x="331.22999999999996" y="131.42000000000002" type="line"/>
      <point x="296.24" y="107.77000000000001"/>
      <point x="262.66" y="96.73"/>
      <point x="229.35999999999999" y="96.73" type="curve" smooth="yes"/>
      <point x="179.59" y="96.73"/>
      <point x="146.26000000000002" y="129.14"/>
      <point x="146.26000000000002" y="197.67000000000002" type="curve" smooth="yes"/>
      <point x="146.26000000000002" y="315.62"/>
      <point x="202.55" y="452.78999999999996"/>
      <point x="308.93" y="452.78999999999996" type="curve" smooth="yes"/>
      <point x="338.1" y="452.78999999999996"/>
      <point x="362.15" y="447.27000000000004"/>
    </contour>
  </outline>
</glyph>
<glyph name="r" format="2">
  <advance width="376.79999999999995"/>
  <unicode hex="0072"/>
  <anchor x="70.92" y="0.0" name="bottom"/>
  <anchor x="259.35" y="541.0" name="top"/>
  <outline>
    <contour>
      <point x="208.12" y="541.0" type="line"/>
      <point x="96.67999999999999" y="541.0" type="line"/>
      <point x="10.55" y="0.0" type="line"/>
      <point x="134.09" y="0.0" type="line"/>
      <point x="195.01000000000002" y="380.14000000000004" type="line"/>
      <point x="242.34" y="416.47999999999996"/>
      <point x="280.6" y="429.53000000000003"/>
      <point x="316.67" y="429.53000000000003" type="curve" smooth="yes"/>
      <point x="336.61" y="429.53000000000003"/>
      <point x="359.91999999999996" y="426.08000000000004"/>
      <point x="381.53" y="419.9" type="curve"/>
      <point x="418.6" y="540.04" type="line"/>
      <point x="398.69" y="547.41"/>
      <point x="375.65000000000003" y="551.0"/>
      <point x="351.29" y="551.0" type="curve" smooth="yes"/>
      <point x="302.83000000000004" y="551.0"/>
      <point x="258.93" y="529.66"/>
      <point x="197.91" y="476.5799999999999" type="curve"/>
    </contour>
  </outline>
</glyph>
<glyph name="s" format="2">
  <advance width="450.0"/>
  <unicode hex="0073"/>
  <anchor x="191.2" y="0.0" name="bottom"/>
  <anchor x="274.8" y="541.0" name="top"/>
  <outline>
    <contour>
      <point x="-15.4" y="24.6" type="line"/>
      <point x="37.599999999999994" y="4.700000000000001"/>
      <point x="99.30000000000001" y="-10.0"/>
      <point x="180.00000000000003" y="-10.0" type="curve" smooth="yes"/>
      <point x="323.09999999999997" y="-10.0"/>
      <point x="411.40000000000003" y="40.5"/>
      <point x="411.40000000000003" y="167.29999999999998" type="curve" smooth="yes"/>
      <point x="411.40000000000003" y="345.70000000000005"/>
      <point x="163.8" y="300.3"/>
      <point x="163.8" y="393.5" type="curve" smooth="yes"/>
      <point x="163.8" y="429.5"/>
      <point x="190.6" y="453.0"/>
      <point x="267.90000000000003" y="453.0" type="curve" smooth="yes"/>
      <point x="314.1" y="453.0"/>
      <point x="369.20000000000005" y="441.9"/>
      <point x="410.6" y="427.4" type="curve"/>
      <point x="440.0" y="523.1999999999999" type="line"/>
      <point x="399.1" y="539.6"/>
      <point x="340.6" y="551.0"/>
      <point x="278.7" y="551.0" type="curve" smooth="yes"/>
      <point x="121.7" y="551.0"/>
      <point x="48.3" y="485.3"/>
      <point x="48.3" y="380.40000000000003" type="curve" smooth="yes"/>
      <point x="48.3" y="200.7"/>
      <point x="296.0" y="246.3"/>
      <point x="296.0" y="147.39999999999998" type="curve" smooth="yes"/>
      <point x="296.0" y="110.7"/>
      <point x="266.4" y="87.5"/>
      <point x="186.70000000000002" y="87.5" type="curve" smooth="yes"/>
      <point x="128.5" y="87.5"/>
      <point x="59.1" y="104.0"/>
      <point x="15.500000000000004" y="121.50000000000001" type="curve"/>
    </contour>
  </outline>
</glyph>
<glyph name="t" format="2">
  <advance width="359.36"/>
  <unicode hex="0074"/>
  <anchor x="172.05" y="0.0" name="bottom"/>
  <anchor x="175.34" y="290.66" name="center"/>
  <anchor x="207.95000000000002" y="661.37" name="top"/>
  <anchor x="362.16" y="769.15" name="topright"/>
  <outline>
    <contour>
      <point x="315.61" y="113.25" type="line"/>
      <point x="286.03000000000003" y="105.44"/>
      <point x="261.90000000000003" y="99.97"/>
      <point x="239.51000000000002" y="99.97" type="curve" smooth="yes"/>
      <point x="197.76000000000002" y="99.97"/>
      <point x="182.33000000000004" y="120.14"/>
      <point x="182.33000000000004" y="154.32000000000002" type="curve" smooth="yes"/>
      <point x="182.33000000000004" y="163.67000000000002"/>
      <point x="183.38" y="173.8"/>
      <point x="185.01" y="185.29" type="curve" smooth="yes"/>
      <point x="226.79" y="443.93" type="line"/>
      <point x="367.62" y="443.93" type="line"/>
      <point x="384.37" y="541.0" type="line"/>
      <point x="242.88" y="541.0" type="line"/>
      <point x="261.97" y="661.37" type="line"/>
      <point x="154.79" y="661.37" type="line"/>
      <point x="119.82" y="541.0" type="line"/>
      <point x="42.089999999999996" y="531.92" type="line"/>
      <point x="26.6" y="444.26" type="line"/>
      <point x="102.41" y="444.26" type="line"/>
      <point x="59.86" y="176.38000000000002" type="line" smooth="yes"/>
      <point x="55.760000000000005" y="151.72"/>
      <point x="53.04" y="123.2"/>
      <point x="53.04" y="104.57" type="curve" smooth="yes"/>
      <point x="53.04" y="19.19"/>
      <point x="103.5" y="-10.0"/>
      <point x="175.29000000000002" y="-10.0" type="curve" smooth="yes"/>
      <point x="220.04000000000002" y="-10.0"/>
      <point x="263.64" y="-1.9799999999999993"/>
      <point x="309.9" y="14.559999999999999" type="curve"/>
    </contour>
  </outline>
</glyph>
<glyph name="u" format="2">
  <advance width="532.5"/>
  <unicode hex="0075"/>
  <note>
15
</note>
  <anchor x="222.91" y="0.0" name="bottom"/>
  <anchor x="490.65000000000003" y="10.67" name="ogonek"/>
  <anchor x="302.46348" y="541.0" name="top"/>
  <anchor x="503.33" y="541.0" name="topright"/>
  <outline>
    <contour>
      <point x="154.06" y="-10.0" type="curve" smooth="yes"/>
      <point x="213.51" y="-10.0"/>
      <point x="266.92999999999995" y="10.95"/>
      <point x="325.72" y="51.559999999999995" type="curve"/>
      <point x="335.66" y="13.459999999999999"/>
      <point x="367.4" y="-10.0"/>
      <point x="411.67" y="-10.0" type="curve" smooth="yes"/>
      <point x="436.83000000000004" y="-10.0"/>
      <point x="469.05000000000007" y="-1.5599999999999994"/>
      <point x="490.65000000000003" y="13.09" type="curve"/>
      <point x="495.58" y="101.0" type="line"/>
      <point x="485.97" y="97.54"/>
      <point x="477.03" y="96.19000000000001"/>
      <point x="472.56" y="96.19000000000001" type="curve" smooth="yes"/>
      <point x="456.62" y="96.19000000000001"/>
      <point x="448.57000000000005" y="105.28000000000002"/>
      <point x="448.57000000000005" y="126.06" type="curve" smooth="yes"/>
      <point x="448.57000000000005" y="134.08"/>
      <point x="450.11" y="149.55000000000004"/>
      <point x="513.23" y="541.0" type="curve"/>
      <point x="389.33000000000004" y="541.0" type="line"/>
      <point x="324.64" y="129.58" type="line"/>
      <point x="287.15" y="108.28000000000002"/>
      <point x="252.33000000000004" y="95.58000000000001"/>
      <point x="214.48999999999998" y="95.58000000000001" type="curve" smooth="yes"/>
      <point x="176.66" y="95.58000000000001"/>
      <point x="157.04" y="115.65000000000002"/>
      <point x="157.70000000000002" y="149.0" type="curve" smooth="yes"/>
      <point x="163.64" y="199.74"/>
      <point x="173.00000000000003" y="258.54"/>
      <point x="218.45999999999998" y="541.0" type="curve"/>
      <point x="94.41" y="541.0" type="line"/>
      <point x="43.5" y="219.06"/>
      <point x="28.04" y="139.36"/>
      <point x="28.04" y="99.9" type="curve" smooth="yes"/>
      <point x="28.04" y="33.74"/>
      <point x="71.44" y="-10.0"/>
    </contour>
  </outline>
</glyph>
<glyph name="v" format="2">
  <advance width="476.24"/>
  <unicode hex="0076"/>
  <outline>
    <contour>
      <point x="257.33" y="-0.6799999999999999" type="line"/>
      <point x="412.54" y="269.68"/>
      <point x="489.01" y="393.5"/>
      <point x="498.91999999999996" y="541.0" type="curve"/>
      <point x="369.6" y="541.0" type="line"/>
      <point x="364.49" y="429.16"/>
      <point x="322.68" y="343.28999999999996"/>
      <point x="203.57" y="107.25" type="curve"/>
      <point x="169.86" y="542.8" type="line"/>
      <point x="38.89" y="541.34" type="line"/>
      <point x="108.94999999999999" y="-0.6799999999999999" type="line"/>
    </contour>
  </outline>
</glyph>
<glyph name="w" format="2">
  <advance width="707.03"/>
  <unicode hex="0077"/>
  <note>
15
</note>
  <anchor x="313.78999999999996" y="0.0" name="bottom"/>
  <anchor x="380.55" y="541.0" name="top"/>
  <outline>
    <contour>
      <point x="507.96999999999997" y="0.0" type="line"/>
      <point x="657.63" y="277.31"/>
      <point x="722.5500000000001" y="410.19"/>
      <point x="724.91" y="541.0" type="curve"/>
      <point x="608.42" y="541.0" type="line"/>
      <point x="602.5200000000001" y="431.93"/>
      <point x="572.39" y="345.34999999999997"/>
      <point x="452.73" y="107.34" type="curve"/>
      <point x="458.21" y="525.47" type="line"/>
      <point x="320.16999999999996" y="525.47" type="line"/>
      <point x="265.91999999999996" y="377.07"/>
      <point x="212.73999999999998" y="247.08"/>
      <point x="155.89000000000001" y="107.96" type="curve"/>
      <point x="162.76000000000002" y="542.8" type="line"/>
      <point x="41.73" y="541.52" type="line"/>
      <point x="59.010000000000005" y="0.0" type="line"/>
      <point x="209.08" y="0.0" type="line"/>
      <point x="261.41" y="120.15"/>
      <point x="316.96" y="252.73"/>
      <point x="363.93" y="368.52" type="curve"/>
      <point x="367.4" y="0.0" type="line"/>
    </contour>
  </outline>
</glyph>
<glyph name="x" format="2">
  <advance width="493.65999999999997"/>
  <unicode hex="0078"/>
  <outline>
    <contour>
      <point x="392.56" y="541.0" type="line"/>
      <point x="376.6" y="463.80000000000007"/>
      <point x="342.58" y="413.72"/>
      <point x="277.46000000000004" y="349.02" type="curve"/>
      <point x="200.24" y="546.42" type="line"/>
      <point x="63.84" y="540.1800000000001" type="line"/>
      <point x="182.88" y="291.56" type="line"/>
      <point x="62.519999999999996" y="197.16"/>
      <point x="4.199999999999998" y="107.06"/>
      <point x="-16.2" y="0.0" type="curve"/>
      <point x="113.0" y="0.0" type="line"/>
      <point x="128.82" y="85.0"/>
      <point x="170.66" y="142.02"/>
      <point x="235.79999999999998" y="203.3" type="curve"/>
      <point x="313.96" y="-1.8800000000000003" type="line"/>
      <point x="450.8" y="1.7199999999999998" type="line"/>
      <point x="327.62" y="266.20000000000005" type="line"/>
      <point x="445.26" y="362.06"/>
      <point x="500.76000000000005" y="463.68000000000006"/>
      <point x="520.12" y="541.0" type="curve"/>
    </contour>
  </outline>
</glyph>
<glyph name="y" format="2">
  <advance width="484.6"/>
  <unicode hex="0079"/>
  <anchor x="198.10000000000002" y="-188.99999999999997" name="bottom"/>
  <anchor x="272.3" y="541.0" name="top"/>
  <outline>
    <contour>
      <point x="386.40000000000003" y="543.3" type="line"/>
      <point x="372.2" y="407.7"/>
      <point x="299.1" y="245.3"/>
      <point x="221.3" y="95.40000000000002" type="curve"/>
      <point x="162.70000000000002" y="545.5" type="line"/>
      <point x="36.6" y="543.5" type="line"/>
      <point x="122.00000000000001" y="-2.2" type="line"/>
      <point x="162.89999999999998" y="-2.2" type="line"/>
      <point x="123.1" y="-72.1"/>
      <point x="77.2" y="-139.5"/>
      <point x="27.200000000000003" y="-208.9" type="curve"/>
      <point x="153.3" y="-214.5" type="line"/>
      <point x="312.2" y="31.600000000000012"/>
      <point x="487.90000000000003" y="337.2"/>
      <point x="508.70000000000005" y="542.5999999999999" type="curve"/>
    </contour>
  </outline>
</glyph>
<glyph name="z" format="2">
  <advance width="480.77"/>
  <unicode hex="007A"/>
  <anchor x="208.66000000000003" y="0.0" name="bottom"/>
  <anchor x="239.57" y="275.0" name="center"/>
  <anchor x="283.46" y="541.0" name="top"/>
  <outline>
    <contour>
      <point x="-5.7" y="0.0" type="line"/>
      <point x="418.60999999999996" y="0.0" type="line"/>
      <point x="434.47999999999996" y="98.85000000000001" type="line"/>
      <point x="162.63000000000002" y="98.85000000000001" type="line"/>
      <point x="468.34" y="447.32" type="line"/>
      <point x="485.97" y="541.0" type="line"/>
      <point x="87.38000000000001" y="541.0" type="line"/>
      <point x="70.96" y="441.49" type="line"/>
      <point x="318.63" y="441.49" type="line"/>
      <point x="7.74" y="88.4" type="line"/>
    </contour>
  </outline>
</glyph>
<glyph name="braceleft" format="2">
  <advance width="321.62"/>
  <unicode hex="007B"/>
  <outline>
    <contour>
      <point x="33.099999999999994" y="-95.19999999999999" type="curve" smooth="yes"/>
      <point x="33.099999999999994" y="-171.29999999999998"/>
      <point x="76.55999999999999" y="-210.0"/>
      <point x="147.43" y="-210.0" type="curve" smooth="yes"/>
      <point x="217.28" y="-210.0" type="line"/>
      <point x="232.71000000000004" y="-117.39999999999999" type="line"/>
      <point x="194.87" y="-117.39999999999999" type="line" smooth="yes"/>
      <point x="157.71" y="-117.39999999999999"/>
      <point x="143.64" y="-95.69999999999999"/>
      <point x="143.64" y="-63.739999999999995" type="curve" smooth="yes"/>
      <point x="143.64" y="21.94"/>
      <point x="207.1" y="94.33"/>
      <point x="207.1" y="182.94" type="curve" smooth="yes"/>
      <point x="207.1" y="216.6"/>
      <point x="196.71" y="247.04000000000002"/>
      <point x="163.46" y="267.25" type="curve"/>
      <point x="220.26" y="292.24"/>
      <point x="246.10000000000002" y="356.57000000000005"/>
      <point x="246.10000000000002" y="423.45000000000005" type="curve" smooth="yes"/>
      <point x="246.10000000000002" y="461.7"/>
      <point x="239.67" y="488.61"/>
      <point x="239.67" y="532.9499999999999" type="curve" smooth="yes"/>
      <point x="239.67" y="585.18"/>
      <point x="256.55" y="647.4"/>
      <point x="318.85" y="647.4" type="curve" smooth="yes"/>
      <point x="354.95" y="647.4" type="line"/>
      <point x="369.72" y="740.0" type="line"/>
      <point x="301.21999999999997" y="740.0" type="line" smooth="yes"/>
      <point x="180.04999999999998" y="740.0"/>
      <point x="133.35000000000002" y="636.03"/>
      <point x="133.35000000000002" y="527.88" type="curve" smooth="yes"/>
      <point x="133.35000000000002" y="482.88"/>
      <point x="140.55" y="450.61"/>
      <point x="140.55" y="415.71" type="curve" smooth="yes"/>
      <point x="140.55" y="366.2"/>
      <point x="128.32000000000002" y="314.92"/>
      <point x="85.86" y="314.92" type="curve" smooth="yes"/>
      <point x="70.97" y="314.92" type="line"/>
      <point x="55.87" y="220.24" type="line"/>
      <point x="70.39999999999999" y="220.24" type="line" smooth="yes"/>
      <point x="95.44000000000001" y="220.24"/>
      <point x="103.83" y="204.02"/>
      <point x="103.83" y="180.7" type="curve" smooth="yes"/>
      <point x="103.83" y="96.17"/>
      <point x="33.099999999999994" y="12.899999999999999"/>
    </contour>
  </outline>
</glyph>
<glyph name="bar" format="2">
  <advance width="212.12"/>
  <unicode hex="007C"/>
  <outline>
    <contour>
      <point x="238.74999999999997" y="790.3299999999999" type="line"/>
      <point x="137.7" y="790.3299999999999" type="line"/>
      <point x="-21.96" y="-210.0" type="line"/>
      <point x="79.20000000000002" y="-210.0" type="line"/>
    </contour>
  </outline>
</glyph>
<glyph name="braceright" format="2">
  <advance width="321.62"/>
  <unicode hex="007D"/>
  <outline>
    <contour>
      <point x="285.34" y="625.2" type="curve" smooth="yes"/>
      <point x="285.34" y="701.63"/>
      <point x="241.55" y="740.3299999999999"/>
      <point x="170.68" y="740.3299999999999" type="curve" smooth="yes"/>
      <point x="100.83" y="740.3299999999999" type="line"/>
      <point x="85.39999999999999" y="647.73" type="line"/>
      <point x="119.94" y="647.73" type="line" smooth="yes"/>
      <point x="157.43" y="647.73"/>
      <point x="171.83" y="625.7"/>
      <point x="171.83" y="593.7399999999999" type="curve" smooth="yes"/>
      <point x="171.83" y="507.40000000000003"/>
      <point x="108.37" y="444.03999999999996"/>
      <point x="108.37" y="348.50000000000006" type="curve" smooth="yes"/>
      <point x="108.37" y="315.83"/>
      <point x="118.42999999999999" y="285.39"/>
      <point x="152.34" y="265.51" type="curve"/>
      <point x="95.54" y="240.19"/>
      <point x="69.37" y="176.52"/>
      <point x="69.37" y="109.31" type="curve" smooth="yes"/>
      <point x="69.37" y="71.06"/>
      <point x="75.8" y="41.72"/>
      <point x="75.8" y="-1.9599999999999982" type="curve" smooth="yes"/>
      <point x="75.8" y="-54.19"/>
      <point x="59.25" y="-117.07"/>
      <point x="-3.049999999999998" y="-117.07" type="curve" smooth="yes"/>
      <point x="-36.50999999999999" y="-117.07" type="line"/>
      <point x="-51.28" y="-210.0" type="line"/>
      <point x="16.890000000000008" y="-210.0" type="line" smooth="yes"/>
      <point x="138.06" y="-210.0"/>
      <point x="184.76000000000002" y="-101.74"/>
      <point x="184.76000000000002" y="-4.149999999999999" type="curve" smooth="yes"/>
      <point x="184.76000000000002" y="49.760000000000005"/>
      <point x="177.56" y="85.77999999999999"/>
      <point x="177.56" y="118.37" type="curve" smooth="yes"/>
      <point x="177.56" y="167.22"/>
      <point x="190.45000000000002" y="217.84"/>
      <point x="232.25" y="217.84" type="curve" smooth="yes"/>
      <point x="247.14000000000001" y="217.84" type="line"/>
      <point x="262.24" y="312.19" type="line"/>
      <point x="247.70999999999998" y="312.19" type="line" smooth="yes"/>
      <point x="222.67" y="312.19"/>
      <point x="214.28" y="328.41"/>
      <point x="214.28" y="351.72999999999996" type="curve" smooth="yes"/>
      <point x="214.28" y="436.59000000000003"/>
      <point x="285.34" y="512.48"/>
    </contour>
  </outline>
</glyph>
<glyph name="asciitilde" format="2">
  <advance width="478.34"/>
  <unicode hex="007E"/>
  <outline>
    <contour>
      <point x="414.68" y="242.54999999999998" type="curve"/>
      <point x="431.0" y="350.42" type="line"/>
      <point x="404.36" y="325.5"/>
      <point x="377.32" y="312.61"/>
      <point x="344.78" y="312.61" type="curve" smooth="yes"/>
      <point x="263.1" y="312.61"/>
      <point x="231.02" y="402.8"/>
      <point x="159.8" y="402.8" type="curve" smooth="yes"/>
      <point x="119.75" y="402.8"/>
      <point x="88.34" y="381.78"/>
      <point x="74.47" y="368.3" type="curve"/>
      <point x="57.05" y="260.25" type="line"/>
      <point x="77.47999999999999" y="277.7"/>
      <point x="105.27" y="296.12"/>
      <point x="142.65" y="296.12" type="curve" smooth="yes"/>
      <point x="219.42000000000002" y="296.12"/>
      <point x="250.27" y="205.92999999999998"/>
      <point x="331.86" y="205.92999999999998" type="curve" smooth="yes"/>
      <point x="361.42999999999995" y="205.92999999999998"/>
      <point x="390.48" y="219.32"/>
    </contour>
  </outline>
</glyph>
<glyph name="cent" format="2">
  <advance width="623.22"/>
  <unicode hex="00A2"/>
  <outline>
    <contour>
      <point x="228.84" y="-105.11" type="line"/>
      <point x="325.93" y="-105.11" type="line"/>
      <point x="341.48" y="-6.959999999999999" type="line"/>
      <point x="396.03000000000003" y="-4.029999999999999"/>
      <point x="444.03999999999996" y="4.169999999999999"/>
      <point x="478.36" y="14.940000000000001" type="curve"/>
      <point x="476.65000000000003" y="120.36000000000001" type="line"/>
      <point x="433.0" y="111.39"/>
      <point x="388.04" y="103.61000000000001"/>
      <point x="350.80000000000007" y="103.61000000000001" type="curve" smooth="yes"/>
      <point x="272.88" y="103.61000000000001"/>
      <point x="237.09000000000003" y="142.0"/>
      <point x="237.09000000000003" y="207.35000000000002" type="curve" smooth="yes"/>
      <point x="237.09000000000003" y="333.91"/>
      <point x="302.22" y="435.42"/>
      <point x="401.03" y="435.42" type="curve" smooth="yes"/>
      <point x="442.83000000000004" y="435.42"/>
      <point x="474.71999999999997" y="429.03000000000003"/>
      <point x="516.3900000000001" y="418.22" type="curve"/>
      <point x="551.48" y="529.31" type="line"/>
      <point x="514.4" y="539.6899999999999"/>
      <point x="479.39" y="547.38"/>
      <point x="431.53" y="549.0799999999999" type="curve"/>
      <point x="447.57" y="645.6700000000001" type="line"/>
      <point x="350.48" y="645.6700000000001" type="line"/>
      <point x="333.12" y="540.1" type="line"/>
      <point x="188.09000000000003" y="505.14"/>
      <point x="106.77000000000001" y="346.24"/>
      <point x="106.77000000000001" y="170.55" type="curve" smooth="yes"/>
      <point x="106.77000000000001" y="63.41000000000001"/>
      <point x="160.03" y="12.530000000000001"/>
      <point x="244.71" y="-1.7399999999999995" type="curve"/>
    </contour>
  </outline>
</glyph>
<glyph name="sterling" format="2">
  <advance width="624.3"/>
  <unicode hex="00A3"/>
  <outline>
    <contour>
      <point x="54.760000000000005" y="0.0" type="line"/>
      <point x="499.55999999999995" y="0.0" type="line"/>
      <point x="515.76" y="104.50000000000003" type="line"/>
      <point x="218.66" y="104.50000000000003" type="line"/>
      <point x="275.02" y="158.92000000000002"/>
      <point x="309.06" y="211.44000000000003"/>
      <point x="309.06" y="288.9" type="curve" smooth="yes"/>
      <point x="309.06" y="339.54"/>
      <point x="282.68" y="397.79999999999995"/>
      <point x="282.68" y="451.72" type="curve" smooth="yes"/>
      <point x="282.68" y="552.64"/>
      <point x="347.56" y="597.6999999999999"/>
      <point x="428.74" y="597.6999999999999" type="curve" smooth="yes"/>
      <point x="476.50000000000006" y="597.6999999999999"/>
      <point x="517.6200000000001" y="591.84"/>
      <point x="564.02" y="575.0399999999998" type="curve"/>
      <point x="599.26" y="676.4399999999999" type="line"/>
      <point x="544.12" y="699.7"/>
      <point x="488.64000000000004" y="710.0"/>
      <point x="425.92" y="710.0" type="curve" smooth="yes"/>
      <point x="283.58" y="710.0"/>
      <point x="161.64000000000004" y="620.88"/>
      <point x="161.64000000000004" y="471.08" type="curve" smooth="yes"/>
      <point x="161.64000000000004" y="395.62"/>
      <point x="191.5" y="343.4799999999999"/>
      <point x="191.5" y="280.53999999999996" type="curve" smooth="yes"/>
      <point x="191.5" y="197.74"/>
      <point x="139.99999999999997" y="140.55999999999997"/>
      <point x="66.74000000000001" y="83.60000000000002" type="curve"/>
    </contour>
    <contour>
      <point x="89.62" y="307.71999999999997" type="line"/>
      <point x="476.98" y="307.72" type="line"/>
      <point x="490.23999999999995" y="395.9200000000001" type="line"/>
      <point x="102.84" y="395.9200000000001" type="line"/>
    </contour>
  </outline>
</glyph>
<glyph name="currency" format="2">
  <advance width="430.28000000000003"/>
  <unicode hex="00A4"/>
  <outline>
    <contour>
      <point x="74.95" y="100.57" type="line"/>
      <point x="147.33" y="168.85999999999999" type="line"/>
      <point x="160.22000000000003" y="158.76"/>
      <point x="177.12" y="153.59"/>
      <point x="196.78" y="153.59" type="curve" smooth="yes"/>
      <point x="216.04000000000002" y="153.59"/>
      <point x="234.81" y="158.94"/>
      <point x="251.33" y="168.75" type="curve"/>
      <point x="303.03999999999996" y="100.57" type="line"/>
      <point x="376.32" y="169.67999999999998" type="line"/>
      <point x="330.34999999999997" y="230.70999999999998" type="line"/>
      <point x="347.38000000000005" y="254.27"/>
      <point x="358.56" y="283.53"/>
      <point x="359.22" y="315.38" type="curve" smooth="yes"/>
      <point x="359.88000000000005" y="331.94"/>
      <point x="356.96" y="347.84"/>
      <point x="351.46" y="361.81" type="curve"/>
      <point x="416.43" y="422.84" type="line"/>
      <point x="365.35" y="491.95" type="line"/>
      <point x="293.01000000000005" y="424.76" type="line"/>
      <point x="279.59000000000003" y="434.75"/>
      <point x="262.11" y="440.7"/>
      <point x="242.3" y="440.7" type="curve" smooth="yes"/>
      <point x="222.31" y="440.7"/>
      <point x="203.28" y="434.42"/>
      <point x="186.54000000000002" y="424.65" type="curve"/>
      <point x="137.04000000000002" y="491.95" type="line"/>
      <point x="63.64" y="422.84" type="line"/>
      <point x="108.51" y="361.53000000000003" type="line"/>
      <point x="91.52" y="338.87"/>
      <point x="81.11999999999999" y="310.43"/>
      <point x="80.46000000000001" y="279.75" type="curve" smooth="yes"/>
      <point x="79.80000000000001" y="261.9"/>
      <point x="82.39" y="245.07"/>
      <point x="88.11" y="230.81" type="curve"/>
      <point x="23.310000000000002" y="169.67999999999998" type="line"/>
    </contour>
    <contour>
      <point x="209.25" y="229.14000000000001" type="curve" smooth="yes"/>
      <point x="177.62" y="229.14000000000001"/>
      <point x="156.72" y="252.86"/>
      <point x="157.70999999999998" y="286.40999999999997" type="curve" smooth="yes"/>
      <point x="158.7" y="329.29999999999995"/>
      <point x="193.11" y="364.82"/>
      <point x="230.39" y="364.82" type="curve" smooth="yes"/>
      <point x="262.51" y="364.82"/>
      <point x="282.81000000000006" y="339.85"/>
      <point x="281.82" y="307.09" type="curve" smooth="yes"/>
      <point x="280.83000000000004" y="263.15"/>
      <point x="246.72" y="229.14000000000001"/>
    </contour>
  </outline>
</glyph>
<glyph name="yen" format="2">
  <advance width="630.5"/>
  <unicode hex="00A5"/>
  <outline>
    <contour>
      <point x="107.2" y="312.9" type="line"/>
      <point x="259.3" y="312.9" type="line"/>
      <point x="249.79999999999998" y="255.3" type="line"/>
      <point x="98.5" y="255.3" type="line"/>
      <point x="87.2" y="182.3" type="line"/>
      <point x="238.5" y="182.3" type="line"/>
      <point x="209.8" y="0.0" type="line"/>
      <point x="334.9" y="0.0" type="line"/>
      <point x="364.6" y="182.3" type="line"/>
      <point x="519.1999999999999" y="182.3" type="line"/>
      <point x="529.6" y="255.3" type="line"/>
      <point x="374.90000000000003" y="255.3" type="line"/>
      <point x="384.40000000000003" y="312.9" type="line"/>
      <point x="539.2" y="312.9" type="line"/>
      <point x="550.5" y="384.2" type="line"/>
      <point x="396.6" y="384.2" type="line"/>
      <point x="629.7" y="698.8" type="line"/>
      <point x="500.9" y="703.6" type="line"/>
      <point x="345.90000000000003" y="462.6" type="line"/>
      <point x="264.8" y="702.0" type="line"/>
      <point x="134.8" y="698.8" type="line"/>
      <point x="270.7" y="384.2" type="line"/>
      <point x="119.39999999999999" y="384.2" type="line"/>
    </contour>
  </outline>
</glyph>
<glyph name="brokenbar" format="2">
  <advance width="214.04"/>
  <unicode hex="00A6"/>
  <outline>
    <contour>
      <point x="175.85000000000002" y="391.0" type="line"/>
      <point x="240.73" y="790.3299999999999" type="line"/>
      <point x="139.68" y="790.3299999999999" type="line"/>
      <point x="74.8" y="391.0" type="line"/>
    </contour>
    <contour>
      <point x="42.589999999999996" y="190.33" type="line"/>
      <point x="-21.689999999999998" y="-210.0" type="line"/>
      <point x="79.14000000000001" y="-210.0" type="line"/>
      <point x="143.75" y="190.33" type="line"/>
    </contour>
  </outline>
</glyph>
<glyph name="section" format="2">
  <advance width="495.34"/>
  <unicode hex="00A7"/>
  <outline>
    <contour>
      <point x="13.88" y="-62.279999999999994" type="curve"/>
      <point x="-31.48" y="-176.18" type="line"/>
      <point x="15.36" y="-203.97"/>
      <point x="73.38" y="-220.0"/>
      <point x="125.45000000000002" y="-220.0" type="curve" smooth="yes"/>
      <point x="306.84999999999997" y="-220.0"/>
      <point x="440.68" y="-56.51"/>
      <point x="440.68" y="144.19000000000003" type="curve" smooth="yes"/>
      <point x="440.68" y="302.23"/>
      <point x="338.61" y="408.70000000000005"/>
      <point x="338.61" y="528.1099999999999" type="curve" smooth="yes"/>
      <point x="338.61" y="584.64"/>
      <point x="367.01" y="624.37"/>
      <point x="413.40999999999997" y="624.37" type="curve" smooth="yes"/>
      <point x="430.82" y="624.37"/>
      <point x="444.44" y="619.13"/>
      <point x="461.37" y="611.4499999999999" type="curve"/>
      <point x="500.95" y="729.24" type="line"/>
      <point x="467.32" y="742.67"/>
      <point x="416.46000000000004" y="749.3299999999999"/>
      <point x="377.48" y="749.3299999999999" type="curve" smooth="yes"/>
      <point x="184.58" y="749.3299999999999"/>
      <point x="58.37" y="592.24"/>
      <point x="58.37" y="392.55" type="curve" smooth="yes"/>
      <point x="58.37" y="218.0"/>
      <point x="160.07" y="95.81"/>
      <point x="160.07" y="-13.459999999999999" type="curve" smooth="yes"/>
      <point x="160.07" y="-59.98"/>
      <point x="133.1" y="-95.55999999999999"/>
      <point x="94.21000000000001" y="-95.55999999999999" type="curve" smooth="yes"/>
      <point x="66.69" y="-95.55999999999999"/>
      <point x="38.64" y="-82.35"/>
    </contour>
    <contour>
      <point x="327.01" y="671.91" type="curve"/>
      <point x="269.92" y="636.9300000000001"/>
      <point x="248.57000000000002" y="574.24"/>
      <point x="248.57000000000002" y="513.9399999999999" type="curve" smooth="yes"/>
      <point x="248.57000000000002" y="377.97999999999996"/>
      <point x="344.90999999999997" y="255.29999999999998"/>
      <point x="344.90999999999997" y="118.59000000000002" type="curve" smooth="yes"/>
      <point x="344.90999999999997" y="-14.780000000000001"/>
      <point x="269.01" y="-149.97"/>
      <point x="144.79000000000002" y="-153.38" type="curve"/>
      <point x="216.97" y="-127.85"/>
      <point x="251.44" y="-53.589999999999996"/>
      <point x="251.44" y="15.17000000000001" type="curve" smooth="yes"/>
      <point x="251.44" y="139.16000000000003"/>
      <point x="156.46" y="265.2"/>
      <point x="156.46" y="404.6" type="curve" smooth="yes"/>
      <point x="156.46" y="534.12"/>
      <point x="214.42" y="649.75"/>
    </contour>
  </outline>
</glyph>
<glyph name="copyright" format="2">
  <advance width="715.39"/>
  <unicode hex="00A9"/>
  <outline>
    <contour>
      <point x="339.28" y="-10.4" type="curve" smooth="yes"/>
      <point x="576.92" y="-11.24"/>
      <point x="679.27" y="158.92"/>
      <point x="679.27" y="388.81" type="curve" smooth="yes"/>
      <point x="679.27" y="578.1600000000001"/>
      <point x="596.12" y="708.57"/>
      <point x="402.37000000000006" y="709.41" type="curve" smooth="yes"/>
      <point x="167.1" y="710.25"/>
      <point x="59.79" y="543.81"/>
      <point x="59.79" y="310.6" type="curve" smooth="yes"/>
      <point x="59.79" y="122.36999999999999"/>
      <point x="142.3" y="-9.56"/>
    </contour>
    <contour>
      <point x="360.57" y="150.38000000000002" type="curve" smooth="yes"/>
      <point x="400.78000000000003" y="150.38000000000002"/>
      <point x="442.01000000000005" y="159.34"/>
      <point x="471.2800000000001" y="171.31" type="curve"/>
      <point x="466.44" y="238.69" type="line"/>
      <point x="440.40999999999997" y="230.63"/>
      <point x="409.97999999999996" y="225.41"/>
      <point x="383.48" y="225.41" type="curve" smooth="yes"/>
      <point x="336.34999999999997" y="225.41"/>
      <point x="308.94000000000005" y="253.64000000000001"/>
      <point x="308.94000000000005" y="301.68" type="curve" smooth="yes"/>
      <point x="308.94000000000005" y="391.18999999999994"/>
      <point x="350.38" y="467.31"/>
      <point x="416.46999999999997" y="467.31" type="curve" smooth="yes"/>
      <point x="444.17" y="467.31"/>
      <point x="466.54999999999995" y="464.53000000000003"/>
      <point x="492.74" y="457.55" type="curve"/>
      <point x="513.74" y="532.89" type="line"/>
      <point x="488.55999999999995" y="541.3699999999999"/>
      <point x="456.79999999999995" y="546.67"/>
      <point x="418.28" y="546.67" type="curve" smooth="yes"/>
      <point x="308.46999999999997" y="546.67"/>
      <point x="222.92000000000002" y="448.09999999999997"/>
      <point x="222.92000000000002" y="298.92" type="curve" smooth="yes"/>
      <point x="222.92000000000002" y="201.57"/>
      <point x="274.17" y="150.38000000000002"/>
    </contour>
    <contour>
      <point x="345.48999999999995" y="39.540000000000006" type="curve" smooth="yes"/>
      <point x="179.05" y="39.540000000000006"/>
      <point x="114.22999999999999" y="145.6"/>
      <point x="114.22999999999999" y="313.7" type="curve" smooth="yes"/>
      <point x="114.22999999999999" y="509.34000000000003"/>
      <point x="189.02" y="659.83"/>
      <point x="396.45" y="659.83" type="curve" smooth="yes"/>
      <point x="558.6899999999999" y="659.83"/>
      <point x="624.83" y="553.41"/>
      <point x="624.83" y="386.15" type="curve" smooth="yes"/>
      <point x="624.83" y="191.30999999999997"/>
      <point x="552.1199999999999" y="39.540000000000006"/>
    </contour>
  </outline>
</glyph>
<glyph name="ordfeminine" format="2">
  <advance width="370.28000000000003"/>
  <unicode hex="00AA"/>
  <outline>
    <contour>
      <point x="33.04" y="247.96999999999997" type="line"/>
      <point x="326.05" y="247.96999999999997" type="line"/>
      <point x="336.31" y="313.61" type="line"/>
      <point x="43.3" y="313.61" type="line"/>
    </contour>
    <component base="a.superior" xOffset="10.340000000000002"/>
  </outline>
</glyph>
<glyph name="logicalnot" format="2">
  <advance width="474.6"/>
  <unicode hex="00AC"/>
  <outline>
    <contour>
      <point x="58.87" y="333.17" type="line"/>
      <point x="332.0" y="333.17" type="line"/>
      <point x="307.32000000000005" y="172.16" type="line"/>
      <point x="408.31" y="172.16" type="line"/>
      <point x="450.07" y="435.86999999999995" type="line"/>
      <point x="75.94999999999999" y="435.86999999999995" type="line"/>
    </contour>
  </outline>
</glyph>
<glyph name="registered" format="2">
  <advance width="621.8399999999999"/>
  <unicode hex="00AE"/>
  <outline>
    <contour>
      <point x="307.17" y="209.16" type="curve" smooth="yes"/>
      <point x="506.22999999999996" y="209.16"/>
      <point x="623.49" y="383.19"/>
      <point x="623.49" y="630.6899999999999" type="curve" smooth="yes"/>
      <point x="623.49" y="790.58"/>
      <point x="545.97" y="893.18"/>
      <point x="400.38" y="893.18" type="curve" smooth="yes"/>
      <point x="201.32" y="893.18"/>
      <point x="86.42" y="718.15"/>
      <point x="86.42" y="471.65" type="curve" smooth="yes"/>
      <point x="86.42" y="312.12"/>
      <point x="161.22" y="209.16"/>
    </contour>
    <contour>
      <point x="311.80999999999995" y="255.76999999999998" type="curve" smooth="yes"/>
      <point x="193.86999999999998" y="255.76999999999998"/>
      <point x="135.91" y="343.35999999999996"/>
      <point x="135.91" y="471.4" type="curve" smooth="yes"/>
      <point x="135.91" y="693.8499999999999"/>
      <point x="229.69" y="845.9300000000001"/>
      <point x="396.09999999999997" y="845.9300000000001" type="curve" smooth="yes"/>
      <point x="514.0400000000001" y="845.9300000000001"/>
      <point x="574.0" y="758.98"/>
      <point x="574.0" y="629.94" type="curve" smooth="yes"/>
      <point x="574.0" y="407.49"/>
      <point x="477.86" y="255.76999999999998"/>
    </contour>
    <contour>
      <point x="212.08" y="379.95000000000005" type="line"/>
      <point x="287.20000000000005" y="379.95000000000005" type="line"/>
      <point x="306.38" y="500.32" type="line"/>
      <point x="319.34" y="499.38000000000005"/>
      <point x="332.58" y="498.08"/>
      <point x="350.47999999999996" y="498.71000000000004" type="curve"/>
      <point x="388.21000000000004" y="512.4000000000001" type="line"/>
      <point x="455.13000000000005" y="517.51"/>
      <point x="501.91" y="560.9799999999999"/>
      <point x="501.91" y="641.7800000000001" type="curve" smooth="yes"/>
      <point x="501.91" y="704.9300000000001"/>
      <point x="465.43000000000006" y="733.76"/>
      <point x="380.19" y="733.76" type="curve" smooth="yes"/>
      <point x="349.5" y="733.76"/>
      <point x="314.40000000000003" y="732.3900000000001"/>
      <point x="267.89" y="727.95" type="curve"/>
    </contour>
    <contour>
      <point x="351.38" y="554.6500000000001" type="curve" smooth="yes"/>
      <point x="340.37" y="554.6500000000001"/>
      <point x="331.4" y="555.32"/>
      <point x="315.53000000000003" y="555.92" type="curve"/>
      <point x="332.77" y="668.74" type="line"/>
      <point x="354.17" y="670.5299999999999"/>
      <point x="360.42999999999995" y="671.5299999999999"/>
      <point x="378.04999999999995" y="671.5299999999999" type="curve" smooth="yes"/>
      <point x="413.74" y="671.5299999999999"/>
      <point x="426.54999999999995" y="660.08"/>
      <point x="426.54999999999995" y="634.48" type="curve" smooth="yes"/>
      <point x="426.54999999999995" y="585.7"/>
      <point x="406.71" y="554.6500000000001"/>
    </contour>
    <contour>
      <point x="459.0400000000001" y="376.08" type="curve" smooth="yes"/>
      <point x="461.7300000000001" y="376.08"/>
      <point x="470.01" y="376.74"/>
      <point x="475.34999999999997" y="378.72999999999996" type="curve"/>
      <point x="485.14000000000004" y="450.79" type="line"/>
      <point x="482.38" y="450.45"/>
      <point x="480.34000000000003" y="450.45"/>
      <point x="478.56999999999994" y="450.45" type="curve" smooth="yes"/>
      <point x="459.69000000000005" y="450.45"/>
      <point x="433.15000000000003" y="477.11"/>
      <point x="413.55" y="531.41" type="curve"/>
      <point x="338.13" y="511.47999999999996" type="line"/>
      <point x="380.46999999999997" y="405.74000000000007"/>
      <point x="415.03999999999996" y="376.08"/>
    </contour>
  </outline>
</glyph>
<glyph name="degree" format="2">
  <advance width="301.04999999999995"/>
  <unicode hex="00B0"/>
  <outline>
    <contour>
      <point x="176.3" y="424.96000000000004" type="curve" smooth="yes"/>
      <point x="266.12" y="424.96000000000004"/>
      <point x="320.68" y="514.03"/>
      <point x="320.68" y="605.19" type="curve" smooth="yes"/>
      <point x="320.68" y="666.82"/>
      <point x="290.8" y="717.66"/>
      <point x="218.58" y="717.66" type="curve" smooth="yes"/>
      <point x="128.91" y="717.66"/>
      <point x="74.23000000000002" y="627.7199999999999"/>
      <point x="74.23000000000002" y="536.92" type="curve" smooth="yes"/>
      <point x="74.23000000000002" y="474.87"/>
      <point x="105.13000000000001" y="424.96000000000004"/>
    </contour>
    <contour>
      <point x="187.98000000000002" y="510.34" type="curve" smooth="yes"/>
      <point x="164.85" y="510.34"/>
      <point x="152.99000000000004" y="528.28"/>
      <point x="152.99000000000004" y="553.76" type="curve" smooth="yes"/>
      <point x="152.99000000000004" y="593.39"/>
      <point x="173.93" y="630.96"/>
      <point x="206.6" y="630.96" type="curve" smooth="yes"/>
      <point x="230.42000000000002" y="630.96"/>
      <point x="241.92000000000002" y="612.4799999999999"/>
      <point x="241.92000000000002" y="586.97" type="curve" smooth="yes"/>
      <point x="241.92000000000002" y="548.12"/>
      <point x="220.29" y="510.34"/>
    </contour>
  </outline>
</glyph>
<glyph name="plusminus" format="2">
  <advance width="475.58000000000004"/>
  <unicode hex="00B1"/>
  <outline>
    <contour>
      <point x="387.39" y="33.08" type="line"/>
      <point x="404.46999999999997" y="139.35" type="line"/>
      <point x="269.22" y="139.35" type="line"/>
      <point x="291.92" y="282.06" type="line"/>
      <point x="426.9" y="282.06" type="line"/>
      <point x="443.98" y="388.33" type="line"/>
      <point x="309.0" y="388.33" type="line"/>
      <point x="332.87" y="532.65" type="line"/>
      <point x="226.6" y="532.65" type="line"/>
      <point x="202.56" y="388.33" type="line"/>
      <point x="67.7" y="388.33" type="line"/>
      <point x="50.620000000000005" y="282.06" type="line"/>
      <point x="185.65" y="282.06" type="line"/>
      <point x="162.51" y="139.35" type="line"/>
      <point x="28.19" y="139.35" type="line"/>
      <point x="11.110000000000001" y="33.08" type="line"/>
    </contour>
  </outline>
</glyph>
<glyph name="uni00B2" format="2">
  <advance width="358.5"/>
  <unicode hex="00B2"/>
  <outline>
    <contour>
      <point x="47.7" y="368.98999999999995" type="line"/>
      <point x="339.13" y="368.98999999999995" type="line"/>
      <point x="349.04" y="428.89000000000004" type="line"/>
      <point x="176.78" y="428.89000000000004" type="line"/>
      <point x="270.54" y="507.16"/>
      <point x="354.33" y="584.68"/>
      <point x="354.33" y="679.91" type="curve" smooth="yes"/>
      <point x="354.33" y="741.69"/>
      <point x="305.87" y="772.99"/>
      <point x="241.54" y="772.99" type="curve" smooth="yes"/>
      <point x="195.65" y="772.99"/>
      <point x="140.82000000000002" y="757.57"/>
      <point x="103.0" y="734.36" type="curve"/>
      <point x="120.13000000000001" y="668.78" type="line"/>
      <point x="151.57999999999998" y="687.0400000000001"/>
      <point x="180.38" y="696.49"/>
      <point x="208.75" y="696.49" type="curve" smooth="yes"/>
      <point x="240.64000000000001" y="696.49"/>
      <point x="259.02000000000004" y="678.98"/>
      <point x="259.02000000000004" y="648.74" type="curve" smooth="yes"/>
      <point x="258.34999999999997" y="580.15"/>
      <point x="171.68" y="499.25"/>
      <point x="55.17999999999999" y="419.51" type="curve"/>
    </contour>
  </outline>
</glyph>
<glyph name="uni00B3" format="2">
  <advance width="368.34999999999997"/>
  <unicode hex="00B3"/>
  <outline>
    <contour>
      <point x="40.2" y="397.5" type="line"/>
      <point x="77.25" y="374.34999999999997"/>
      <point x="126.65" y="364.0"/>
      <point x="177.10000000000002" y="364.0" type="curve" smooth="yes"/>
      <point x="279.25" y="364.0"/>
      <point x="365.95" y="403.8"/>
      <point x="365.95" y="492.30000000000007" type="curve" smooth="yes"/>
      <point x="365.95" y="535.0"/>
      <point x="342.95" y="563.95"/>
      <point x="309.95" y="574.6999999999999" type="curve"/>
      <point x="352.0" y="592.55"/>
      <point x="383.2" y="622.6500000000001"/>
      <point x="383.2" y="674.75" type="curve" smooth="yes"/>
      <point x="383.2" y="731.6500000000001"/>
      <point x="331.54999999999995" y="773.65"/>
      <point x="242.95" y="773.65" type="curve" smooth="yes"/>
      <point x="193.29999999999998" y="773.65"/>
      <point x="143.7" y="763.8"/>
      <point x="108.8" y="747.25" type="curve"/>
      <point x="117.45" y="688.6999999999999" type="line"/>
      <point x="148.45" y="699.4000000000001"/>
      <point x="185.95000000000002" y="704.85"/>
      <point x="219.4" y="704.85" type="curve" smooth="yes"/>
      <point x="268.6" y="704.85"/>
      <point x="297.45" y="685.9499999999999"/>
      <point x="297.45" y="653.5999999999999" type="curve" smooth="yes"/>
      <point x="297.45" y="618.15"/>
      <point x="265.45000000000005" y="600.85"/>
      <point x="216.89999999999998" y="600.85" type="curve" smooth="yes"/>
      <point x="151.7" y="600.85" type="line"/>
      <point x="142.0" y="546.8000000000001" type="line"/>
      <point x="203.1" y="546.8000000000001" type="line" smooth="yes"/>
      <point x="261.4" y="546.8000000000001"/>
      <point x="284.5" y="529.4"/>
      <point x="284.5" y="494.25000000000006" type="curve" smooth="yes"/>
      <point x="284.5" y="454.1"/>
      <point x="243.8" y="429.5"/>
      <point x="174.55" y="429.5" type="curve" smooth="yes"/>
      <point x="135.65" y="429.5"/>
      <point x="99.9" y="438.75"/>
      <point x="72.0" y="455.05" type="curve"/>
    </contour>
  </outline>
</glyph>
<glyph name="uni00B5" format="2">
  <advance width="534.66"/>
  <unicode hex="00B5"/>
  <outline>
    <contour>
      <point x="-21.84" y="-210.0" type="line"/>
      <point x="101.50000000000001" y="-210.0" type="line"/>
      <point x="137.5" y="16.269999999999996" type="line"/>
      <point x="145.52" y="-0.6000000000000005"/>
      <point x="162.7" y="-10.0"/>
      <point x="188.67" y="-10.0" type="curve" smooth="yes"/>
      <point x="235.69000000000003" y="-10.0"/>
      <point x="281.85" y="8.64"/>
      <point x="330.85" y="47.6" type="curve"/>
      <point x="340.79" y="12.800000000000002"/>
      <point x="371.21000000000004" y="-10.0"/>
      <point x="413.83" y="-10.0" type="curve" smooth="yes"/>
      <point x="438.99" y="-10.0"/>
      <point x="471.21" y="-1.5599999999999994"/>
      <point x="492.81" y="13.09" type="curve"/>
      <point x="497.74000000000007" y="101.0" type="line"/>
      <point x="488.13" y="97.54"/>
      <point x="479.19" y="96.19000000000001"/>
      <point x="474.72" y="96.19000000000001" type="curve" smooth="yes"/>
      <point x="458.78000000000003" y="96.19000000000001"/>
      <point x="450.73" y="105.28000000000002"/>
      <point x="450.73" y="126.06" type="curve" smooth="yes"/>
      <point x="450.73" y="134.08"/>
      <point x="452.27000000000004" y="149.55000000000004"/>
      <point x="515.39" y="541.0" type="curve"/>
      <point x="391.49" y="541.0" type="line"/>
      <point x="326.8" y="129.58" type="line"/>
      <point x="289.31000000000006" y="108.28000000000002"/>
      <point x="252.33" y="95.58000000000001"/>
      <point x="216.10999999999999" y="95.58000000000001" type="curve" smooth="yes"/>
      <point x="178.28" y="95.58000000000001"/>
      <point x="158.93" y="114.30000000000001"/>
      <point x="159.59" y="147.65" type="curve" smooth="yes"/>
      <point x="167.18" y="199.47000000000003"/>
      <point x="180.83" y="295.26"/>
      <point x="220.62" y="541.0" type="curve"/>
      <point x="96.57" y="541.0" type="line"/>
    </contour>
  </outline>
</glyph>
<glyph name="paragraph" format="2">
  <advance width="582.73"/>
  <unicode hex="00B6"/>
  <outline>
    <contour>
      <point x="352.02" y="-210.0" type="line"/>
      <point x="446.58" y="-210.0" type="line"/>
      <point x="597.7900000000001" y="740.0" type="line"/>
      <point x="503.22999999999996" y="740.0" type="line"/>
    </contour>
    <contour>
      <point x="237.75" y="287.9200000000001" type="line"/>
      <point x="195.07" y="296.36"/>
      <point x="166.52" y="338.53999999999996"/>
      <point x="166.52" y="403.79" type="curve" smooth="yes"/>
      <point x="166.52" y="515.22"/>
      <point x="215.92000000000002" y="631.06"/>
      <point x="325.46000000000004" y="633.88" type="curve"/>
      <point x="191.76999999999998" y="-210.0" type="line"/>
      <point x="286.33" y="-210.0" type="line"/>
      <point x="437.54" y="740.0" type="line"/>
      <point x="373.04" y="740.0" type="line" smooth="yes"/>
      <point x="172.65" y="740.0"/>
      <point x="61.92" y="597.13"/>
      <point x="61.92" y="399.40999999999997" type="curve" smooth="yes"/>
      <point x="61.92" y="295.09"/>
      <point x="113.57" y="225.72"/>
      <point x="213.5" y="208.99" type="curve"/>
    </contour>
  </outline>
</glyph>
<glyph name="periodcentered" format="2">
  <advance width="211.26000000000002"/>
  <unicode hex="00B7"/>
  <outline>
    <contour>
      <point x="39.459999999999994" y="288.40000000000003" type="curve" smooth="yes"/>
      <point x="38.56" y="252.23999999999998"/>
      <point x="56.00000000000001" y="234.94000000000003"/>
      <point x="98.7" y="234.94000000000003" type="curve" smooth="yes"/>
      <point x="156.44" y="234.94000000000003"/>
      <point x="180.44000000000005" y="276.47999999999996"/>
      <point x="181.34" y="326.28000000000003" type="curve" smooth="yes"/>
      <point x="182.24000000000004" y="362.4"/>
      <point x="163.9" y="379.70000000000005"/>
      <point x="122.19999999999999" y="379.70000000000005" type="curve" smooth="yes"/>
      <point x="66.35999999999999" y="379.70000000000005"/>
      <point x="40.36000000000001" y="337.14"/>
    </contour>
  </outline>
</glyph>
<glyph name="uni00B9" format="2">
  <advance width="341.89000000000004"/>
  <unicode hex="00B9"/>
  <outline>
    <contour>
      <point x="47.27" y="370.0" type="line"/>
      <point x="335.06" y="370.0" type="line"/>
      <point x="345.97" y="432.8" type="line"/>
      <point x="253.29000000000002" y="432.8" type="line"/>
      <point x="308.75" y="767.66" type="line"/>
      <point x="261.19" y="767.66" type="line"/>
      <point x="92.57000000000001" y="698.5300000000001" type="line"/>
      <point x="99.92999999999999" y="628.8399999999999" type="line"/>
      <point x="205.78" y="675.0600000000001" type="line"/>
      <point x="165.23" y="432.8" type="line"/>
      <point x="57.61" y="432.8" type="line"/>
    </contour>
  </outline>
</glyph>
<glyph name="ordmasculine" format="2">
  <advance width="348.71000000000004"/>
  <unicode hex="00BA"/>
  <outline>
    <contour>
      <point x="31.590000000000003" y="247.96999999999997" type="line"/>
      <point x="307.43000000000006" y="247.96999999999997" type="line"/>
      <point x="317.41999999999996" y="313.61" type="line"/>
      <point x="41.58" y="313.61" type="line"/>
    </contour>
    <component base="o.superior" xOffset="10.7"/>
  </outline>
</glyph>
<glyph name="AE" format="2">
  <advance width="874.8000000000001"/>
  <unicode hex="00C6"/>
  <anchor x="406.74664000000007" y="0.0" name="bottom"/>
  <anchor x="541.9799999999999" y="700.0" name="top"/>
  <outline>
    <contour>
      <point x="348.88" y="0.0" type="line"/>
      <point x="804.26" y="0.0" type="line"/>
      <point x="821.52" y="110.38" type="line"/>
      <point x="487.34000000000003" y="110.38" type="line"/>
      <point x="517.58" y="298.67999999999995" type="line"/>
      <point x="808.02" y="298.67999999999995" type="line"/>
      <point x="826.02" y="407.46" type="line"/>
      <point x="535.52" y="407.46" type="line"/>
      <point x="563.9599999999999" y="589.32" type="line"/>
      <point x="882.08" y="589.32" type="line"/>
      <point x="900.36" y="700.0" type="line"/>
      <point x="377.78" y="700.0" type="line"/>
      <point x="-41.3" y="0.0" type="line"/>
      <point x="104.42" y="0.0" type="line"/>
      <point x="227.58" y="216.1" type="line"/>
      <point x="382.23999999999995" y="216.1" type="line"/>
    </contour>
    <contour>
      <point x="284.24" y="317.53999999999996" type="line"/>
      <point x="441.37999999999994" y="595.6400000000001" type="line"/>
      <point x="398.32000000000005" y="317.53999999999996" type="line"/>
    </contour>
  </outline>
</glyph>
<glyph name="multiply" format="2">
  <advance width="440.59999999999997"/>
  <unicode hex="00D7"/>
  <outline>
    <contour>
      <point x="90.12" y="106.0" type="line"/>
      <point x="217.58" y="239.04" type="line"/>
      <point x="297.76000000000005" y="105.36" type="line"/>
      <point x="376.32" y="183.29999999999998" type="line"/>
      <point x="297.2" y="311.32" type="line"/>
      <point x="422.14" y="444.7" type="line"/>
      <point x="363.20000000000005" y="520.4" type="line"/>
      <point x="239.29999999999998" y="388.18" type="line"/>
      <point x="155.48" y="520.88" type="line"/>
      <point x="76.98" y="445.1" type="line"/>
      <point x="158.94" y="314.14000000000004" type="line"/>
      <point x="31.080000000000002" y="180.6" type="line"/>
    </contour>
  </outline>
</glyph>
<glyph name="Oslash" format="2">
  <advance width="660.2"/>
  <unicode hex="00D8"/>
  <anchor x="385.00000000000006" y="700.0" name="top"/>
  <outline>
    <contour>
      <point x="695.8000000000001" y="711.0" type="line"/>
      <point x="590.1999999999999" y="711.0" type="line"/>
      <point x="507.70000000000005" y="611.0" type="line"/>
      <point x="504.40000000000003" y="612.0" type="line"/>
      <point x="126.5" y="160.5" type="line"/>
      <point x="123.19999999999999" y="161.59999999999997" type="line"/>
      <point x="-16.900000000000002" y="-5.9" type="line"/>
      <point x="89.60000000000001" y="-5.9" type="line"/>
      <point x="170.9" y="92.2" type="line"/>
      <point x="174.2" y="91.2" type="line"/>
      <point x="552.5999999999999" y="543.8" type="line"/>
      <point x="555.8" y="542.7" type="line"/>
    </contour>
    <contour>
      <point x="302.40000000000003" y="-7.799999999999999" type="curve" smooth="yes"/>
      <point x="514.2" y="-7.799999999999999"/>
      <point x="634.5000000000001" y="170.10000000000002"/>
      <point x="635.6000000000001" y="415.3999999999999" type="curve" smooth="yes"/>
      <point x="636.4000000000001" y="600.8000000000001"/>
      <point x="546.3000000000001" y="707.8000000000001"/>
      <point x="377.4" y="707.8000000000001" type="curve" smooth="yes"/>
      <point x="165.60000000000002" y="707.8000000000001"/>
      <point x="45.3" y="530.8000000000001"/>
      <point x="44.199999999999996" y="283.7" type="curve" smooth="yes"/>
      <point x="43.4" y="98.3"/>
      <point x="133.50000000000003" y="-7.799999999999999"/>
    </contour>
    <contour>
      <point x="312.9" y="99.10000000000001" type="curve" smooth="yes"/>
      <point x="232.10000000000002" y="99.10000000000001"/>
      <point x="174.0" y="148.9"/>
      <point x="174.0" y="269.7" type="curve" smooth="yes"/>
      <point x="174.0" y="473.9"/>
      <point x="248.40000000000003" y="600.9000000000001"/>
      <point x="370.5" y="600.9000000000001" type="curve" smooth="yes"/>
      <point x="448.5" y="600.9000000000001"/>
      <point x="505.80000000000007" y="551.0999999999999"/>
      <point x="505.80000000000007" y="430.1999999999999" type="curve" smooth="yes"/>
      <point x="505.80000000000007" y="243.99999999999997"/>
      <point x="433.2" y="99.10000000000001"/>
    </contour>
  </outline>
</glyph>
<glyph name="Thorn" format="2">
  <advance width="612.25"/>
  <unicode hex="00DE"/>
  <outline>
    <contour>
      <point x="15.549999999999999" y="0.0" type="line"/>
      <point x="143.45000000000002" y="0.0" type="line"/>
      <point x="164.2" y="127.2" type="line"/>
      <point x="220.8" y="124.1"/>
      <point x="248.75" y="123.55"/>
      <point x="291.95" y="123.55" type="curve" smooth="yes"/>
      <point x="499.0" y="123.55"/>
      <point x="605.15" y="222.25"/>
      <point x="605.15" y="421.3" type="curve" smooth="yes"/>
      <point x="605.15" y="549.3000000000001"/>
      <point x="534.75" y="624.0"/>
      <point x="347.0" y="624.0" type="curve" smooth="yes"/>
      <point x="325.34999999999997" y="624.0"/>
      <point x="295.25" y="623.0"/>
      <point x="242.85" y="620.75" type="curve"/>
      <point x="255.64999999999998" y="700.0" type="line"/>
      <point x="127.75000000000001" y="700.0" type="line"/>
    </contour>
    <contour>
      <point x="285.0" y="228.45000000000002" type="curve" smooth="yes"/>
      <point x="246.25" y="228.45000000000002"/>
      <point x="224.00000000000003" y="228.9"/>
      <point x="181.5" y="231.9" type="curve"/>
      <point x="226.0" y="514.3" type="line"/>
      <point x="287.65" y="518.2"/>
      <point x="308.15000000000003" y="519.2"/>
      <point x="340.15" y="519.2" type="curve" smooth="yes"/>
      <point x="439.15000000000003" y="519.2"/>
      <point x="475.6" y="471.55"/>
      <point x="475.6" y="404.75" type="curve" smooth="yes"/>
      <point x="475.6" y="284.09999999999997"/>
      <point x="414.7" y="228.45000000000002"/>
    </contour>
  </outline>
</glyph>
<glyph name="germandbls" format="2">
  <advance width="644.1"/>
  <unicode hex="00DF"/>
  <outline>
    <contour>
      <point x="36.24" y="-18.979999999999997" type="line" smooth="yes"/>
      <point x="26.56" y="-77.72"/>
      <point x="7.940000000000001" y="-110.8"/>
      <point x="-30.220000000000002" y="-110.8" type="curve" smooth="yes"/>
      <point x="-41.980000000000004" y="-110.8"/>
      <point x="-54.78" y="-108.91999999999999"/>
      <point x="-70.48" y="-104.03999999999999" type="curve"/>
      <point x="-98.41999999999999" y="-203.48" type="line"/>
      <point x="-71.28" y="-214.86"/>
      <point x="-39.779999999999994" y="-220.0"/>
      <point x="-7.459999999999994" y="-220.0" type="curve" smooth="yes"/>
      <point x="87.28" y="-220.0"/>
      <point x="138.04" y="-154.89999999999998"/>
      <point x="157.42000000000002" y="-31.499999999999996" type="curve" smooth="yes"/>
      <point x="242.34" y="503.15999999999997" type="line" smooth="yes"/>
      <point x="257.8" y="600.44"/>
      <point x="310.73999999999995" y="647.44"/>
      <point x="405.2" y="647.44" type="curve" smooth="yes"/>
      <point x="462.86" y="647.44"/>
      <point x="490.58000000000004" y="630.14"/>
      <point x="490.58000000000004" y="599.08" type="curve" smooth="yes"/>
      <point x="490.58000000000004" y="568.4200000000001"/>
      <point x="470.56" y="548.94"/>
      <point x="405.0" y="524.4599999999999" type="curve" smooth="yes"/>
      <point x="319.34000000000003" y="491.8"/>
      <point x="274.54" y="450.72"/>
      <point x="274.54" y="367.54" type="curve" smooth="yes"/>
      <point x="274.54" y="292.52"/>
      <point x="319.40000000000003" y="253.94"/>
      <point x="408.26" y="224.9" type="curve" smooth="yes"/>
      <point x="480.26" y="201.3"/>
      <point x="504.81999999999994" y="184.06"/>
      <point x="504.81999999999994" y="153.94" type="curve" smooth="yes"/>
      <point x="504.81999999999994" y="114.10000000000001"/>
      <point x="459.09999999999997" y="86.72"/>
      <point x="394.55999999999995" y="86.72" type="curve" smooth="yes"/>
      <point x="345.64000000000004" y="86.72"/>
      <point x="283.14000000000004" y="97.76"/>
      <point x="238.12" y="113.42" type="curve"/>
      <point x="210.64000000000001" y="21.939999999999998" type="line"/>
      <point x="260.96" y="2.9800000000000004"/>
      <point x="323.92" y="-9.959999999999999"/>
      <point x="388.06" y="-9.959999999999999" type="curve" smooth="yes"/>
      <point x="544.46" y="-9.959999999999999"/>
      <point x="624.6199999999999" y="51.12"/>
      <point x="624.6199999999999" y="165.94000000000003" type="curve" smooth="yes"/>
      <point x="624.6199999999999" y="237.5"/>
      <point x="585.1400000000001" y="282.24"/>
      <point x="499.92" y="310.08000000000004" type="curve" smooth="yes"/>
      <point x="416.52" y="337.58"/>
      <point x="390.28000000000003" y="350.72"/>
      <point x="390.28000000000003" y="380.9" type="curve" smooth="yes"/>
      <point x="390.28000000000003" y="412.71999999999997"/>
      <point x="415.44" y="426.11999999999995"/>
      <point x="493.55999999999995" y="455.22" type="curve" smooth="yes"/>
      <point x="574.6600000000001" y="485.06"/>
      <point x="607.6999999999999" y="525.88"/>
      <point x="607.6999999999999" y="605.94" type="curve" smooth="yes"/>
      <point x="607.6999999999999" y="697.44"/>
      <point x="534.5" y="750.0"/>
      <point x="412.54" y="750.0" type="curve" smooth="yes"/>
      <point x="233.11999999999998" y="750.0"/>
      <point x="148.33999999999997" y="675.74"/>
      <point x="122.5" y="521.52" type="curve" smooth="yes"/>
      <point x="118.86" y="499.3" type="line"/>
      <point x="43.18" y="489.09999999999997" type="line"/>
      <point x="27.14" y="400.28" type="line"/>
      <point x="102.61999999999999" y="400.28" type="line"/>
    </contour>
  </outline>
</glyph>
<glyph name="ae" format="2">
  <advance width="819.9"/>
  <unicode hex="00E6"/>
  <anchor x="372.5" y="0.0" name="bottom"/>
  <anchor x="452.30000000000007" y="541.0" name="top"/>
  <outline>
    <contour>
      <point x="176.20000000000002" y="-10.0" type="curve" smooth="yes"/>
      <point x="226.5" y="-10.0"/>
      <point x="274.70000000000005" y="7.6"/>
      <point x="315.40000000000003" y="36.8" type="curve"/>
      <point x="308.29999999999995" y="-2.7" type="line"/>
      <point x="421.40000000000003" y="-2.7" type="line"/>
      <point x="433.80000000000007" y="71.7" type="line"/>
      <point x="459.80000000000007" y="24.399999999999995"/>
      <point x="512.3" y="-8.999999999999998"/>
      <point x="590.3000000000001" y="-8.999999999999998" type="curve" smooth="yes"/>
      <point x="647.0999999999999" y="-8.999999999999998"/>
      <point x="709.3000000000001" y="2.9000000000000004"/>
      <point x="759.4000000000001" y="25.900000000000006" type="curve"/>
      <point x="745.6999999999999" y="124.20000000000002" type="line"/>
      <point x="695.3" y="105.10000000000001"/>
      <point x="653.4000000000001" y="93.50000000000001"/>
      <point x="602.7" y="93.50000000000001" type="curve" smooth="yes"/>
      <point x="512.9999999999999" y="93.50000000000001"/>
      <point x="461.59999999999997" y="139.7"/>
      <point x="461.59999999999997" y="214.7" type="curve" smooth="yes"/>
      <point x="461.59999999999997" y="343.9"/>
      <point x="525.0" y="454.5"/>
      <point x="620.0" y="454.5" type="curve" smooth="yes"/>
      <point x="665.8999999999999" y="454.5"/>
      <point x="688.5999999999999" y="438.4"/>
      <point x="688.5999999999999" y="404.19999999999993" type="curve" smooth="yes"/>
      <point x="688.5999999999999" y="353.2"/>
      <point x="636.9" y="323.8"/>
      <point x="547.2" y="304.59999999999997" type="curve" smooth="yes"/>
      <point x="510.70000000000005" y="296.9"/>
      <point x="473.59999999999997" y="294.9"/>
      <point x="438.1" y="296.9" type="curve"/>
      <point x="431.7" y="218.10000000000002" type="line"/>
      <point x="475.40000000000003" y="213.99999999999997"/>
      <point x="527.6" y="216.00000000000003"/>
      <point x="581.4" y="225.79999999999998" type="curve" smooth="yes"/>
      <point x="727.5000000000001" y="248.8"/>
      <point x="812.6" y="322.0"/>
      <point x="812.6" y="422.6" type="curve" smooth="yes"/>
      <point x="812.6" y="501.5"/>
      <point x="758.3" y="551.0"/>
      <point x="664.5999999999999" y="551.0" type="curve" smooth="yes"/>
      <point x="593.9" y="551.0"/>
      <point x="532.2000000000002" y="524.5"/>
      <point x="496.3" y="474.8" type="curve"/>
      <point x="507.6000000000001" y="547.0" type="line"/>
      <point x="395.4" y="547.0" type="line"/>
      <point x="391.29999999999995" y="519.5999999999999" type="line"/>
      <point x="363.70000000000005" y="540.8000000000001"/>
      <point x="328.70000000000005" y="551.0"/>
      <point x="288.40000000000003" y="551.0" type="curve" smooth="yes"/>
      <point x="131.60000000000002" y="551.0"/>
      <point x="22.0" y="396.2"/>
      <point x="22.0" y="173.69999999999996" type="curve" smooth="yes"/>
      <point x="22.0" y="54.2"/>
      <point x="80.19999999999999" y="-10.0"/>
    </contour>
    <contour>
      <point x="234.1" y="88.1" type="curve" smooth="yes"/>
      <point x="185.1" y="88.1"/>
      <point x="150.40000000000003" y="120.7"/>
      <point x="150.40000000000003" y="192.20000000000005" type="curve" smooth="yes"/>
      <point x="150.40000000000003" y="339.09999999999997"/>
      <point x="229.79999999999998" y="453.8999999999999"/>
      <point x="309.9" y="453.8999999999999" type="curve" smooth="yes"/>
      <point x="336.4" y="453.8999999999999"/>
      <point x="357.4" y="450.09999999999997"/>
      <point x="378.20000000000005" y="435.30000000000007" type="curve"/>
      <point x="327.9" y="117.0" type="line"/>
      <point x="300.20000000000005" y="99.30000000000001"/>
      <point x="265.4" y="88.1"/>
    </contour>
  </outline>
</glyph>
<glyph name="eth" format="2">
  <advance width="542.8000000000001"/>
  <unicode hex="00F0"/>
  <outline>
    <contour>
      <point x="420.90000000000003" y="401.79999999999995" type="curve"/>
      <point x="438.1" y="490.2" type="line"/>
      <point x="398.6" y="519.5"/>
      <point x="343.4" y="531.0999999999999"/>
      <point x="296.1" y="531.0999999999999" type="curve" smooth="yes"/>
      <point x="120.4" y="531.0999999999999"/>
      <point x="23.899999999999995" y="377.8"/>
      <point x="23.899999999999995" y="200.3" type="curve" smooth="yes"/>
      <point x="23.899999999999995" y="48.5"/>
      <point x="114.6" y="-9.1"/>
      <point x="227.0" y="-9.1" type="curve" smooth="yes"/>
      <point x="380.40000000000003" y="-9.1"/>
      <point x="478.3" y="79.3"/>
      <point x="518.4" y="312.9" type="curve" smooth="yes"/>
      <point x="527.2" y="366.6"/>
      <point x="532.0" y="412.0"/>
      <point x="532.0" y="454.20000000000005" type="curve" smooth="yes"/>
      <point x="532.0" y="651.0"/>
      <point x="409.0" y="737.4"/>
      <point x="215.60000000000002" y="737.4" type="curve" smooth="yes"/>
      <point x="168.2" y="737.4"/>
      <point x="126.80000000000001" y="729.1999999999999"/>
      <point x="86.8" y="721.2" type="curve"/>
      <point x="85.39999999999999" y="640.0" type="line"/>
      <point x="118.00000000000001" y="644.9000000000001"/>
      <point x="144.5" y="652.0"/>
      <point x="196.89999999999998" y="652.0" type="curve" smooth="yes"/>
      <point x="344.0" y="652.0"/>
      <point x="406.59999999999997" y="596.0999999999999"/>
      <point x="406.59999999999997" y="477.40000000000003" type="curve" smooth="yes"/>
      <point x="406.59999999999997" y="437.3"/>
      <point x="402.7" y="391.9"/>
      <point x="392.8999999999999" y="334.7" type="curve" smooth="yes"/>
      <point x="358.29999999999995" y="138.0"/>
      <point x="310.90000000000003" y="84.1"/>
      <point x="235.60000000000002" y="84.1" type="curve" smooth="yes"/>
      <point x="178.4" y="84.1"/>
      <point x="146.80000000000004" y="121.8"/>
      <point x="146.80000000000004" y="191.5" type="curve" smooth="yes"/>
      <point x="146.80000000000004" y="329.50000000000006"/>
      <point x="214.8" y="440.2"/>
      <point x="315.99999999999994" y="440.2" type="curve" smooth="yes"/>
      <point x="352.4" y="440.2"/>
      <point x="389.5" y="428.49999999999994"/>
    </contour>
    <contour>
      <point x="220.60000000000002" y="551.3000000000001" type="line"/>
      <point x="396.59999999999997" y="646.0" type="line"/>
      <point x="393.0" y="649.2000000000002" type="line"/>
      <point x="566.1000000000001" y="741.5999999999999" type="line"/>
      <point x="439.49999999999994" y="741.6999999999999" type="line"/>
      <point x="331.3999999999999" y="683.6999999999999" type="line"/>
      <point x="334.90000000000003" y="680.4" type="line"/>
      <point x="98.5" y="551.3" type="line"/>
    </contour>
  </outline>
</glyph>
<glyph name="divide" format="2">
  <advance width="476.84"/>
  <unicode hex="00F7"/>
  <outline>
    <contour>
      <point x="153.48" y="111.2" type="curve" smooth="yes"/>
      <point x="152.58" y="83.47999999999999"/>
      <point x="168.68" y="70.39999999999998"/>
      <point x="205.08" y="70.39999999999998" type="curve" smooth="yes"/>
      <point x="249.48" y="70.39999999999998"/>
      <point x="274.66" y="90.05999999999997"/>
      <point x="276.46000000000004" y="142.76000000000002" type="curve" smooth="yes"/>
      <point x="277.36" y="170.48"/>
      <point x="260.4" y="183.46"/>
      <point x="225.02000000000004" y="183.46" type="curve" smooth="yes"/>
      <point x="179.42" y="183.46"/>
      <point x="155.28" y="158.3"/>
    </contour>
    <contour>
      <point x="212.76" y="475.9" type="curve" smooth="yes"/>
      <point x="211.85999999999999" y="449.12"/>
      <point x="226.92000000000002" y="435.20000000000005"/>
      <point x="264.26" y="435.20000000000005" type="curve" smooth="yes"/>
      <point x="308.7" y="435.20000000000005"/>
      <point x="332.96000000000004" y="455.84"/>
      <point x="334.76000000000005" y="507.53999999999996" type="curve" smooth="yes"/>
      <point x="335.66" y="536.2199999999999"/>
      <point x="319.58000000000004" y="549.1599999999999"/>
      <point x="283.26" y="549.1599999999999" type="curve" smooth="yes"/>
      <point x="236.5" y="549.1599999999999"/>
      <point x="214.56" y="521.9"/>
    </contour>
    <contour>
      <point x="46.68" y="255.89999999999998" type="line"/>
      <point x="423.5" y="255.89999999999998" type="line"/>
      <point x="441.7" y="363.69999999999993" type="line"/>
      <point x="63.98" y="363.69999999999993" type="line"/>
    </contour>
  </outline>
</glyph>
<glyph name="oslash" format="2">
  <advance width="519.8000000000001"/>
  <unicode hex="00F8"/>
  <anchor x="296.3" y="541.0" name="top"/>
  <outline>
    <contour>
      <point x="449.4" y="552.0" type="line"/>
      <point x="388.6" y="475.5999999999999" type="line"/>
      <point x="385.40000000000003" y="477.70000000000005" type="line"/>
      <point x="105.10000000000001" y="126.6" type="line"/>
      <point x="101.20000000000002" y="129.70000000000002" type="line"/>
      <point x="-12.1" y="-10.0" type="line"/>
      <point x="76.3" y="-10.0" type="line"/>
      <point x="147.0" y="77.90000000000002" type="line"/>
      <point x="151.10000000000002" y="75.8" type="line"/>
      <point x="426.6" y="421.3" type="line"/>
      <point x="429.6" y="418.20000000000005" type="line"/>
      <point x="538.0" y="552.0" type="line"/>
    </contour>
    <contour>
      <point x="246.60000000000002" y="-10.0" type="curve" smooth="yes"/>
      <point x="424.8" y="-10.0"/>
      <point x="495.20000000000005" y="160.89999999999998"/>
      <point x="495.20000000000005" y="349.3" type="curve" smooth="yes"/>
      <point x="495.20000000000005" y="486.2"/>
      <point x="417.8" y="552.0"/>
      <point x="283.80000000000007" y="552.0" type="curve" smooth="yes"/>
      <point x="99.4" y="552.0"/>
      <point x="30.7" y="368.6"/>
      <point x="30.7" y="190.89999999999998" type="curve" smooth="yes"/>
      <point x="30.7" y="55.8"/>
      <point x="104.49999999999999" y="-10.0"/>
    </contour>
    <contour>
      <point x="244.50000000000003" y="87.70000000000002" type="curve" smooth="yes"/>
      <point x="188.10000000000002" y="86.70000000000002"/>
      <point x="153.7" y="114.7"/>
      <point x="152.6" y="179.2" type="curve" smooth="yes"/>
      <point x="150.09999999999997" y="288.90000000000003"/>
      <point x="184.70000000000002" y="452.30000000000007"/>
      <point x="281.4" y="454.30000000000007" type="curve" smooth="yes"/>
      <point x="335.9" y="455.3"/>
      <point x="370.4" y="424.59999999999997"/>
      <point x="371.49999999999994" y="361.0" type="curve" smooth="yes"/>
      <point x="373.99999999999994" y="236.00000000000003"/>
      <point x="336.7" y="89.60000000000002"/>
    </contour>
  </outline>
</glyph>
<glyph name="thorn" format="2">
  <advance width="534.35"/>
  <unicode hex="00FE"/>
  <outline>
    <contour>
      <point x="-21.740000000000006" y="-210.0" type="line"/>
      <point x="102.04000000000002" y="-210.0" type="line"/>
      <point x="135.58" y="1.52" type="line"/>
      <point x="159.52999999999997" y="-4.1899999999999995"/>
      <point x="191.41" y="-9.45"/>
      <point x="229.26999999999998" y="-9.45" type="curve" smooth="yes"/>
      <point x="412.90000000000003" y="-9.45"/>
      <point x="512.63" y="159.05"/>
      <point x="512.63" y="365.54" type="curve" smooth="yes"/>
      <point x="512.63" y="486.58"/>
      <point x="463.26" y="551.0"/>
      <point x="369.14" y="551.0" type="curve" smooth="yes"/>
      <point x="303.94" y="551.0"/>
      <point x="258.16" y="526.19"/>
      <point x="213.15000000000003" y="494.40000000000003" type="curve"/>
      <point x="251.76000000000002" y="740.0" type="line"/>
      <point x="128.26" y="740.0" type="line"/>
    </contour>
    <contour>
      <point x="219.56" y="88.48" type="curve" smooth="yes"/>
      <point x="192.88" y="88.48"/>
      <point x="169.8" y="93.18000000000002"/>
      <point x="151.23000000000005" y="98.98000000000002" type="curve"/>
      <point x="200.07000000000002" y="404.84999999999997" type="line"/>
      <point x="233.6" y="426.87000000000006"/>
      <point x="271.07" y="440.97"/>
      <point x="305.73999999999995" y="440.97" type="curve" smooth="yes"/>
      <point x="360.24999999999994" y="440.97"/>
      <point x="386.38000000000005" y="407.5"/>
      <point x="386.38000000000005" y="334.31" type="curve" smooth="yes"/>
      <point x="386.38000000000005" y="211.95000000000002"/>
      <point x="325.65000000000003" y="88.48"/>
    </contour>
  </outline>
</glyph>
<glyph name="Dcroat" format="2">
  <advance width="654.96"/>
  <unicode hex="0110"/>
  <outline>
    <contour>
      <point x="15.44" y="304.70000000000005" type="line"/>
      <point x="327.42" y="304.70000000000005" type="line"/>
      <point x="345.66" y="407.38" type="line"/>
      <point x="33.56" y="407.38" type="line"/>
    </contour>
    <component base="D" xOffset="8.319999999999999"/>
  </outline>
</glyph>
<glyph name="dcroat" format="2">
  <advance width="546.7199999999999"/>
  <unicode hex="0111"/>
  <outline>
    <contour>
      <point x="271.0" y="607.72" type="line"/>
      <point x="595.72" y="607.72" type="line"/>
      <point x="607.1600000000001" y="674.4200000000001" type="line"/>
      <point x="282.49999999999994" y="674.4200000000001" type="line"/>
    </contour>
    <component base="d"/>
  </outline>
</glyph>
<glyph name="Hbar" format="2">
  <advance width="655.26"/>
  <unicode hex="0126"/>
  <outline>
    <contour>
      <point x="48.31" y="498.34" type="line"/>
      <point x="678.73" y="498.34" type="line"/>
      <point x="693.6700000000001" y="592.1200000000001" type="line"/>
      <point x="63.25000000000001" y="592.1200000000001" type="line"/>
    </contour>
    <component base="H" xOffset="2.3200000000000003"/>
  </outline>
</glyph>
<glyph name="hbar" format="2">
  <advance width="538.64"/>
  <unicode hex="0127"/>
  <outline>
    <contour>
      <point x="47.5" y="607.72" type="line"/>
      <point x="356.67999999999995" y="607.72" type="line"/>
      <point x="367.21999999999997" y="674.4200000000001" type="line"/>
      <point x="58.04" y="674.4200000000001" type="line"/>
    </contour>
    <component base="h" xOffset="1.1400000000000001"/>
  </outline>
</glyph>
<glyph name="Idotaccent" format="2">
  <advance width="248.44"/>
  <unicode hex="0130"/>
  <outline>
    <contour>
      <point x="224.12" y="900.85" type="curve" smooth="yes"/>
      <point x="163.66" y="900.85"/>
      <point x="138.89000000000001" y="867.1999999999999"/>
      <point x="137.9" y="814.35" type="curve" smooth="yes"/>
      <point x="137.63000000000002" y="780.68"/>
      <point x="158.54" y="764.22"/>
      <point x="200.77" y="764.22" type="curve" smooth="yes"/>
      <point x="256.3" y="764.22"/>
      <point x="285.96" y="795.45"/>
      <point x="287.13000000000005" y="851.45" type="curve" smooth="yes"/>
      <point x="287.4" y="884.72"/>
      <point x="266.70000000000005" y="900.85"/>
    </contour>
    <component base="I"/>
  </outline>
</glyph>
<glyph name="dotlessi" format="2">
  <advance width="233.34"/>
  <unicode hex="0131"/>
  <anchor x="72.70768" y="0.0" name="bottom"/>
  <anchor x="135.3" y="0.0" name="ogonek"/>
  <anchor x="158.56232000000003" y="541.0" name="top"/>
  <outline>
    <contour>
      <point x="135.3" y="0.0" type="line"/>
      <point x="220.73000000000002" y="541.0" type="line"/>
      <point x="96.46" y="541.0" type="line"/>
      <point x="10.86" y="0.22000000000000003" type="line"/>
    </contour>
  </outline>
</glyph>
<glyph name="kgreenlandic" format="2">
  <advance width="504.20000000000005"/>
  <unicode hex="0138"/>
  <anchor x="224.1" y="0.0" name="bottom"/>
  <anchor x="304.1556" y="541.0" name="top"/>
  <outline>
    <contour>
      <point x="10.899999999999997" y="0.0" type="line"/>
      <point x="136.3" y="0.0" type="line"/>
      <point x="222.5" y="541.0" type="line"/>
      <point x="96.1" y="541.0" type="line"/>
    </contour>
    <contour>
      <point x="423.2" y="-10.0" type="curve" smooth="yes"/>
      <point x="435.59999999999997" y="-10.0"/>
      <point x="447.9" y="-8.0"/>
      <point x="460.4" y="-3.9" type="curve"/>
      <point x="475.2" y="112.40000000000002" type="line"/>
      <point x="468.09999999999997" y="111.50000000000001"/>
      <point x="461.1" y="111.5"/>
      <point x="454.90000000000003" y="111.6" type="curve" smooth="yes"/>
      <point x="419.49999999999994" y="112.10000000000001"/>
      <point x="381.30000000000007" y="135.70000000000002"/>
      <point x="307.1" y="230.00000000000003" type="curve" smooth="yes"/>
      <point x="184.1" y="386.90000000000003" type="line"/>
      <point x="157.60000000000002" y="254.5" type="line"/>
      <point x="263.8" y="110.29999999999998" type="line" smooth="yes"/>
      <point x="327.0" y="25.1"/>
      <point x="371.20000000000005" y="-10.0"/>
    </contour>
    <contour>
      <point x="280.9" y="249.8" type="line"/>
      <point x="389.0" y="324.8"/>
      <point x="482.50000000000006" y="435.7"/>
      <point x="525.1999999999999" y="539.7999999999998" type="curve"/>
      <point x="397.4" y="551.0" type="line"/>
      <point x="352.3" y="446.4"/>
      <point x="297.40000000000003" y="379.40000000000003"/>
      <point x="204.0" y="312.90000000000003" type="curve"/>
    </contour>
  </outline>
</glyph>
<glyph name="Ldot" format="2">
  <advance width="502.43"/>
  <unicode hex="013F"/>
  <outline>
    <contour>
      <point x="334.72934" y="380.32746" type="curve" smooth="yes"/>
      <point x="334.00933999999995" y="350.06966"/>
      <point x="349.29846000000003" y="335.88087"/>
      <point x="385.57615" y="335.88087" type="curve" smooth="yes"/>
      <point x="432.97263000000004" y="335.88087"/>
      <point x="453.88164" y="366.24647"/>
      <point x="454.96164" y="408.80372" type="curve" smooth="yes"/>
      <point x="455.68164" y="438.79163000000005"/>
      <point x="440.66252000000003" y="453.25042"/>
      <point x="404.82461000000006" y="453.25042" type="curve" smooth="yes"/>
      <point x="357.86824" y="453.25042"/>
      <point x="335.80934" y="422.00471"/>
    </contour>
    <component base="L"/>
  </outline>
</glyph>
<glyph name="ldot" format="2">
  <advance width="332.26"/>
  <unicode hex="0140"/>
  <outline>
    <contour>
      <point x="255.48914999999997" y="365.92324999999994" type="curve" smooth="yes"/>
      <point x="254.76915" y="340.15554"/>
      <point x="265.90533" y="328.52854"/>
      <point x="293.37312000000003" y="328.52854" type="curve" smooth="yes"/>
      <point x="330.85211" y="328.52854"/>
      <point x="345.15265000000005" y="355.69952"/>
      <point x="346.23265000000004" y="391.66678" type="curve" smooth="yes"/>
      <point x="346.95265" y="417.02864"/>
      <point x="336.08647" y="428.92564000000004"/>
      <point x="308.95990000000006" y="428.92564000000004" type="curve" smooth="yes"/>
      <point x="271.82158" y="428.92564000000004"/>
      <point x="256.56915" y="401.29497"/>
    </contour>
    <component base="l"/>
  </outline>
</glyph>
<glyph name="Lslash" format="2">
  <advance width="509.33000000000004"/>
  <unicode hex="0141"/>
  <outline>
    <contour>
      <point x="22.0" y="0.0" type="line"/>
      <point x="449.43" y="0.0" type="line"/>
      <point x="467.83000000000004" y="110.19" type="line"/>
      <point x="167.64000000000001" y="110.19" type="line"/>
      <point x="196.78" y="294.43" type="line"/>
      <point x="386.66" y="401.06" type="line"/>
      <point x="406.16999999999996" y="518.3000000000001" type="line"/>
      <point x="215.63000000000002" y="411.34" type="line"/>
      <point x="261.89" y="700.0" type="line"/>
      <point x="134.21" y="700.0" type="line"/>
      <point x="77.43" y="346.14000000000004" type="line"/>
      <point x="18.64" y="312.34" type="line"/>
      <point x="0.28999999999999915" y="195.93" type="line"/>
      <point x="58.31" y="229.51000000000002" type="line"/>
    </contour>
  </outline>
</glyph>
<glyph name="lslash" format="2">
  <advance width="285.5"/>
  <unicode hex="0142"/>
  <outline>
    <contour>
      <point x="-0.8899999999999997" y="192.68" type="line"/>
      <point x="280.40000000000003" y="384.52" type="line"/>
      <point x="296.72" y="487.54" type="line"/>
      <point x="14.880000000000003" y="295.7" type="line"/>
    </contour>
    <component base="l" xOffset="6.6"/>
  </outline>
</glyph>
<glyph name="Eng" format="2">
  <advance width="638.8999999999999"/>
  <unicode hex="014A"/>
  <outline>
    <contour>
      <point x="15.1" y="0.0" type="line"/>
      <point x="137.7" y="0.0" type="line"/>
      <point x="209.9" y="451.70000000000005" type="line"/>
      <point x="420.09999999999997" y="-1.0999999999999999" type="line"/>
      <point x="409.09999999999997" y="-58.400000000000006"/>
      <point x="373.0" y="-78.0"/>
      <point x="322.0" y="-78.0" type="curve" smooth="yes"/>
      <point x="300.59999999999997" y="-79.8"/>
      <point x="277.8" y="-79.59999999999998"/>
      <point x="247.7" y="-72.69999999999999" type="curve"/>
      <point x="226.4" y="-184.8" type="line"/>
      <point x="257.3" y="-192.89999999999998"/>
      <point x="293.7" y="-195.60000000000002"/>
      <point x="317.09999999999997" y="-195.60000000000002" type="curve" smooth="yes"/>
      <point x="440.2" y="-195.3"/>
      <point x="512.3000000000001" y="-137.1"/>
      <point x="533.6" y="-0.40000000000000147" type="curve" smooth="yes"/>
      <point x="646.8" y="700.0" type="line"/>
      <point x="524.0" y="700.0" type="line"/>
      <point x="449.7" y="233.4" type="line"/>
      <point x="245.29999999999998" y="701.8" type="line"/>
      <point x="127.2" y="701.8" type="line"/>
    </contour>
  </outline>
</glyph>
<glyph name="eng" format="2">
  <advance width="532.24"/>
  <unicode hex="014B"/>
  <outline>
    <contour>
      <point x="430.69" y="-10.25999999999999" type="curve" smooth="yes"/>
      <point x="455.07000000000005" y="146.39999999999998"/>
      <point x="503.19" y="426.25"/>
      <point x="503.19" y="444.67" type="curve" smooth="yes"/>
      <point x="503.19" y="509.0"/>
      <point x="460.47" y="551.0"/>
      <point x="379.52" y="551.0" type="curve" smooth="yes"/>
      <point x="318.55" y="551.0"/>
      <point x="267.08000000000004" y="531.41"/>
      <point x="200.72" y="493.53000000000003" type="curve"/>
      <point x="208.08" y="541.0" type="line"/>
      <point x="96.24" y="541.0" type="line"/>
      <point x="10.77" y="0.0" type="line"/>
      <point x="133.67000000000002" y="0.0" type="line"/>
      <point x="199.81" y="410.3" type="line"/>
      <point x="240.25" y="430.56"/>
      <point x="275.01" y="444.54"/>
      <point x="312.58" y="444.54" type="curve" smooth="yes"/>
      <point x="354.03" y="444.54"/>
      <point x="373.83" y="425.57"/>
      <point x="372.07" y="389.62" type="curve" smooth="yes"/>
      <point x="369.43" y="364.54"/>
      <point x="353.53" y="269.85999999999996"/>
      <point x="309.07" y="-8.449999999999992" type="curve" smooth="yes"/>
      <point x="299.40999999999997" y="-68.53999999999999"/>
      <point x="279.01" y="-102.66"/>
      <point x="236.31000000000003" y="-102.66" type="curve" smooth="yes"/>
      <point x="229.48000000000002" y="-102.66"/>
      <point x="221.21" y="-102.02999999999999"/>
      <point x="211.74" y="-98.85" type="curve"/>
      <point x="186.82999999999998" y="-214.52" type="line"/>
      <point x="204.06" y="-218.62"/>
      <point x="232.86" y="-221.08"/>
      <point x="256.94000000000005" y="-221.08" type="curve" smooth="yes"/>
      <point x="349.65000000000003" y="-221.08"/>
      <point x="408.87" y="-160.79999999999998"/>
    </contour>
  </outline>
</glyph>
<glyph name="OE" format="2">
  <advance width="942.8"/>
  <unicode hex="0152"/>
  <outline>
    <contour>
      <point x="872.2" y="0.0" type="line"/>
      <point x="890.4" y="110.39999999999999" type="line"/>
      <point x="555.6" y="110.39999999999999" type="line"/>
      <point x="585.0" y="302.3" type="line"/>
      <point x="880.6000000000001" y="302.3" type="line"/>
      <point x="899.3" y="411.09999999999997" type="line"/>
      <point x="602.8000000000001" y="411.09999999999997" type="line"/>
      <point x="632.1" y="589.3" type="line"/>
      <point x="950.1000000000001" y="589.3" type="line"/>
      <point x="968.3000000000001" y="700.0" type="line"/>
      <point x="647.6999999999999" y="700.0" type="line"/>
      <point x="579.7" y="703.9999999999999"/>
      <point x="506.2" y="710.0"/>
      <point x="421.1" y="710.0" type="curve" smooth="yes"/>
      <point x="200.70000000000002" y="710.0"/>
      <point x="39.8" y="521.1999999999999"/>
      <point x="39.8" y="244.09999999999997" type="curve" smooth="yes"/>
      <point x="39.8" y="74.70000000000002"/>
      <point x="120.70000000000002" y="-10.0"/>
      <point x="319.90000000000003" y="-10.0" type="curve" smooth="yes"/>
      <point x="390.9" y="-10.0"/>
      <point x="454.6" y="-5.0"/>
      <point x="532.0999999999999" y="0.0" type="curve"/>
    </contour>
    <contour>
      <point x="426.20000000000005" y="99.40000000000002" type="line"/>
      <point x="393.00000000000006" y="96.50000000000001"/>
      <point x="360.80000000000007" y="94.60000000000002"/>
      <point x="321.7" y="94.60000000000002" type="curve" smooth="yes"/>
      <point x="217.79999999999998" y="94.60000000000002"/>
      <point x="167.4" y="151.5"/>
      <point x="167.4" y="254.39999999999998" type="curve" smooth="yes"/>
      <point x="167.4" y="438.70000000000005"/>
      <point x="260.8" y="603.1999999999999"/>
      <point x="403.4" y="603.1999999999999" type="curve" smooth="yes"/>
      <point x="431.3" y="603.1999999999999"/>
      <point x="484.29999999999995" y="600.3000000000001"/>
      <point x="505.90000000000003" y="598.4" type="curve"/>
    </contour>
  </outline>
</glyph>
<glyph name="oe" format="2">
  <advance width="838.9"/>
  <unicode hex="0153"/>
  <outline>
    <contour>
      <point x="237.0" y="-10.0" type="curve" smooth="yes"/>
      <point x="314.4" y="-10.0"/>
      <point x="370.7" y="34.1"/>
      <point x="401.20000000000005" y="77.89999999999999" type="curve"/>
      <point x="434.0" y="25.099999999999998"/>
      <point x="491.59999999999997" y="-10.0"/>
      <point x="578.5" y="-10.0" type="curve" smooth="yes"/>
      <point x="645.2" y="-10.0"/>
      <point x="719.4000000000001" y="2.9000000000000004"/>
      <point x="778.4000000000001" y="25.900000000000006" type="curve"/>
      <point x="761.4" y="126.30000000000001" type="line"/>
      <point x="702.0000000000001" y="105.39999999999999"/>
      <point x="640.3" y="94.70000000000002"/>
      <point x="600.4" y="94.70000000000002" type="curve" smooth="yes"/>
      <point x="517.9" y="94.70000000000002"/>
      <point x="481.70000000000005" y="129.1"/>
      <point x="481.70000000000005" y="214.0" type="curve" smooth="yes"/>
      <point x="481.70000000000005" y="357.1"/>
      <point x="553.1" y="453.9"/>
      <point x="638.8" y="453.9" type="curve" smooth="yes"/>
      <point x="683.6999999999999" y="453.9"/>
      <point x="707.1999999999999" y="438.29999999999995"/>
      <point x="707.1999999999999" y="404.0" type="curve" smooth="yes"/>
      <point x="707.1999999999999" y="353.2"/>
      <point x="655.6" y="323.90000000000003"/>
      <point x="566.3" y="306.6" type="curve" smooth="yes"/>
      <point x="530.7" y="299.8"/>
      <point x="492.59999999999997" y="296.8"/>
      <point x="459.90000000000003" y="298.79999999999995" type="curve"/>
      <point x="452.50000000000006" y="217.89999999999998" type="line"/>
      <point x="496.2" y="214.8"/>
      <point x="547.4000000000001" y="216.8"/>
      <point x="599.5" y="224.8" type="curve" smooth="yes"/>
      <point x="745.6000000000001" y="248.69999999999996"/>
      <point x="831.6" y="321.4"/>
      <point x="831.6" y="421.3" type="curve" smooth="yes"/>
      <point x="831.6" y="500.8"/>
      <point x="766.6" y="551.0"/>
      <point x="653.2" y="551.0" type="curve" smooth="yes"/>
      <point x="564.9000000000001" y="551.0"/>
      <point x="497.5000000000001" y="513.0"/>
      <point x="452.40000000000003" y="460.3" type="curve"/>
      <point x="429.3" y="516.8"/>
      <point x="367.1" y="552.0"/>
      <point x="281.2" y="552.0" type="curve" smooth="yes"/>
      <point x="96.79999999999998" y="552.0"/>
      <point x="26.300000000000004" y="367.7"/>
      <point x="26.300000000000004" y="195.39999999999998" type="curve" smooth="yes"/>
      <point x="26.300000000000004" y="61.199999999999996"/>
      <point x="95.9" y="-10.0"/>
    </contour>
    <contour>
      <point x="241.9" y="88.10000000000001" type="curve" smooth="yes"/>
      <point x="180.20000000000002" y="88.0"/>
      <point x="150.3" y="118.7"/>
      <point x="149.2" y="183.20000000000002" type="curve" smooth="yes"/>
      <point x="147.00000000000003" y="295.9"/>
      <point x="186.4" y="452.8"/>
      <point x="275.2" y="453.9" type="curve" smooth="yes"/>
      <point x="335.0" y="454.0"/>
      <point x="365.90000000000003" y="420.59999999999997"/>
      <point x="367.0" y="357.0" type="curve" smooth="yes"/>
      <point x="369.20000000000005" y="243.39999999999998"/>
      <point x="326.20000000000005" y="89.2"/>
    </contour>
  </outline>
</glyph>
<glyph name="uni0162" format="2">
  <advance width="533.46"/>
  <unicode hex="0162"/>
  <anchor x="222.89137000000002" y="0.0" name="_bottom"/>
  <anchor x="162.12" y="-220.0" name="bottom"/>
  <outline>
    <contour>
      <point x="86.61000000000001" y="-203.82999999999998" type="line"/>
      <point x="111.79000000000002" y="-215.1"/>
      <point x="135.25000000000003" y="-220.0"/>
      <point x="163.74" y="-220.0" type="curve" smooth="yes"/>
      <point x="241.11000000000004" y="-220.0"/>
      <point x="296.1" y="-164.64000000000001"/>
      <point x="296.1" y="-81.59" type="curve" smooth="yes"/>
      <point x="296.1" y="-47.82"/>
      <point x="285.86" y="-17.14"/>
      <point x="269.24" y="5.74" type="curve"/>
      <point x="181.12" y="4.510000000000001" type="line"/>
      <point x="197.91" y="-17.84"/>
      <point x="206.35000000000002" y="-38.66"/>
      <point x="206.35000000000002" y="-66.83" type="curve" smooth="yes"/>
      <point x="206.35000000000002" y="-113.47"/>
      <point x="181.04000000000002" y="-135.61"/>
      <point x="146.15" y="-135.61" type="curve" smooth="yes"/>
      <point x="130.88000000000002" y="-135.61"/>
      <point x="117.0" y="-131.73"/>
      <point x="103.59" y="-124.67" type="curve"/>
    </contour>
    <component base="T"/>
  </outline>
</glyph>
